<?xml version="1.0" encoding="UTF-8" standalone="no"?>
<!-- Created with Inkscape (http://www.inkscape.org/) -->

<svg
   width="104.895mm"
   height="100.744mm"
   viewBox="0 0 104.895 100.744"
   version="1.1"
   id="svg962"
   inkscape:version="1.2.2 (b0a8486541, 2022-12-01)"
   sodipodi:docname="abcdj_logo_nrw_simple.svg"
   xmlns:inkscape="http://www.inkscape.org/namespaces/inkscape"
   xmlns:sodipodi="http://sodipodi.sourceforge.net/DTD/sodipodi-0.dtd"
   xmlns="http://www.w3.org/2000/svg"
   xmlns:svg="http://www.w3.org/2000/svg">
  <sodipodi:namedview
     id="namedview964"
     pagecolor="#ffffff"
     bordercolor="#666666"
     borderopacity="1.0"
     inkscape:showpageshadow="2"
     inkscape:pageopacity="0.0"
     inkscape:pagecheckerboard="0"
     inkscape:deskcolor="#d1d1d1"
     inkscape:document-units="mm"
     showgrid="false"
     inkscape:zoom="0.93806818"
     inkscape:cx="499.43065"
     inkscape:cy="316.60812"
     inkscape:window-width="2256"
     inkscape:window-height="1435"
     inkscape:window-x="0"
     inkscape:window-y="0"
     inkscape:window-maximized="1"
     inkscape:current-layer="layer1" />
  <defs
     id="defs959">
    <filter
       y="-1.3154031"
       height="3.6308062"
       inkscape:menu-tooltip="Darkens the edge with an inner blur and adds a flexible glow"
       inkscape:menu="Shadows and Glows"
       inkscape:label="Dark and Glow"
       style="color-interpolation-filters:sRGB"
       id="filter59267-0-6-8"
       x="-1.1032128"
       width="3.2064256">
      <feGaussianBlur
         stdDeviation="33.364105"
         result="result6"
         id="feGaussianBlur59257-4-3-8" />
      <feComposite
         result="result8"
         in="SourceGraphic"
         operator="atop"
         in2="result6"
         id="feComposite59259-0-6-5" />
      <feComposite
         result="result9"
         operator="over"
         in2="SourceAlpha"
         in="result8"
         id="feComposite59261-6-9-2" />
      <feColorMatrix
         values="1 0 0 0 0 0 1 0 0 0 0 0 1 0 0 0 0 0 1 0 "
         result="result10"
         id="feColorMatrix59263-5-1-2" />
      <feBlend
         in="result10"
         mode="normal"
         in2="result6"
         id="feBlend59265-3-0-8" />
    </filter>
  </defs>
  <g
     inkscape:label="Layer 1"
     inkscape:groupmode="layer"
     id="layer1"
     transform="translate(37.135686,-36.390317)">
    <g
       id="g3982">
      <g
         transform="matrix(0.02832508,0,0,0.02832508,-36.170848,36.990979)"
         id="layer1-8-4-5-1-5-0"
         style="display:inline;opacity:0.835249;fill:none;fill-opacity:1;stroke:#333333;stroke-width:35.7678;stroke-miterlimit:3.85;stroke-dasharray:none;stroke-opacity:1">
        <path
           id="polygon701-4-7-7-2-8-8"
           d="m 1278.417,5601.465 9.811,1.637 11.447,-71.959 -27.799,-71.956 45.789,-11.449 v 11.449 l 32.708,16.351 40.886,37.614 32.707,65.418 h 34.343 l 63.781,-31.073 50.696,52.335 -1.633,16.351 19.624,16.355 45.793,-8.179 -9.817,-67.051 24.53,-32.706 24.532,6.541 22.895,-19.624 39.251,-21.26 1.633,-42.521 -13.082,-31.074 -26.165,-3.271 -8.179,-4.901 -104.663,-68.688 v -11.451 l 21.26,-37.614 -39.251,-22.894 -19.624,-37.614 13.083,-9.812 -9.812,-32.706 -45.793,-27.802 -39.248,-9.813 -60.507,50.697 -39.251,14.715 -44.157,-11.444 -8.174,-26.171 h -42.522 l -22.894,42.524 -31.073,-9.812 -8.178,-1.639 -8.175,50.699 24.531,70.325 -35.981,49.057 -3.271,57.243 29.436,-14.719 49.064,35.976 -0.137,1.09 -3.133,28.349 -60.509,55.601 z"
           transform="translate(-107.74507,-4056.293)" />
        <path
           id="polygon703-9-5-4-2-3"
           d="m 3574.506,5661.974 -40.884,40.885 -44.156,26.168 -6.542,26.165 -34.342,9.81 -29.441,37.616 -62.142,-4.906 -14.719,-31.073 14.719,-47.424 -14.719,-14.718 -53.968,-14.723 -52.333,8.18 -58.876,-26.163 -6.54,-13.087 62.144,-52.331 50.697,-16.356 -1.633,-34.342 -24.531,-8.178 -11.45,-31.072 11.45,-42.518 -14.72,-45.794 24.531,-50.697 -11.448,-86.677 -19.624,-34.345 -4.905,-9.811 -4.907,-73.591 135.737,-83.407 37.614,-17.987 49.064,67.05 11.445,4.909 45.792,-14.719 37.614,1.632 29.436,24.531 27.803,-6.541 27.801,-14.717 45.789,13.084 52.334,-11.448 v 13.081 l -24.531,26.166 -1.635,53.971 14.717,16.355 -34.341,32.706 -4.906,9.81 -22.896,14.72 -6.54,32.706 14.715,9.815 -1.632,31.069 4.903,6.541 -24.527,91.588 42.517,6.54 6.542,-4.909 h 1.637 l 14.716,-1.631 4.908,9.81 -13.083,16.355 -34.343,14.719 -22.894,-1.639 -37.616,21.264 26.166,27.799 -3.271,17.989 -39.251,49.063 z"
           transform="translate(-107.74507,-4056.293)" />
        <path
           id="polygon705-7-0-6-1-2"
           d="m 3267.051,5377.416 -24.531,50.697 14.72,45.794 -11.45,42.518 11.45,31.072 24.531,8.178 1.633,34.342 -50.697,16.356 -62.144,52.331 -11.446,-26.166 h -47.426 l -29.439,11.448 -8.176,21.259 27.799,49.061 -47.426,60.508 -22.894,14.723 -8.175,-11.452 -37.614,-8.172 -93.218,-32.709 -24.533,-8.177 -27.801,24.53 h -26.166 l -26.166,-39.251 -40.884,-89.947 v -34.342 l 17.987,-29.435 89.947,-53.971 -9.81,-58.873 -91.581,-40.885 6.54,-11.446 -16.353,-47.427 -65.417,1.633 16.353,-63.778 50.698,-50.698 50.696,-24.53 16.287,-37.615 h 0.066 l 37.614,-17.991 29.44,-16.353 26.164,-13.082 34.343,17.991 85.041,-9.814 16.353,40.883 1.638,26.169 21.26,31.072 71.954,-1.636 53.972,-21.263 11.445,8.18 -9.813,8.178 39.252,21.257 4.905,9.811 19.624,34.345 z"
           transform="translate(-107.74507,-4056.293)" />
        <path
           id="polygon707-2-5-7-6-3"
           d="m 2935.065,4940.767 8.179,-104.665 -4.907,-24.531 14.718,-34.343 26.166,-19.625 19.627,6.54 19.624,-35.98 13.083,-13.081 63.779,1.636 31.072,29.436 h 19.628 l 29.436,-19.622 3.27,-58.876 29.437,-50.698 60.512,6.542 -1.638,-21.261 29.436,39.253 -6.541,53.966 24.532,-4.906 34.343,-14.719 73.592,24.533 13.086,22.893 -26.168,35.979 h 21.26 l 35.977,42.52 -16.353,44.158 19.623,73.589 -21.256,21.262 19.622,32.706 21.262,-16.351 h 55.601 l 13.086,27.798 -16.357,3.272 1.637,37.613 19.623,16.357 16.354,-3.273 22.897,11.449 11.447,44.154 -13.082,53.968 -27.803,6.541 -29.436,-24.531 -37.614,-1.632 -45.792,14.719 -11.445,-4.909 -49.064,-67.05 -37.614,17.987 -135.737,83.407 4.907,73.591 -39.252,-21.257 9.813,-8.178 -11.445,-8.18 -53.972,21.263 -71.954,1.636 -21.26,-31.072 -1.638,-26.169 -16.353,-40.883 -1.633,-3.273 -60.512,-88.308 -57.239,-24.53 -17.989,4.905 35.979,-68.688 z"
           transform="translate(-107.74507,-4056.293)" />
        <path
           id="polygon709-0-5-5-0-9"
           d="m 3141.126,4289.879 67.051,-21.258 16.353,1.636 60.512,-86.676 53.966,-68.687 40.886,4.905 40.885,32.706 -42.521,53.972 29.438,49.06 -27.802,67.054 -21.26,31.071 -16.354,17.989 -60.509,21.26 -27.803,96.489 101.394,50.696 -14.719,17.988 -14.716,19.628 -1.637,44.155 -57.239,-19.628 1.638,21.261 -60.512,-6.542 -24.532,-17.989 -37.611,3.27 -3.275,11.449 -55.6,27.804 -21.261,8.175 -11.449,-8.175 19.627,-45.794 -35.98,-58.872 -27.802,-21.26 -26.166,1.633 -11.449,21.26 -47.424,-47.423 -47.428,8.176 -29.436,-4.909 -3.269,-4.903 -85.041,-13.087 -3.27,-13.081 1.633,-65.419 -17.986,-71.953 -49.064,-34.343 -76.862,-40.885 -13.086,-78.499 70.324,19.625 24.532,-6.542 19.623,6.542 39.249,-22.893 6.54,-47.428 45.794,-35.98 50.696,21.26 91.581,-47.424 49.063,50.697 -1.637,89.946 14.719,24.528 -14.719,53.969 h 11.448 l 27.803,11.446 29.436,-11.446 11.449,-4.907 z"
           transform="translate(-107.74507,-4056.293)" />
        <path
           id="polygon711-1-8-5-8-9"
           d="m 3142.759,4613.688 3.275,-11.449 37.611,-3.27 24.532,17.989 -29.437,50.698 -3.27,58.876 -29.436,19.622 h -19.628 l -31.072,-29.436 -63.779,-1.636 -13.083,13.081 -19.624,35.98 -19.627,-6.54 -26.166,19.625 -14.718,34.343 -24.529,-3.272 -44.154,-27.801 -22.899,-47.426 -6.541,9.812 -37.614,-21.261 -42.519,21.261 -42.521,-6.541 -17.988,-17.99 1.635,-32.706 40.884,-29.439 26.166,-4.905 39.251,-42.517 -40.886,-16.358 -31.072,-31.074 24.531,-85.041 85.041,13.087 3.269,4.903 29.436,4.909 47.428,-8.176 47.424,47.423 11.449,-21.26 26.166,-1.633 27.802,21.26 35.98,58.872 -19.627,45.794 11.449,8.175 21.261,-8.175 z"
           transform="translate(-107.74507,-4056.293)" />
        <path
           id="polygon713-2-4-0-4-1"
           d="m 2913.808,4808.299 24.529,3.272 4.907,24.531 -8.179,104.665 -11.446,13.082 -35.979,68.688 -49.061,11.448 -24.531,-11.448 -26.166,17.99 -16.355,-44.156 -89.946,-26.168 -16.353,-29.436 27.801,4.906 42.521,-24.531 8.178,-40.884 -35.981,-47.427 26.166,-22.898 26.168,-67.049 42.519,-21.261 37.614,21.261 6.541,-9.812 22.899,47.426 z"
           transform="translate(-107.74507,-4056.293)" />
        <path
           id="polygon715-1-7-5-7-2"
           d="m 2962.868,5042.162 60.512,88.308 1.633,3.273 -85.041,9.814 -34.343,-17.991 -26.164,13.082 -29.44,16.353 -37.614,17.991 h -0.066 l -16.287,37.615 -50.696,24.53 -50.698,50.698 -16.353,63.778 -50.697,-6.539 -29.439,-4.908 -17.987,-45.791 -47.425,-37.613 6.541,-22.895 -22.899,-50.698 -34.343,-9.815 21.261,-22.894 -67.05,-89.944 21.261,-21.262 -1.638,-22.896 -53.967,-49.06 v -71.959 l -19.623,4.91 -14.72,-21.262 22.895,-73.595 35.981,-22.894 h 40.884 17.987 l 8.178,-22.895 45.793,-52.334 16.353,1.638 4.905,-16.355 55.604,9.814 44.155,21.257 19.624,8.176 19.627,-11.446 17.988,17.99 42.521,6.541 -26.168,67.049 -26.166,22.898 35.981,47.427 -8.178,40.884 -42.521,24.531 -27.801,-4.906 16.353,29.436 89.946,26.168 16.355,44.156 26.166,-17.99 24.531,11.448 49.061,-11.448 17.989,-4.905 z"
           transform="translate(-107.74507,-4056.293)" />
        <path
           id="polygon717-2-0-2-8-7"
           d="m 2096.113,5302.188 80.131,57.238 49.064,8.177 50.697,44.156 -44.157,1.634 -44.153,91.582 -1.637,31.072 -39.25,-1.631 -44.154,24.53 -3.271,1.636 -8.179,-44.157 -26.164,-21.261 -57.239,-14.717 -14.719,21.258 -26.165,-1.633 -11.449,-73.592 53.968,-24.533 -26.166,-31.142 3.271,-29.37 34.343,-39.247 34.343,21.261 z"
           transform="translate(-107.74507,-4056.293)" />
        <path
           id="polygon719-4-8-0-1-7"
           d="m 1986.541,5087.953 -4.908,-26.166 3.271,-24.533 11.448,-6.541 53.968,17.99 11.45,-52.332 -21.262,-26.168 -11.449,-34.341 -3.27,-22.897 14.719,-24.532 -37.615,-58.872 22.896,-27.803 -1.634,-16.352 32.707,-57.243 39.251,-8.172 19.624,17.989 h 34.344 l 32.706,17.985 34.343,42.523 -3.268,8.176 62.143,27.801 50.696,-49.059 h 26.166 l 37.614,17.986 -22.895,73.595 14.72,21.262 19.623,-4.91 v 71.959 l 53.967,49.06 1.638,22.896 -21.261,21.262 67.05,89.944 -21.261,22.894 34.343,9.815 22.899,50.698 -6.541,22.895 47.425,37.613 17.987,45.791 -26.166,47.428 -1.636,29.437 -29.436,19.621 -70.321,1.64 17.988,-57.243 -32.708,-4.905 -53.967,-27.8 -24.53,22.895 -40.885,-19.626 -78.5,-14.719 -16.352,4.91 -16.354,27.799 -49.064,-8.177 -80.131,-57.238 -40.886,21.261 -34.343,-21.261 -22.897,-19.625 -24.53,-86.677 -21.261,-32.707 -22.894,-1.635 -26.168,-26.165 4.908,-26.166 35.976,-32.712 z"
           transform="translate(-107.74507,-4056.293)" />
        <path
           id="polygon721-5-6-7-7-6"
           d="m 2024.155,4785.406 1.634,16.352 -22.896,27.803 -101.393,-45.792 -44.155,29.439 -21.26,34.338 -22.896,32.712 -39.251,4.905 -39.247,-13.082 -4.908,-13.084 3.27,-26.166 -22.894,-22.898 3.272,13.088 -35.979,8.175 -37.613,-22.897 -42.52,-17.99 6.541,-13.081 h -27.804 l 3.271,-65.416 -16.354,-32.707 -34.343,3.27 -40.884,-21.259 -21.261,-13.083 -14.717,-31.075 16.352,-16.352 -49.062,-47.428 3.271,-76.865 22.898,-29.435 85.041,-1.633 h 8.176 l 78.499,4.902 19.627,-26.163 h 13.083 l 35.975,-17.989 14.719,-19.624 45.79,-13.083 11.448,-29.44 24.531,-11.448 60.51,-39.249 6.54,-3.272 4.909,-1.63 8.174,4.902 34.343,-11.446 26.168,-62.144 1.636,-9.812 -37.615,-17.991 44.155,-67.05 75.227,31.068 24.533,89.948 34.344,14.72 32.707,21.261 29.438,14.715 27.799,3.272 49.064,-17.987 27.8,26.166 14.722,1.633 9.812,47.425 16.352,17.991 22.895,34.343 -39.247,-6.541 -17.991,13.082 v 16.355 l 24.531,24.532 -32.708,16.353 v 45.791 l -4.906,16.353 -21.26,22.896 1.637,13.084 24.529,32.707 86.675,14.721 -14.719,26.164 3.271,63.781 -35.977,-1.634 -13.082,16.352 -73.595,32.706 -32.706,-17.985 h -34.344 l -19.624,-17.989 -39.251,8.172 z"
           transform="translate(-107.74507,-4056.293)" />
        <path
           id="polygon723-4-1-7-0-1"
           d="m 1984.904,5037.254 -3.271,24.533 4.908,26.166 -42.523,-11.452 -35.976,32.712 -4.908,26.166 -13.083,-4.909 -40.885,-21.257 -37.614,-67.051 -11.446,-49.064 -26.168,-21.26 6.542,-27.8 40.884,-31.073 -8.175,-32.707 22.896,-32.712 21.26,-34.338 44.155,-29.439 101.393,45.792 37.615,58.872 -14.719,24.532 3.27,22.897 11.449,34.341 21.262,26.168 -11.45,52.332 -53.968,-17.99 z"
           transform="translate(-107.74507,-4056.293)" />
        <path
           id="polygon725-0-6-9-4-4"
           d="m 1639.839,4808.299 37.613,22.897 35.979,-8.175 -3.272,-13.088 22.894,22.898 -3.27,26.166 4.908,13.084 39.247,13.082 39.251,-4.905 8.175,32.707 -40.884,31.073 -6.542,27.8 26.168,21.26 11.446,49.064 37.614,67.051 40.885,21.257 13.083,4.909 26.168,26.165 22.894,1.635 21.261,32.707 24.53,86.677 22.897,19.625 -34.343,39.247 -34.345,-13.082 -16.352,22.897 -24.531,-14.717 -81.77,42.516 -26.165,-57.237 -32.71,3.271 -3.27,-9.813 -13.083,-17.99 -34.344,21.262 -11.449,21.262 26.169,24.529 v 21.261 l -42.523,22.898 -104.663,-68.688 v -11.451 l 21.26,-37.614 -39.251,-22.894 -19.624,-37.614 13.083,-9.812 -9.812,-32.706 -45.793,-27.802 -39.248,-9.813 -47.425,-19.628 -22.895,-22.893 -40.884,-68.688 27.799,-60.51 11.449,-75.227 -27.802,-21.262 -8.175,-27.798 35.977,-1.636 32.709,-8.179 49.061,-52.33 13.082,-1.638 57.237,9.813 27.803,-22.894 h 27.804 l -6.541,13.081 z"
           transform="translate(-107.74507,-4056.293)" />
        <path
           id="polygon737-4-4-7-6-0"
           d="m 943.16,5742.108 v -75.228 l -35.977,-32.706 63.78,-22.896 -13.082,-32.708 11.444,-32.711 50.702,26.168 44.154,21.264 3.271,26.165 32.705,21.259 -16.353,78.5 8.176,26.165 -8.176,101.393 13.083,35.98 -22.895,3.269 -24.531,11.447 -34.343,-17.987 -34.342,29.438 -8.18,-6.545 -44.156,-19.622 -1.633,-57.243 -19.624,-16.351 8.178,-35.979 19.623,11.445 z"
           transform="translate(-107.74507,-4056.293)" />
        <path
           id="polygon739-4-3-5-9-5"
           d="m 1188.468,5730.659 37.615,3.27 6.541,19.628 -19.623,65.413 -39.251,42.522 -76.863,21.261 -13.083,-35.98 8.176,-101.393 -8.176,-26.165 32.707,8.174 58.875,-31.075 z"
           transform="translate(-107.74507,-4056.293)" />
        <path
           id="polygon741-6-5-3-5-8"
           d="m 1116.511,5727.389 -32.707,-8.174 16.353,-78.5 -32.705,-21.259 -3.271,-26.165 v -21.264 l 50.697,-50.695 34.343,27.802 22.894,76.863 32.706,29.433 -26.164,13.085 -3.271,27.799 z"
           transform="translate(-107.74507,-4056.293)" />
        <path
           id="polygon743-4-5-9-3-7"
           d="m 1203.189,5542.589 75.228,58.876 -13.084,39.25 -60.512,14.715 -32.706,-29.433 -22.894,-76.863 -34.343,-27.802 34.343,-26.168 -13.087,-17.988 19.628,-21.26 -1.637,-14.718 34.343,-4.906 29.436,-14.719 49.064,35.976 -0.137,1.09 -3.133,28.349 z"
           transform="translate(-107.74507,-4056.293)" />
        <path
           id="polygon745-1-1-9-2-2"
           d="m 1298.041,5627.627 78.498,62.147 31.074,89.949 -6.543,19.623 -19.625,11.448 4.907,39.248 -29.436,17.991 -86.678,14.72 -75.228,11.447 -21.26,-32.708 39.251,-42.522 19.623,-65.413 -6.541,-19.628 -37.615,-3.27 -13.082,-34.345 3.271,-27.799 26.164,-13.085 60.512,-14.715 13.084,-39.25 9.811,1.637 z"
           transform="translate(-107.74507,-4056.293)" />
        <path
           id="polygon1173-5-9-4-9-6"
           d="m 3200.002,5886.022 -47.426,-6.54 -85.04,1.636 -71.959,27.802 -31.072,-8.18 -24.533,8.18 -22.894,49.061 -16.353,-4.908 -17.99,11.449 -50.696,71.954 -14.72,19.628 11.449,11.447 27.799,39.249 99.759,-42.522 h 26.169 l 13.082,17.991 -6.541,24.531 11.446,47.428 27.803,14.72 -19.626,16.352 -3.27,47.421 -55.604,57.242 8.178,26.165 17.988,3.274 -45.79,19.627 -24.532,9.805 -101.392,-13.081 -1.637,-17.988 -39.248,-21.261 -14.721,-22.897 -37.613,8.178 -16.354,-11.445 -37.613,16.357 -22.895,31.068 -39.251,29.441 -103.028,-21.258 4.905,-14.723 -55.605,-53.967 -16.352,-3.273 -8.176,17.991 -31.073,-9.813 22.895,-49.065 -37.613,-35.974 -9.813,-31.077 19.624,-24.528 -1.634,-14.719 -53.97,-13.082 -22.895,16.353 -96.485,-8.177 -6.545,9.814 -21.258,-26.166 -3.27,-67.051 22.894,-44.157 -4.909,-29.438 -22.893,-16.354 3.27,-39.249 -14.719,-31.07 4.908,-37.615 -29.436,-68.688 37.614,-45.793 8.175,-4.903 9.812,13.082 1.636,13.083 32.707,14.719 57.239,-1.638 47.428,35.983 h 58.873 l 81.768,40.882 4.908,19.626 55.601,11.451 34.344,24.528 67.053,-9.815 26.166,-17.987 26.165,3.274 52.334,-42.524 1.636,-11.447 76.862,-40.884 h 26.166 l 27.801,-24.53 24.533,8.177 93.218,32.709 37.614,8.172 8.175,11.452 22.894,-14.723 47.426,-60.508 -27.799,-49.061 8.176,-21.259 29.439,-11.448 h 47.426 l 11.446,26.166 6.54,13.087 58.876,26.163 -80.132,39.25 31.072,57.237 -3.274,24.529 27.802,3.274 3.27,24.529 z"
           transform="translate(-107.74507,-4056.293)" />
        <path
           id="polygon1211-3-3-9-4-0"
           d="m 2468.979,5817.335 -81.768,-40.882 h -58.873 l -47.428,-35.983 -57.239,1.638 -32.707,-14.719 -1.636,-13.083 -9.812,-13.082 -8.175,4.903 -37.614,45.793 -24.532,-32.705 11.445,-11.451 -16.353,-32.706 3.271,-17.99 6.541,-17.99 -11.445,-80.132 44.154,-24.53 39.25,1.631 1.637,-31.072 44.153,-91.582 44.157,-1.634 -50.697,-44.156 16.354,-27.799 16.352,-4.91 78.5,14.719 40.885,19.626 24.53,-22.895 53.967,27.8 32.708,4.905 -17.988,57.243 70.321,-1.64 29.436,-19.621 1.636,-29.437 26.166,-47.428 29.439,4.908 50.697,6.539 65.417,-1.633 16.353,47.427 -6.54,11.446 91.581,40.885 9.81,58.873 -89.947,53.971 -17.987,29.435 v 34.342 l 40.884,89.947 26.166,39.251 -76.862,40.884 -1.636,11.447 -52.334,42.524 -26.165,-3.274 -26.166,17.987 -67.053,9.815 -34.344,-24.528 -55.601,-11.451 z"
           transform="translate(-107.74507,-4056.293)" />
        <path
           id="polygon1219-9-6-1-1-2"
           d="m 2477.159,6343.93 14.718,-17.982 103.028,21.258 39.251,-29.441 22.895,-31.068 37.613,-16.357 16.354,11.445 37.613,-8.178 14.721,22.897 39.248,21.261 1.637,17.988 -49.063,34.344 17.99,17.992 -1.637,40.885 16.355,31.07 -4.907,16.358 -57.238,58.872 3.271,11.443 h -13.083 l -27.801,83.408 -19.624,9.813 -34.344,29.436 -1.637,22.896 -31.073,22.899 h -50.697 l -19.623,-34.342 -16.353,1.629 -39.251,47.423 -32.707,26.173 -34.344,47.427 -37.613,21.263 35.976,86.671 -26.165,63.779 -11.446,-3.269 -6.545,17.988 -26.164,-29.432 -19.625,-4.911 -19.624,17.991 -21.26,-3.273 1.633,-47.426 -11.443,-11.447 -16.356,-19.621 -27.802,-26.167 -16.352,-34.342 8.177,-50.7 h -1.636 l 6.541,-24.531 -13.082,-26.173 -37.615,1.638 -9.815,-1.638 -32.707,-47.423 -32.707,-6.541 -21.26,-8.172 22.895,-67.055 62.145,3.273 14.72,-16.359 -3.271,-4.902 1.634,-32.707 19.624,-35.982 -8.174,-21.259 19.625,-52.331 70.317,-19.625 13.084,47.428 8.179,11.444 22.893,-3.266 16.357,-26.164 22.824,-1.64 63.784,32.708 21.257,-22.899 h 0.069 l 24.533,-1.629 13.083,-34.345 16.352,-13.081 6.542,-22.899 z"
           transform="translate(-107.74507,-4056.293)" />
        <path
           id="polygon1263-0-0-5-6-7"
           d="m 2200.779,6200.016 9.809,-65.413 -11.448,-22.895 6.545,-9.814 96.485,8.177 22.895,-16.353 53.97,13.082 1.634,14.719 -19.624,24.528 9.813,31.077 37.613,35.974 -22.895,49.065 31.073,9.813 8.176,-17.991 16.352,3.273 55.605,53.967 -4.905,14.723 -14.718,17.982 22.894,42.523 -6.542,22.899 -16.352,13.081 -13.083,34.345 -24.533,1.629 h -0.069 l -21.257,22.899 -63.784,-32.708 -22.824,1.64 -16.357,26.164 -22.893,3.266 -8.179,-11.444 -13.084,-47.428 -70.317,19.625 -19.625,52.331 8.174,21.259 -19.624,35.982 -1.634,32.707 3.271,4.902 -14.72,16.359 -62.145,-3.273 -35.979,-24.529 -26.168,-1.638 -3.27,-63.775 -34.343,3.265 -21.259,-32.705 v -19.625 l 8.176,-39.248 -29.437,-45.795 13.083,-16.351 104.666,1.63 3.271,-55.596 19.625,-26.175 -40.884,-34.334 11.447,-8.179 93.217,-19.625 9.812,-26.167 19.625,21.257 z"
           transform="translate(-107.74507,-4056.293)" />
        <path
           id="polygon1281-7-9-9-6-2"
           d="m 2197.506,5974.334 -22.894,44.157 3.27,67.051 21.258,26.166 11.448,22.895 -9.809,65.413 -14.721,13.082 -19.625,-21.257 -9.812,26.167 -93.217,19.625 -11.447,8.179 40.884,34.334 -19.625,26.175 -3.271,55.596 -104.666,-1.63 -26.165,-16.357 -62.146,21.263 -16.353,-14.721 -8.177,-6.542 1.637,-31.068 -104.668,-11.452 6.544,-39.247 -9.814,8.177 -11.446,-11.447 -53.968,-88.31 -6.541,-17.992 16.353,-26.168 62.142,-37.613 3.274,-19.623 24.529,-21.261 29.439,-4.904 35.977,-40.884 -4.904,-55.605 16.353,-13.082 -3.27,-81.772 27.802,4.905 17.985,-26.165 -16.352,-67.047 16.352,-8.18 44.156,-22.897 22.899,-9.812 101.394,11.446 40.884,-14.714 24.532,32.705 29.436,68.688 -4.908,37.615 14.719,31.07 -3.27,39.249 22.893,16.354 z"
           transform="translate(-107.74507,-4056.293)" />
        <path
           id="polygon1291-2-3-8-0-3"
           d="m 1881.877,5856.584 -27.802,-4.905 -52.334,-21.26 -27.803,-19.625 6.542,-4.906 -6.542,-14.721 44.156,-62.14 24.532,-13.085 h 34.342 l -6.54,-50.697 35.977,-17.989 1.637,-47.424 h -24.532 l -16.354,-55.607 -86.676,3.272 -11.445,-21.264 -44.156,19.626 -24.532,-14.716 -1.637,-19.624 39.251,-21.26 1.633,-42.521 -13.082,-31.074 -26.165,-3.271 -8.179,-4.901 42.523,-22.898 v -21.261 l -26.169,-24.529 11.449,-21.262 34.344,-21.262 13.083,17.99 3.27,9.813 32.71,-3.271 26.165,57.237 81.77,-42.516 24.531,14.717 16.352,-22.897 34.345,13.082 -3.271,29.37 26.166,31.142 -53.968,24.533 11.449,73.592 26.165,1.633 14.719,-21.258 57.239,14.717 26.164,21.261 8.179,44.157 3.271,-1.636 11.445,80.132 -6.541,17.99 -3.271,17.99 16.353,32.706 -11.445,11.451 -40.884,14.714 -101.394,-11.446 -22.899,9.812 -44.156,22.897 -16.352,8.18 16.352,67.047 z"
           transform="translate(-107.74507,-4056.293)" />
        <path
           id="polygon1299-5-5-3-2-2"
           d="m 1495.924,6482.943 83.403,-96.49 -53.965,-52.328 4.906,-9.819 19.622,-27.802 -22.893,-17.986 -3.272,-49.061 26.165,-1.636 11.45,-50.697 -8.179,-40.887 13.082,-53.968 27.803,-16.352 31.072,8.175 27.803,1.636 34.344,34.343 3.27,16.352 -16.353,26.168 6.541,17.992 53.968,88.31 11.446,11.447 9.814,-8.177 -6.544,39.247 104.668,11.452 -1.637,31.068 8.177,6.542 16.353,14.721 62.146,-21.263 26.165,16.357 -13.083,16.351 29.437,45.795 -8.176,39.248 v 19.625 l 21.259,32.705 34.343,-3.265 3.27,63.775 -52.329,37.617 22.893,26.167 -11.448,80.13 11.448,8.18 -31.072,-8.18 -26.165,29.44 -8.178,8.177 -39.248,6.541 -11.449,-24.533 -29.436,22.899 -91.582,-24.53 -13.086,-32.713 -21.258,-32.706 -29.438,-9.808 17.99,-49.064 -16.354,-34.343 -32.709,-26.166 -29.436,-4.912 -31.07,-11.443 -22.897,-14.721 -17.991,-21.26 -42.517,9.815 z"
           transform="translate(-107.74507,-4056.293)" />
        <path
           id="polygon1305-9-3-0-3-2"
           d="m 1433.779,7060.236 1.635,-42.524 -8.177,-16.348 -32.707,-70.324 42.519,-55.608 -81.77,-58.869 -24.531,17.984 -22.895,-11.443 -11.449,-4.902 -31.071,24.524 -8.178,45.791 9.813,83.406 -8.179,19.623 -11.445,-4.901 v 16.349 l 37.614,35.978 45.79,-39.247 73.594,13.081 14.716,16.361 -8.175,29.429 -16.353,16.358 -26.168,19.625 -37.614,-4.907 -24.529,24.53 -37.613,-31.07 -55.605,62.145 -13.083,-3.277 -13.082,14.723 -21.262,-11.446 -22.894,6.541 -6.546,-11.452 -26.164,-13.081 -9.813,-34.346 32.707,-45.789 -14.716,-19.622 -29.438,-9.816 4.908,-76.858 -16.354,-13.091 44.155,-29.43 19.623,-27.805 -40.885,-31.074 -6.539,-50.695 45.788,-26.166 34.344,-1.634 49.062,19.624 39.248,-9.816 -3.271,-27.797 -39.247,-16.355 -4.908,-22.899 22.898,8.179 58.872,11.444 27.801,-3.265 71.959,-50.7 34.342,-8.172 57.24,-86.681 27.801,29.44 26.166,8.177 h 1.637 l 45.788,-9.813 52.334,-55.608 29.436,4.912 32.709,26.166 16.354,34.343 -17.99,49.064 29.438,9.808 21.258,32.706 13.086,32.713 91.582,24.53 29.436,-22.899 11.449,24.533 19.623,16.353 1.637,22.896 v 3.269 l -24.531,13.091 v 22.889 l -1.637,1.635 h -44.156 l -14.719,1.638 -9.812,16.349 4.908,16.358 -6.541,9.808 -31.074,-4.903 -24.53,3.274 -19.624,17.987 -14.721,-3.268 -22.894,17.989 -40.883,9.805 -62.148,-9.805 -21.261,27.797 9.817,44.156 h -3.272 -1.635 l -8.18,24.534 -44.153,27.804 -58.874,17.987 z"
           transform="translate(-107.74507,-4056.293)" />
        <path
           id="polygon1309-9-4-9-3-8"
           d="m 1590.777,5632.538 45.793,-8.179 -9.817,-67.051 24.53,-32.706 24.532,6.541 22.895,-19.624 1.637,19.624 24.532,14.716 44.156,-19.626 11.445,21.264 86.676,-3.272 16.354,55.607 h 24.532 l -1.637,47.424 -35.977,17.989 6.54,50.697 h -34.342 l -24.532,13.085 -44.156,62.14 6.542,14.721 h -47.427 l 4.908,-29.435 -44.156,3.27 -32.708,-68.686 -39.249,-14.723 -24.529,-11.442 -17.992,-26.168 z"
           transform="translate(-107.74507,-4056.293)" />
        <path
           id="polygon1315-8-4-0-5-9"
           d="m 1703.617,5845.138 29.436,-39.25 h 47.427 l -6.542,4.906 27.803,19.625 52.334,21.26 3.27,81.772 -16.353,13.082 4.904,55.605 -35.977,40.884 -29.439,4.904 -37.615,-29.435 4.909,-17.991 9.811,3.271 11.45,-14.72 -1.637,-21.257 -63.781,-3.272 -13.082,26.168 4.905,16.352 -32.704,-17.991 24.529,-31.07 v -14.721 l -24.529,-4.906 -4.911,9.813 -14.714,-34.344 31.071,-78.496 z"
           transform="translate(-107.74507,-4056.293)" />
        <path
           id="polygon1319-3-1-7-8-6"
           d="m 1621.848,5696.314 39.249,14.723 32.708,68.686 44.156,-3.27 -4.908,29.435 -29.436,39.25 -29.435,-9.811 -31.071,78.496 14.714,34.344 4.911,-9.813 24.529,4.906 v 14.721 l -24.529,31.07 32.704,17.991 -4.905,-16.352 13.082,-26.168 63.781,3.272 1.637,21.257 -11.45,14.72 -9.811,-3.271 -4.909,17.991 37.615,29.435 -24.529,21.261 -3.274,19.623 -62.142,37.613 -3.27,-16.352 -34.344,-34.343 -27.803,-1.636 -31.072,-8.175 -27.803,16.352 -4.903,-19.623 -32.71,-8.179 -3.268,-76.861 3.268,-22.898 -68.686,35.982 -19.624,-6.543 v -19.625 l -9.814,-4.905 -14.718,-49.065 8.178,-39.248 -6.542,-13.081 -31.072,-8.181 -4.907,-39.248 19.625,-11.448 6.543,-19.623 17.987,17.989 96.49,4.906 42.522,-45.787 -4.91,-16.361 53.969,-3.266 z"
           transform="translate(-107.74507,-4056.293)" />
        <path
           id="polygon1323-3-9-6-1-8"
           d="m 1487.746,6574.521 -57.24,86.681 -34.342,8.172 -21.26,-24.53 4.906,-60.508 6.542,-40.883 -34.344,3.264 -24.532,-24.527 16.354,-16.356 -3.271,-19.625 -27.799,-14.718 1.634,-47.425 22.895,-9.811 26.168,-58.878 -37.614,-6.543 -16.354,-14.709 14.716,-32.715 -42.518,6.541 -21.261,14.721 -21.261,-16.351 11.45,-45.795 37.613,-17.988 62.145,-8.177 13.084,3.272 17.988,29.433 h 27.801 l 16.354,-6.54 -4.905,-47.428 53.968,-9.806 31.074,4.902 17.988,21.263 3.272,49.061 22.893,17.986 -19.622,27.802 -4.906,9.819 53.965,52.328 -83.403,96.49 31.073,26.165 42.517,-9.815 17.991,21.26 22.897,14.721 31.07,11.443 -52.334,55.608 -45.788,9.813 h -1.637 l -26.166,-8.177 z"
           transform="translate(-107.74507,-4056.293)" />
        <path
           id="polygon1325-5-7-8-8-2"
           d="m 1504.098,5635.807 67.055,-19.624 19.624,16.355 -11.45,26.166 17.992,26.168 24.529,11.442 -8.177,40.89 -53.969,3.266 4.91,16.361 -42.522,45.787 -96.49,-4.906 -17.987,-17.989 -31.074,-89.949 35.977,-14.716 3.272,-22.895 45.792,-1.636 16.354,-21.26 z"
           transform="translate(-107.74507,-4056.293)" />
        <path
           id="polygon1331-7-6-3-1-2"
           d="m 1458.309,5578.57 63.781,-31.073 50.696,52.335 -1.633,16.351 -67.055,19.624 -26.164,-6.54 -16.354,21.26 -45.792,1.636 4.907,-13.085 -17.99,-60.508 h 21.261 z"
           transform="translate(-107.74507,-4056.293)" />
        <path
           id="polygon1333-9-4-8-1-0"
           d="m 1440.32,5984.147 19.624,6.543 68.686,-35.982 -3.268,22.898 3.268,76.861 32.71,8.179 4.903,19.623 -13.082,53.968 -29.436,-8.174 -27.801,-26.169 -71.958,19.625 -32.707,71.957 -21.26,-31.068 -9.812,-50.7 -9.814,-8.176 -44.154,17.987 -3.274,-32.709 -21.258,-22.893 19.625,-17.991 21.26,-4.904 35.978,-55.605 14.719,-14.718 57.237,-13.082 9.814,4.905 z"
           transform="translate(-107.74507,-4056.293)" />
        <path
           id="polygon1335-9-9-6-3-4"
           d="m 1523.725,6229.457 -17.988,-21.263 -31.074,-4.902 -53.968,9.806 -24.531,16.359 -4.905,-35.981 32.707,-71.957 71.958,-19.625 27.801,26.169 29.436,8.174 8.179,40.887 -11.45,50.697 z"
           transform="translate(-107.74507,-4056.293)" />
        <path
           id="polygon1347-9-3-1-0-8"
           d="m 1307.853,6823.104 22.895,11.443 24.531,-17.984 81.77,58.869 -42.519,55.608 32.707,70.324 8.177,16.348 -16.356,11.455 -14.716,-16.361 -73.594,-13.081 -45.79,39.247 -37.614,-35.978 v -16.349 l 11.445,4.901 8.179,-19.623 -9.813,-83.406 8.178,-45.791 31.071,-24.524 z"
           transform="translate(-107.74507,-4056.293)" />
        <path
           id="polygon1349-5-7-9-7-5"
           d="m 1134.502,6278.518 -26.166,-34.344 h 57.238 l 11.447,-19.621 -31.07,-31.077 32.706,-52.332 -47.426,-49.06 v -31.075 l 58.875,3.269 8.175,-55.599 -40.885,17.986 -91.581,-27.798 8.177,-112.845 22.895,-3.269 76.863,-21.261 21.26,32.708 75.228,-11.447 86.678,-14.72 29.436,-17.991 31.072,8.181 6.542,13.081 -8.178,39.248 14.718,49.065 -57.237,13.082 -14.719,14.718 -35.978,55.605 -21.26,4.904 -19.625,17.991 21.258,22.893 3.274,32.709 -21.261,29.439 -44.156,26.166 -26.168,11.448 -9.813,27.802 42.523,4.906 3.271,39.246 -11.45,45.795 -1.633,27.804 -14.72,8.169 -32.706,-6.541 -11.449,-14.717 -9.812,-3.271 -22.894,26.165 -37.615,-14.718 -6.541,-17.987 z"
           transform="translate(-107.74507,-4056.293)" />
        <path
           id="polygon1351-1-1-6-2-7"
           d="m 1350.373,6234.361 -62.145,8.177 -37.613,17.988 -3.271,-39.246 -42.523,-4.906 9.813,-27.802 26.168,-11.448 44.156,-26.166 21.261,-29.439 44.154,-17.987 9.814,8.176 9.812,50.7 21.26,31.068 4.905,35.981 24.531,-16.359 4.905,47.428 -16.354,6.54 h -27.801 l -17.988,-29.433 z"
           transform="translate(-107.74507,-4056.293)" />
        <path
           id="polygon1353-4-0-7-3-6"
           d="m 1317.665,5447.738 v 11.449 l 32.708,16.351 40.886,37.614 32.707,65.418 h -21.261 l 17.99,60.508 -4.907,13.085 -3.272,22.895 -35.977,14.716 -78.498,-62.147 -9.813,-24.525 11.447,-71.959 -27.799,-71.956 z"
           transform="translate(-107.74507,-4056.293)" />
        <path
           id="polygon1355-8-3-8-5-0"
           d="m 1021.659,6339.029 13.082,-6.541 14.72,16.346 4.905,21.263 3.27,-1.63 24.532,-19.633 -8.176,-24.528 19.626,-11.444 8.177,-1.637 6.541,17.987 37.615,14.718 65.413,57.242 4.908,26.164 40.883,-9.815 57.239,6.545 -1.634,47.425 27.799,14.718 3.271,19.625 -16.354,16.356 24.532,24.527 34.344,-3.264 -6.542,40.883 -4.906,60.508 21.26,24.53 -71.959,50.7 -27.801,3.265 -58.872,-11.444 -22.898,-8.179 -52.33,3.277 -9.813,-19.625 3.271,-70.326 -39.251,-29.44 -24.531,6.544 -47.427,-55.601 27.803,-49.062 13.082,-24.532 v -65.481 l -19.623,-16.291 h -21.262 z"
           transform="translate(-107.74507,-4056.293)" />
        <path
           id="polygon1357-1-2-9-8-8"
           d="m 1324.205,6301.41 -14.716,32.715 16.354,14.709 37.614,6.543 -26.168,58.878 -22.895,9.811 -57.239,-6.545 -40.883,9.815 -4.908,-26.164 -65.413,-57.242 22.894,-26.165 9.812,3.271 11.449,14.717 32.706,6.541 14.72,-8.169 1.633,-27.804 21.261,16.351 21.261,-14.721 z"
           transform="translate(-107.74507,-4056.293)" />
        <path
           id="polygon1367-5-5-7-3-4"
           d="m 1015.118,5879.482 34.343,17.987 24.531,-11.447 -8.177,112.845 91.581,27.798 40.885,-17.986 -8.175,55.599 -58.875,-3.269 v 31.075 l 47.426,49.06 -32.706,52.332 31.07,31.077 -11.447,19.621 h -57.238 l -1.636,-55.602 h -16.353 l -39.253,22.896 -1.633,-53.97 -11.448,-9.813 -49.06,-3.268 -8.177,-60.51 -29.438,-3.272 6.543,-16.357 31.072,-32.707 9.811,-88.311 -17.988,-34.34 z"
           transform="translate(-107.74507,-4056.293)" />
        <path
           id="polygon1377-2-5-5-5-7"
           d="m 624.261,6994.823 -26.17,-1.639 -6.54,-42.521 -42.519,24.529 -45.792,-35.977 -1.634,-21.257 22.894,-24.54 22.895,-55.595 39.25,-31.078 -49.062,-22.89 -9.812,-26.172 37.614,-42.514 3.27,-27.801 -24.53,-34.347 8.177,-22.896 -21.261,-27.8 -70.32,44.158 -4.908,-9.816 1.637,-21.261 -21.26,-32.706 v -14.719 l 26.165,-26.166 3.272,-22.898 -34.345,-26.165 44.155,-58.872 37.614,-9.814 26.169,-44.154 11.446,17.988 47.425,-1.639 11.45,-11.446 94.851,-26.162 19.625,14.719 -22.895,47.424 13.083,32.706 26.169,19.625 -17.992,31.078 31.074,91.576 16.354,6.544 h 16.352 l 21.261,71.961 21.261,1.629 14.718,17.994 v 17.986 l 40.883,-13.085 32.709,1.639 19.625,1.636 3.27,75.229 -32.706,26.165 11.446,26.166 6.541,37.61 -24.529,27.802 -35.979,-24.529 -55.604,29.441 3.27,16.35 6.545,37.619 -35.981,26.162 9.811,26.164 -19.624,19.627 -1.634,35.981 -14.719,1.636 -53.967,1.628 -21.261,-17.986 -47.426,-14.719 -6.541,14.719 -4.907,13.086 -22.895,-32.708 z"
           transform="translate(-107.74507,-4056.293)" />
        <path
           id="polygon1383-5-4-5-6-3"
           d="m 750.185,6065.917 -4.906,27.801 6.541,57.24 26.167,-4.911 6.542,52.332 -39.25,-8.174 -22.897,14.722 -37.613,60.508 8.177,19.624 -58.874,-4.913 -34.343,-24.526 6.541,-34.34 -60.509,-81.774 42.519,-45.788 v -17.99 l 1.637,-11.45 24.531,-6.538 16.354,17.988 h 45.789 l 42.521,-42.519 62.147,37.61 z"
           transform="translate(-107.74507,-4056.293)" />
        <path
           id="polygon727-1-2-2-1-2"
           d="m 792.703,5138.648 -55.6,9.812 -24.532,-42.518 -13.082,-73.594 80.133,35.982 68.686,-40.886 143.915,-50.695 35.977,35.974 22.894,-13.081 9.817,-11.45 35.976,-26.165 40.885,-52.334 v -47.425 l -70.32,-58.876 -62.145,-21.258 1.633,-19.625 8.178,-27.801 39.248,-6.545 13.086,-11.445 14.716,-57.237 83.406,3.269 21.262,-13.083 14.715,-44.158 29.44,-31.069 42.518,-4.907 40.885,-71.956 h 47.426 l 27.803,-19.625 32.706,-1.639 -3.271,76.865 49.062,47.428 -16.352,16.352 14.717,31.075 21.261,13.083 40.884,21.259 34.343,-3.27 16.354,32.707 -3.271,65.416 -27.803,22.894 -57.237,-9.813 -13.082,1.638 -49.061,52.33 -32.709,8.179 -35.977,1.636 8.175,27.798 27.802,21.262 -11.449,75.227 -27.799,60.51 40.884,68.688 22.895,22.893 47.425,19.628 -60.507,50.697 -39.251,14.715 -44.157,-11.444 -8.174,-26.171 h -42.522 l -22.894,42.524 -31.073,-9.812 -8.178,-1.639 -8.175,50.699 -52.334,24.531 -68.687,-34.345 -14.716,3.272 -14.718,-47.426 -34.346,9.811 -70.318,-44.156 -53.974,-14.716 -24.526,17.988 -40.886,-34.34 -8.177,-9.816 z"
           transform="translate(-107.74507,-4056.293)" />
        <path
           id="polygon729-6-0-4-7-7"
           d="m 676.591,5331.624 -21.258,-16.354 42.519,-62.145 4.907,-31.07 17.987,19.623 -13.082,44.157 49.062,24.531 29.436,-29.44 -4.903,-52.329 26.164,-45.793 -14.72,-44.156 27.804,-8.178 8.177,9.816 40.886,34.34 24.526,-17.988 53.974,14.716 70.318,44.156 34.346,-9.811 14.718,47.426 14.716,-3.272 68.687,34.345 52.334,-24.531 24.531,70.325 -35.981,49.057 -3.271,57.243 -34.343,4.906 1.637,14.718 -19.628,21.26 13.087,17.988 -34.343,26.168 -50.697,50.695 v 21.264 l -44.154,-21.264 -50.702,-26.168 -11.444,32.711 13.082,32.708 -63.78,22.896 35.977,32.706 v 75.228 l -8.176,42.517 -19.623,-11.445 -8.178,35.979 -55.605,-3.271 -22.894,4.906 -21.261,-24.53 -16.353,-32.707 -14.72,-83.406 -22.894,-16.353 -22.898,-70.324 16.357,-34.34 35.977,-24.532 -67.051,-13.083 -6.541,-3.269 -9.811,17.983 -24.533,3.274 -19.623,-19.623 9.812,-6.544 -3.27,-19.623 -42.523,-42.519 -27.801,-11.448 1.637,-37.616 26.164,11.449 27.803,-8.176 21.26,-44.157 z"
           transform="translate(-107.74507,-4056.293)" />
        <path
           id="polygon731-8-8-9-9-2"
           d="m 759.997,5766.639 -14.718,-6.542 -11.447,21.258 -63.783,-9.811 -11.445,24.534 -29.44,22.892 -55.6,27.803 -29.439,3.269 -49.06,-16.353 -16.358,-55.604 19.628,-134.099 -13.086,-67.055 -22.894,-21.256 -17.991,-45.791 -62.141,-65.418 4.904,-16.353 26.168,-62.147 -85.041,-37.613 6.542,-75.228 -45.793,-26.165 -4.904,-34.343 3.271,-60.509 16.354,-50.696 44.156,-19.625 29.434,-31.074 32.713,26.166 65.41,17.992 1.637,-32.709 -26.166,-40.888 49.062,-8.176 71.957,42.52 85.04,32.712 39.251,29.434 16.353,8.178 24.532,42.518 55.6,-9.812 14.72,44.156 -26.164,45.793 4.903,52.329 -29.436,29.44 -49.062,-24.531 13.082,-44.157 -17.987,-19.623 -4.907,31.07 -42.519,62.145 21.258,16.354 -8.176,19.626 -21.26,44.157 -27.803,8.176 -26.164,-11.449 -1.637,37.616 27.801,11.448 42.523,42.519 3.27,19.623 -9.812,6.544 19.623,19.623 24.533,-3.274 9.811,-17.983 6.541,3.269 67.051,13.083 -35.977,24.532 -16.357,34.34 22.898,70.324 22.894,16.353 14.72,83.406 z"
           transform="translate(-107.74507,-4056.293)" />
        <path
           id="polygon733-6-0-4-2-5"
           d="m 342.972,6046.292 -9.813,-24.532 53.968,-49.061 32.709,-49.061 16.354,-40.885 58.875,-49.064 49.06,16.353 29.439,-3.269 55.6,-27.803 29.44,-22.892 11.445,-24.534 63.783,9.811 11.447,-21.258 14.718,6.542 31.073,-13.082 16.353,32.707 -11.449,9.814 h -42.518 l 1.633,80.134 22.898,13.081 v 45.791 l -21.261,16.352 32.707,19.627 58.875,6.543 9.811,39.248 27.804,19.622 -58.876,13.087 -6.54,17.988 -39.248,3.268 -62.147,-37.61 -42.521,42.519 h -45.789 l -16.354,-17.988 -24.531,6.538 -1.637,11.45 v 17.99 l -42.519,45.788 -39.251,-24.528 -40.883,34.341 -35.979,-29.433 v -0.069 l -8.178,-16.285 -62.145,32.705 -21.256,-1.634 -9.815,-65.416 z"
           transform="translate(-107.74507,-4056.293)" />
        <path
           id="polygon735-8-5-4-4-3"
           d="m 755.089,5876.212 -1.633,-80.134 h 42.518 l 11.449,-9.814 21.261,24.53 22.894,-4.906 55.605,3.271 19.624,16.351 1.633,57.243 44.156,19.622 -11.444,19.626 -76.867,52.333 -35.977,3.272 -58.875,-6.543 -32.707,-19.627 21.261,-16.352 v -45.791 z"
           transform="translate(-107.74507,-4056.293)" />
        <path
           id="polygon1363-9-2-7-8-1"
           d="m 794.341,6376.638 14.717,21.262 71.957,-4.906 11.448,9.808 67.051,11.453 49.063,-40.883 -8.179,-37.619 21.261,3.276 22.894,44.15 h 21.262 l 19.623,16.291 v 65.481 l -13.082,24.532 -27.803,49.062 47.427,55.601 24.531,-6.544 39.251,29.44 -3.271,70.326 9.813,19.625 52.33,-3.277 4.908,22.899 39.247,16.355 3.271,27.797 -39.248,9.816 -49.062,-19.624 -34.344,1.634 -45.788,26.166 -13.084,-6.541 -14.719,9.81 4.907,21.261 -35.981,22.896 -32.706,55.607 -65.416,-27.803 11.451,-19.625 -6.541,-13.081 -22.9,-1.638 -11.446,-26.166 32.706,-26.165 -3.27,-75.229 -19.625,-1.636 -32.709,-1.639 -40.883,13.085 v -17.986 l -14.718,-17.994 -21.261,-1.629 -21.261,-71.961 H 769.81 l -16.354,-6.544 -31.074,-91.576 17.992,-31.078 -26.169,-19.625 -13.083,-32.706 22.895,-47.424 13.086,-19.625 34.342,-14.718 31.07,11.443 z"
           transform="translate(-107.74507,-4056.293)" />
        <path
           id="polygon1369-4-8-9-3-5"
           d="m 1008.577,7253.209 -34.342,8.175 -26.165,26.17 22.893,16.353 -24.533,26.164 16.354,16.355 11.451,-6.541 6.541,50.699 -11.451,17.991 14.719,31.067 17.991,6.541 -3.271,14.72 h -3.271 l -63.782,9.813 -39.248,27.804 -9.809,-40.886 -16.356,-19.623 -13.085,6.542 -21.257,32.708 -14.719,-13.086 6.542,-31.074 -37.617,-17.986 -8.175,8.177 -39.25,16.35 -9.812,-4.903 -31.073,26.164 -21.261,21.262 -35.977,-1.637 13.082,-35.975 -13.082,-17.995 -27.803,4.912 -6.541,-34.345 -17.99,4.909 -9.812,1.634 16.353,53.966 9.812,29.435 h 9.815 v 16.355 l -21.26,-1.632 3.271,-19.627 -44.157,-58.873 21.262,-127.563 -57.241,-73.593 34.343,-16.348 34.342,-37.62 -6.54,-6.54 -16.354,9.816 9.813,-52.339 53.967,-57.233 1.637,-14.722 6.541,-14.719 47.426,14.719 21.261,17.986 53.967,-1.628 14.719,-1.636 1.634,-35.981 19.624,-19.627 -9.811,-26.164 35.981,-26.162 -6.545,-37.619 -3.27,-16.35 55.604,-29.441 35.979,24.529 24.529,-27.802 -6.541,-37.61 22.9,1.638 6.541,13.081 -11.451,19.625 65.416,27.803 32.706,-55.607 35.981,-22.896 -4.907,-21.261 14.719,-9.81 13.084,6.541 6.539,50.695 40.885,31.074 -19.623,27.805 -44.155,29.43 16.354,13.091 -4.908,76.858 29.438,9.816 14.716,19.622 -32.707,45.789 9.813,34.346 26.164,13.081 6.546,11.452 1.634,37.613 -16.353,9.818 h -34.343 l 4.903,31.068 16.357,9.811 -4.908,52.331 -31.073,11.448 -4.905,8.176 -13.081,1.638 -42.523,-29.438 z"
           transform="translate(-107.74507,-4056.293)" />
        <path
           id="polygon1371-2-4-5-9-5"
           d="m 1000.398,6335.753 8.179,37.619 -49.063,40.883 -67.051,-11.453 -11.448,-9.808 -71.957,4.906 -14.717,-21.262 8.174,-26.166 -31.07,-11.443 -34.342,14.718 -13.086,19.625 -19.625,-14.719 17.99,-19.624 -29.436,-53.97 -8.177,-19.624 37.613,-60.508 22.897,-14.722 39.25,8.174 -6.542,-52.332 -26.167,4.911 -6.541,-57.24 4.906,-27.801 31.074,4.902 39.248,-3.268 6.54,-17.988 58.876,-13.087 -27.804,-19.622 -9.811,-39.248 35.977,-3.272 76.867,-52.333 11.444,-19.626 8.18,6.545 17.988,34.34 -9.811,88.311 -31.072,32.707 -6.543,16.357 29.438,3.272 8.177,60.51 49.06,3.268 11.448,9.813 1.633,53.97 39.253,-22.896 h 16.353 l 1.636,55.602 26.166,34.344 -32.707,32.707 -8.177,1.637 -19.626,11.444 8.176,24.528 -24.532,19.633 -3.27,1.63 -4.905,-21.263 -14.72,-16.346 -13.082,6.541 z"
           transform="translate(-107.74507,-4056.293)" />
        <path
           id="polygon1385-9-0-5-6-6"
           d="m 205.6,6435.516 -9.815,-9.816 -62.142,11.446 -22.898,-122.654 47.426,-21.254 21.26,49.056 h 16.354 l 16.357,-16.346 29.437,-53.972 58.874,-34.343 29.436,-24.535 47.425,-32.707 29.44,-3.267 21.256,-16.356 -34.342,-26.165 35.98,-14.717 35.979,29.433 40.883,-34.341 39.251,24.528 60.509,81.774 -6.541,34.34 34.343,24.526 58.874,4.913 29.436,53.97 -17.99,19.624 -94.851,26.162 -11.45,11.446 -47.425,1.639 -11.446,-17.988 -26.169,44.154 -37.614,9.814 -44.155,58.872 -42.519,27.801 -14.719,49.065 -53.968,-22.901 3.27,-9.805 -71.956,-27.804 -1.634,-21.262 14.716,-55.602 z"
           transform="translate(-107.74507,-4056.293)" />
        <path
           id="polygon1387-0-5-6-4-1"
           d="m 550.666,7205.788 34.342,-37.62 -6.54,-6.54 -16.354,9.816 9.813,-52.339 53.967,-57.233 1.637,-14.722 -4.907,13.086 -22.895,-32.708 24.532,-32.705 -26.17,-1.639 -6.54,-42.521 -42.519,24.529 -45.792,-35.977 -1.634,-21.257 22.894,-24.54 22.895,-55.595 39.25,-31.078 -49.062,-22.89 -9.812,-26.172 37.614,-42.514 3.27,-27.801 -24.53,-34.347 8.177,-22.896 -21.261,-27.8 -70.32,44.158 -4.908,-9.816 1.637,-21.261 -21.26,-32.706 v -14.719 l 26.165,-26.166 3.272,-22.898 -34.345,-26.165 -42.519,27.801 -14.719,49.065 -53.968,-22.901 -14.717,31.078 11.447,34.343 -16.353,39.247 -16.354,-8.177 -39.25,6.542 -19.624,70.324 31.072,134.098 73.592,-3.264 32.706,73.591 34.344,47.424 -19.625,8.177 13.083,16.353 89.947,17.992 -9.811,21.263 -89.947,80.129 v 27.803 l 42.523,75.23 47.424,-11.453 45.79,14.719 z"
           transform="translate(-107.74507,-4056.293)" />
      </g>
      <path
         d="m 39.000367,-171.64571 c 3.706266,11.04729 15.667149,17.00057 26.718335,13.28916 3.342806,-1.12187 6.219957,-3.00051 8.50064,-5.38225 v 0 l 29.695538,24.23964 c 1.8179,1.48221 4.51168,1.1018 5.84875,-0.82988 v 0 c 1.24871,-1.80382 0.82103,-4.274 -0.96394,-5.55306 l -31.244298,-22.43552 c 2.686838,-4.96362 3.388828,-10.98452 1.452434,-16.7574 -3.706247,-11.04729 -15.667119,-17.00056 -26.718318,-13.28914 -11.051213,3.71144 -17.000572,15.66714 -13.289161,26.71835 v 0 l 5e-6,-2e-5 z m 4.339687,-1.45482 c -2.901355,-8.65282 1.756629,-18.01859 10.40946,-20.91992 8.652814,-2.90136 18.018573,1.75661 20.919903,10.40946 2.901376,8.65281 -1.756609,18.01858 -10.409428,20.91991 -8.652843,2.90134 -18.018593,-1.75663 -20.919935,-10.40945 z"
         fill="#6c63ff"
         id="path56247-1-7-5"
         style="fill:#c8c8d6;fill-opacity:1;stroke:none;stroke-width:0.456773;stroke-dasharray:none;filter:url(#filter59267-0-6-8)"
         transform="matrix(0.78157035,0,0,0.78157035,-52.854266,244.81764)" />
    </g>
  </g>
</svg>
