<?xml version="1.0" encoding="UTF-8" standalone="no"?>
<!-- Created with Inkscape (http://www.inkscape.org/) -->

<svg
   width="103.49699mm"
   height="111.03915mm"
   viewBox="0 0 103.49699 111.03915"
   version="1.1"
   id="svg962"
   inkscape:version="1.2.2 (b0a8486541, 2022-12-01)"
   sodipodi:docname="abcdj_logo_nrw.svg"
   xmlns:inkscape="http://www.inkscape.org/namespaces/inkscape"
   xmlns:sodipodi="http://sodipodi.sourceforge.net/DTD/sodipodi-0.dtd"
   xmlns="http://www.w3.org/2000/svg"
   xmlns:svg="http://www.w3.org/2000/svg">
  <sodipodi:namedview
     id="namedview964"
     pagecolor="#ffffff"
     bordercolor="#666666"
     borderopacity="1.0"
     inkscape:showpageshadow="2"
     inkscape:pageopacity="0.0"
     inkscape:pagecheckerboard="0"
     inkscape:deskcolor="#d1d1d1"
     inkscape:document-units="mm"
     showgrid="false"
     inkscape:zoom="0.93806818"
     inkscape:cx="511.68988"
     inkscape:cy="385.89945"
     inkscape:window-width="2256"
     inkscape:window-height="1435"
     inkscape:window-x="0"
     inkscape:window-y="0"
     inkscape:window-maximized="1"
     inkscape:current-layer="layer1" />
  <defs
     id="defs959">
    <filter
       y="-0.24222218"
       height="1.4844444"
       inkscape:menu-tooltip="Darkens the edge with an inner blur and adds a flexible glow"
       inkscape:menu="Shadows and Glows"
       inkscape:label="Dark and Glow"
       style="color-interpolation-filters:sRGB"
       id="filter59267-0-6-8"
       x="-0.20314884"
       width="1.4062977">
      <feGaussianBlur
         stdDeviation="6.1437638"
         result="result6"
         id="feGaussianBlur59257-4-3-8" />
      <feComposite
         result="result8"
         in="SourceGraphic"
         operator="atop"
         in2="result6"
         id="feComposite59259-0-6-5" />
      <feComposite
         result="result9"
         operator="over"
         in2="SourceAlpha"
         in="result8"
         id="feComposite59261-6-9-2" />
      <feColorMatrix
         values="1 0 0 0 0 0 1 0 0 0 0 0 1 0 0 0 0 0 1 0 "
         result="result10"
         id="feColorMatrix59263-5-1-2" />
      <feBlend
         in="result10"
         mode="normal"
         in2="result6"
         id="feBlend59265-3-0-8" />
    </filter>
  </defs>
  <g
     inkscape:label="Layer 1"
     inkscape:groupmode="layer"
     id="layer1"
     transform="translate(-12.026309,-46.506938)">
    <g
       transform="matrix(0.02832508,0,0,0.02832508,12.512496,47.04515)"
       id="layer1-8-4-5-1-5-0"
       style="display:inline;opacity:0.835249;fill:none;fill-opacity:1;stroke:#ecfcff;stroke-width:35.7678;stroke-miterlimit:3.85;stroke-dasharray:none;stroke-opacity:1">
      <polygon
         points="1651.283,5524.602 1675.815,5531.143 1698.71,5511.519 1737.961,5490.259 1739.594,5447.738 1726.512,5416.664 1700.347,5413.393 1692.168,5408.492 1587.505,5339.804 1587.505,5328.353 1608.765,5290.739 1569.514,5267.845 1549.89,5230.231 1562.973,5220.419 1553.161,5187.713 1507.368,5159.911 1468.12,5150.098 1407.613,5200.795 1368.362,5215.51 1324.205,5204.066 1316.031,5177.895 1273.509,5177.895 1250.615,5220.419 1219.542,5210.607 1211.364,5208.968 1203.189,5259.667 1227.72,5329.992 1191.739,5379.049 1188.468,5436.292 1217.904,5421.573 1266.968,5457.549 1266.831,5458.639 1263.698,5486.988 1203.189,5542.589 1278.417,5601.465 1288.228,5603.102 1299.675,5531.143 1271.876,5459.187 1317.665,5447.738 1317.665,5459.187 1350.373,5475.538 1391.259,5513.152 1423.966,5578.57 1458.309,5578.57 1522.09,5547.497 1572.786,5599.832 1571.153,5616.183 1590.777,5632.538 1636.57,5624.359 1626.753,5557.308 "
         transform="translate(-107.74507,-4056.293)"
         id="polygon701-4-7-7-2-8-8"
         style="fill:none;fill-opacity:1;stroke:#ecfcff;stroke-width:35.7678;stroke-miterlimit:3.85;stroke-dasharray:none;stroke-opacity:1" />
      <polygon
         points="3726.596,5148.46 3702.065,5174.626 3700.43,5228.597 3715.147,5244.952 3680.806,5277.658 3675.9,5287.468 3653.004,5302.188 3646.464,5334.894 3661.179,5344.709 3659.547,5375.778 3664.45,5382.319 3639.923,5473.907 3682.44,5480.447 3688.982,5475.538 3690.619,5475.538 3705.335,5473.907 3710.243,5483.717 3697.16,5500.072 3662.817,5514.791 3639.923,5513.152 3602.307,5534.416 3628.473,5562.215 3625.202,5580.204 3585.951,5629.267 3574.506,5661.974 3533.622,5702.859 3489.466,5729.027 3482.924,5755.192 3448.582,5765.002 3419.141,5802.618 3356.999,5797.712 3342.28,5766.639 3356.999,5719.215 3342.28,5704.497 3288.312,5689.774 3235.979,5697.954 3177.103,5671.791 3170.563,5658.704 3232.707,5606.373 3283.404,5590.017 3281.771,5555.675 3257.24,5547.497 3245.79,5516.425 3257.24,5473.907 3242.52,5428.113 3267.051,5377.416 3255.603,5290.739 3235.979,5256.394 3231.074,5246.583 3226.167,5172.992 3361.904,5089.585 3399.518,5071.598 3448.582,5138.648 3460.027,5143.557 3505.819,5128.838 3543.433,5130.47 3572.869,5155.001 3600.672,5148.46 3628.473,5133.743 3674.262,5146.827 3726.596,5135.379 "
         transform="translate(-107.74507,-4056.293)"
         id="polygon703-9-5-4-2-3"
         style="fill:none;fill-opacity:1;stroke:#ecfcff;stroke-width:35.7678;stroke-miterlimit:3.85;stroke-dasharray:none;stroke-opacity:1" />
      <polygon
         points="3041.366,5174.626 3043.004,5200.795 3064.264,5231.867 3136.218,5230.231 3190.19,5208.968 3201.635,5217.148 3191.822,5225.326 3231.074,5246.583 3235.979,5256.394 3255.603,5290.739 3267.051,5377.416 3242.52,5428.113 3257.24,5473.907 3245.79,5516.425 3257.24,5547.497 3281.771,5555.675 3283.404,5590.017 3232.707,5606.373 3170.563,5658.704 3159.117,5632.538 3111.691,5632.538 3082.252,5643.986 3074.076,5665.245 3101.875,5714.306 3054.449,5774.814 3031.555,5789.537 3023.38,5778.085 2985.766,5769.913 2892.548,5737.204 2868.015,5729.027 2840.214,5753.557 2814.048,5753.557 2787.882,5714.306 2746.998,5624.359 2746.998,5590.017 2764.985,5560.582 2854.932,5506.611 2845.122,5447.738 2753.541,5406.853 2760.081,5395.407 2743.728,5347.98 2678.311,5349.613 2694.664,5285.835 2745.362,5235.137 2796.058,5210.607 2812.345,5172.992 2812.411,5172.992 2850.025,5155.001 2879.465,5138.648 2905.629,5125.566 2939.972,5143.557 3025.013,5133.743 "
         transform="translate(-107.74507,-4056.293)"
         id="polygon705-7-0-6-1-2"
         style="fill:none;fill-opacity:1;stroke:#ecfcff;stroke-width:35.7678;stroke-miterlimit:3.85;stroke-dasharray:none;stroke-opacity:1" />
      <polygon
         points="3613.754,5094.492 3600.672,5148.46 3572.869,5155.001 3543.433,5130.47 3505.819,5128.838 3460.027,5143.557 3448.582,5138.648 3399.518,5071.598 3361.904,5089.585 3226.167,5172.992 3231.074,5246.583 3191.822,5225.326 3201.635,5217.148 3190.19,5208.968 3136.218,5230.231 3064.264,5231.867 3043.004,5200.795 3041.366,5174.626 3025.013,5133.743 3023.38,5130.47 2962.868,5042.162 2905.629,5017.632 2887.64,5022.537 2923.619,4953.849 2935.065,4940.767 2943.244,4836.102 2938.337,4811.571 2953.055,4777.228 2979.221,4757.603 2998.848,4764.143 3018.472,4728.163 3031.555,4715.082 3095.334,4716.718 3126.406,4746.154 3146.034,4746.154 3175.47,4726.532 3178.74,4667.656 3208.177,4616.958 3268.689,4623.5 3267.051,4602.239 3296.487,4641.492 3289.946,4695.458 3314.478,4690.552 3348.821,4675.833 3422.413,4700.366 3435.499,4723.259 3409.331,4759.238 3430.591,4759.238 3466.568,4801.758 3450.215,4845.916 3469.838,4919.505 3448.582,4940.767 3468.204,4973.473 3489.466,4957.122 3545.067,4957.122 3558.153,4984.92 3541.796,4988.192 3543.433,5025.805 3563.056,5042.162 3579.41,5038.889 3602.307,5050.338 "
         transform="translate(-107.74507,-4056.293)"
         id="polygon707-2-5-7-6-3"
         style="fill:none;fill-opacity:1;stroke:#ecfcff;stroke-width:35.7678;stroke-miterlimit:3.85;stroke-dasharray:none;stroke-opacity:1" />
      <polygon
         points="3340.643,4558.084 3325.927,4577.712 3324.29,4621.867 3267.051,4602.239 3268.689,4623.5 3208.177,4616.958 3183.645,4598.969 3146.034,4602.239 3142.759,4613.688 3087.159,4641.492 3065.898,4649.667 3054.449,4641.492 3074.076,4595.698 3038.096,4536.826 3010.294,4515.566 2984.128,4517.199 2972.679,4538.459 2925.255,4491.036 2877.827,4499.212 2848.391,4494.303 2845.122,4489.4 2760.081,4476.313 2756.811,4463.232 2758.444,4397.813 2740.458,4325.86 2691.394,4291.517 2614.532,4250.632 2601.446,4172.133 2671.77,4191.758 2696.302,4185.216 2715.925,4191.758 2755.174,4168.865 2761.714,4121.437 2807.508,4085.457 2858.204,4106.717 2949.785,4059.293 2998.848,4109.99 2997.211,4199.936 3011.93,4224.464 2997.211,4278.433 3008.659,4278.433 3036.462,4289.879 3065.898,4278.433 3077.347,4273.526 3141.126,4289.879 3208.177,4268.621 3224.53,4270.257 3285.042,4183.581 3339.008,4114.894 3379.894,4119.799 3420.779,4152.505 3378.258,4206.477 3407.696,4255.537 3379.894,4322.591 3358.634,4353.662 3342.28,4371.651 3281.771,4392.911 3253.968,4489.4 3355.362,4540.096 "
         transform="translate(-107.74507,-4056.293)"
         id="polygon709-0-5-5-0-9"
         style="fill:none;fill-opacity:1;stroke:#ecfcff;stroke-width:35.7678;stroke-miterlimit:3.85;stroke-dasharray:none;stroke-opacity:1" />
      <polygon
         points="3074.076,4595.698 3054.449,4641.492 3065.898,4649.667 3087.159,4641.492 3142.759,4613.688 3146.034,4602.239 3183.645,4598.969 3208.177,4616.958 3178.74,4667.656 3175.47,4726.532 3146.034,4746.154 3126.406,4746.154 3095.334,4716.718 3031.555,4715.082 3018.472,4728.163 2998.848,4764.143 2979.221,4757.603 2953.055,4777.228 2938.337,4811.571 2913.808,4808.299 2869.654,4780.498 2846.755,4733.072 2840.214,4742.884 2802.6,4721.623 2760.081,4742.884 2717.56,4736.343 2699.572,4718.353 2701.207,4685.647 2742.091,4656.208 2768.257,4651.303 2807.508,4608.786 2766.622,4592.428 2735.55,4561.354 2760.081,4476.313 2845.122,4489.4 2848.391,4494.303 2877.827,4499.212 2925.255,4491.036 2972.679,4538.459 2984.128,4517.199 3010.294,4515.566 3038.096,4536.826 "
         transform="translate(-107.74507,-4056.293)"
         id="polygon711-1-8-5-8-9"
         style="fill:none;fill-opacity:1;stroke:#ecfcff;stroke-width:35.7678;stroke-miterlimit:3.85;stroke-dasharray:none;stroke-opacity:1" />
      <polygon
         points="2923.619,4953.849 2887.64,5022.537 2838.579,5033.985 2814.048,5022.537 2787.882,5040.527 2771.527,4996.371 2681.581,4970.203 2665.228,4940.767 2693.029,4945.673 2735.55,4921.142 2743.728,4880.258 2707.747,4832.831 2733.913,4809.933 2760.081,4742.884 2802.6,4721.623 2840.214,4742.884 2846.755,4733.072 2869.654,4780.498 2913.808,4808.299 2938.337,4811.571 2943.244,4836.102 2935.065,4940.767 "
         transform="translate(-107.74507,-4056.293)"
         id="polygon713-2-4-0-4-1"
         style="fill:none;fill-opacity:1;stroke:#ecfcff;stroke-width:35.7678;stroke-miterlimit:3.85;stroke-dasharray:none;stroke-opacity:1" />
      <polygon
         points="2382.306,4898.249 2367.586,4876.987 2390.481,4803.392 2426.462,4780.498 2467.346,4780.498 2485.333,4780.498 2493.511,4757.603 2539.304,4705.269 2555.657,4706.907 2560.562,4690.552 2616.166,4700.366 2660.321,4721.623 2679.945,4729.799 2699.572,4718.353 2717.56,4736.343 2760.081,4742.884 2733.913,4809.933 2707.747,4832.831 2743.728,4880.258 2735.55,4921.142 2693.029,4945.673 2665.228,4940.767 2681.581,4970.203 2771.527,4996.371 2787.882,5040.527 2814.048,5022.537 2838.579,5033.985 2887.64,5022.537 2905.629,5017.632 2962.868,5042.162 3023.38,5130.47 3025.013,5133.743 2939.972,5143.557 2905.629,5125.566 2879.465,5138.648 2850.025,5155.001 2812.411,5172.992 2812.345,5172.992 2796.058,5210.607 2745.362,5235.137 2694.664,5285.835 2678.311,5349.613 2627.614,5343.074 2598.175,5338.166 2580.188,5292.375 2532.763,5254.762 2539.304,5231.867 2516.405,5181.169 2482.062,5171.354 2503.323,5148.46 2436.273,5058.516 2457.534,5037.254 2455.896,5014.358 2401.929,4965.298 2401.929,4893.339 "
         transform="translate(-107.74507,-4056.293)"
         id="polygon715-1-7-5-7-2"
         style="fill:none;fill-opacity:1;stroke:#ecfcff;stroke-width:35.7678;stroke-miterlimit:3.85;stroke-dasharray:none;stroke-opacity:1" />
      <polygon
         points="1983.27,5370.805 1986.541,5341.435 2020.884,5302.188 2055.227,5323.449 2096.113,5302.188 2176.244,5359.426 2225.308,5367.603 2276.005,5411.759 2231.848,5413.393 2187.695,5504.975 2186.058,5536.047 2146.808,5534.416 2102.654,5558.946 2099.383,5560.582 2091.204,5516.425 2065.04,5495.164 2007.801,5480.447 1993.082,5501.705 1966.917,5500.072 1955.468,5426.48 2009.436,5401.947 "
         transform="translate(-107.74507,-4056.293)"
         id="polygon717-2-0-2-8-7"
         style="fill:none;fill-opacity:1;stroke:#ecfcff;stroke-width:35.7678;stroke-miterlimit:3.85;stroke-dasharray:none;stroke-opacity:1" />
      <polygon
         points="2598.175,5338.166 2572.009,5385.594 2570.373,5415.031 2540.937,5434.652 2470.616,5436.292 2488.604,5379.049 2455.896,5374.144 2401.929,5346.344 2377.399,5369.239 2336.514,5349.613 2258.014,5334.894 2241.662,5339.804 2225.308,5367.603 2176.244,5359.426 2096.113,5302.188 2055.227,5323.449 2020.884,5302.188 1997.987,5282.563 1973.457,5195.886 1952.196,5163.179 1929.302,5161.544 1903.134,5135.379 1908.042,5109.213 1944.018,5076.501 1986.541,5087.953 1981.633,5061.787 1984.904,5037.254 1996.352,5030.713 2050.32,5048.703 2061.77,4996.371 2040.508,4970.203 2029.059,4935.862 2025.789,4912.965 2040.508,4888.433 2002.893,4829.561 2025.789,4801.758 2024.155,4785.406 2056.862,4728.163 2096.113,4719.991 2115.737,4737.98 2150.081,4737.98 2182.787,4755.965 2217.13,4798.488 2213.862,4806.664 2276.005,4834.465 2326.701,4785.406 2352.867,4785.406 2390.481,4803.392 2367.586,4876.987 2382.306,4898.249 2401.929,4893.339 2401.929,4965.298 2455.896,5014.358 2457.534,5037.254 2436.273,5058.516 2503.323,5148.46 2482.062,5171.354 2516.405,5181.169 2539.304,5231.867 2532.763,5254.762 2580.188,5292.375 "
         transform="translate(-107.74507,-4056.293)"
         id="polygon719-4-8-0-1-7"
         style="fill:none;fill-opacity:1;stroke:#ecfcff;stroke-width:35.7678;stroke-miterlimit:3.85;stroke-dasharray:none;stroke-opacity:1" />
      <polygon
         points="2096.113,4719.991 2056.862,4728.163 2024.155,4785.406 2025.789,4801.758 2002.893,4829.561 1901.5,4783.769 1857.345,4813.208 1836.085,4847.546 1813.189,4880.258 1773.938,4885.163 1734.691,4872.081 1729.783,4858.997 1733.053,4832.831 1710.159,4809.933 1713.431,4823.021 1677.452,4831.196 1639.839,4808.299 1597.319,4790.309 1603.86,4777.228 1576.056,4777.228 1579.327,4711.812 1562.973,4679.105 1528.63,4682.375 1487.746,4661.116 1466.485,4648.033 1451.768,4616.958 1468.12,4600.606 1419.058,4553.178 1422.329,4476.313 1445.227,4446.878 1530.268,4445.245 1538.444,4445.245 1616.943,4450.147 1636.57,4423.984 1649.653,4423.984 1685.628,4405.995 1700.347,4386.371 1746.137,4373.288 1757.585,4343.848 1782.116,4332.4 1842.626,4293.151 1849.166,4289.879 1854.075,4288.249 1862.249,4293.151 1896.592,4281.705 1922.76,4219.561 1924.396,4209.749 1886.781,4191.758 1930.936,4124.708 2006.163,4155.776 2030.696,4245.724 2065.04,4260.444 2097.747,4281.705 2127.185,4296.42 2154.984,4299.692 2204.048,4281.705 2231.848,4307.871 2246.57,4309.504 2256.382,4356.929 2272.734,4374.92 2295.629,4409.263 2256.382,4402.722 2238.391,4415.804 2238.391,4432.159 2262.922,4456.691 2230.214,4473.044 2230.214,4518.835 2225.308,4535.188 2204.048,4558.084 2205.685,4571.168 2230.214,4603.875 2316.889,4618.596 2302.17,4644.76 2305.441,4708.541 2269.464,4706.907 2256.382,4723.259 2182.787,4755.965 2150.081,4737.98 2115.737,4737.98 "
         transform="translate(-107.74507,-4056.293)"
         id="polygon721-5-6-7-7-6"
         style="fill:none;fill-opacity:1;stroke:#ecfcff;stroke-width:35.7678;stroke-miterlimit:3.85;stroke-dasharray:none;stroke-opacity:1" />
      <polygon
         points="1901.5,4783.769 2002.893,4829.561 2040.508,4888.433 2025.789,4912.965 2029.059,4935.862 2040.508,4970.203 2061.77,4996.371 2050.32,5048.703 1996.352,5030.713 1984.904,5037.254 1981.633,5061.787 1986.541,5087.953 1944.018,5076.501 1908.042,5109.213 1903.134,5135.379 1890.051,5130.47 1849.166,5109.213 1811.552,5042.162 1800.106,4993.098 1773.938,4971.838 1780.48,4944.038 1821.364,4912.965 1813.189,4880.258 1836.085,4847.546 1857.345,4813.208 "
         transform="translate(-107.74507,-4056.293)"
         id="polygon723-4-1-7-0-1"
         style="fill:none;fill-opacity:1;stroke:#ecfcff;stroke-width:35.7678;stroke-miterlimit:3.85;stroke-dasharray:none;stroke-opacity:1" />
      <polygon
         points="1829.543,5379.049 1803.378,5321.812 1770.668,5325.083 1767.398,5315.27 1754.315,5297.28 1719.971,5318.542 1708.522,5339.804 1734.691,5364.333 1734.691,5385.594 1692.168,5408.492 1587.505,5339.804 1587.505,5328.353 1608.765,5290.739 1569.514,5267.845 1549.89,5230.231 1562.973,5220.419 1553.161,5187.713 1507.368,5159.911 1468.12,5150.098 1420.695,5130.47 1397.8,5107.577 1356.916,5038.889 1384.715,4978.379 1396.164,4903.152 1368.362,4881.89 1360.187,4854.092 1396.164,4852.456 1428.873,4844.277 1477.934,4791.947 1491.016,4790.309 1548.253,4800.122 1576.056,4777.228 1603.86,4777.228 1597.319,4790.309 1639.839,4808.299 1677.452,4831.196 1713.431,4823.021 1710.159,4809.933 1733.053,4832.831 1729.783,4858.997 1734.691,4872.081 1773.938,4885.163 1813.189,4880.258 1821.364,4912.965 1780.48,4944.038 1773.938,4971.838 1800.106,4993.098 1811.552,5042.162 1849.166,5109.213 1890.051,5130.47 1903.134,5135.379 1929.302,5161.544 1952.196,5163.179 1973.457,5195.886 1997.987,5282.563 2020.884,5302.188 1986.541,5341.435 1952.196,5328.353 1935.844,5351.25 1911.313,5336.533 "
         transform="translate(-107.74507,-4056.293)"
         id="polygon725-0-6-9-4-4"
         style="fill:none;fill-opacity:1;stroke:#ecfcff;stroke-width:35.7678;stroke-miterlimit:3.85;stroke-dasharray:none;stroke-opacity:1" />
      <polygon
         points="1073.992,5886.022 1049.461,5897.469 1015.118,5879.482 980.776,5908.92 972.596,5902.375 928.44,5882.753 926.807,5825.51 907.183,5809.159 915.361,5773.18 934.984,5784.625 943.16,5742.108 943.16,5666.88 907.183,5634.174 970.963,5611.278 957.881,5578.57 969.325,5545.859 1020.027,5572.027 1064.181,5593.291 1067.452,5619.456 1100.157,5640.715 1083.804,5719.215 1091.98,5745.38 1083.804,5846.773 1096.887,5882.753 "
         transform="translate(-107.74507,-4056.293)"
         id="polygon737-4-4-7-6-0"
         style="fill:none;fill-opacity:1;stroke:#ecfcff;stroke-width:35.7678;stroke-miterlimit:3.85;stroke-dasharray:none;stroke-opacity:1" />
      <polygon
         points="1173.75,5861.492 1096.887,5882.753 1083.804,5846.773 1091.98,5745.38 1083.804,5719.215 1116.511,5727.389 1175.386,5696.314 1188.468,5730.659 1226.083,5733.929 1232.624,5753.557 1213.001,5818.97 "
         transform="translate(-107.74507,-4056.293)"
         id="polygon739-4-3-5-9-5"
         style="fill:none;fill-opacity:1;stroke:#ecfcff;stroke-width:35.7678;stroke-miterlimit:3.85;stroke-dasharray:none;stroke-opacity:1" />
      <polygon
         points="1100.157,5640.715 1067.452,5619.456 1064.181,5593.291 1064.181,5572.027 1114.878,5521.332 1149.221,5549.134 1172.115,5625.997 1204.821,5655.43 1178.657,5668.515 1175.386,5696.314 1116.511,5727.389 1083.804,5719.215 "
         transform="translate(-107.74507,-4056.293)"
         id="polygon741-6-5-3-5-8"
         style="fill:none;fill-opacity:1;stroke:#ecfcff;stroke-width:35.7678;stroke-miterlimit:3.85;stroke-dasharray:none;stroke-opacity:1" />
      <polygon
         points="1114.878,5521.332 1149.221,5495.164 1136.134,5477.176 1155.762,5455.916 1154.125,5441.198 1188.468,5436.292 1217.904,5421.573 1266.968,5457.549 1266.831,5458.639 1263.698,5486.988 1203.189,5542.589 1278.417,5601.465 1265.333,5640.715 1204.821,5655.43 1172.115,5625.997 1149.221,5549.134 "
         transform="translate(-107.74507,-4056.293)"
         id="polygon743-4-5-9-3-7"
         style="fill:none;fill-opacity:1;stroke:#ecfcff;stroke-width:35.7678;stroke-miterlimit:3.85;stroke-dasharray:none;stroke-opacity:1" />
      <polygon
         points="1356.916,5868.033 1270.238,5882.753 1195.01,5894.2 1173.75,5861.492 1213.001,5818.97 1232.624,5753.557 1226.083,5733.929 1188.468,5730.659 1175.386,5696.314 1178.657,5668.515 1204.821,5655.43 1265.333,5640.715 1278.417,5601.465 1288.228,5603.102 1298.041,5627.627 1376.539,5689.774 1407.613,5779.723 1401.07,5799.346 1381.445,5810.794 1386.352,5850.042 "
         transform="translate(-107.74507,-4056.293)"
         id="polygon745-1-1-9-2-2"
         style="fill:none;fill-opacity:1;stroke:#ecfcff;stroke-width:35.7678;stroke-miterlimit:3.85;stroke-dasharray:none;stroke-opacity:1" />
      <polygon
         points="2379.035,6106.8 2325.065,6093.718 2302.17,6110.071 2205.685,6101.894 2199.14,6111.708 2177.882,6085.542 2174.612,6018.491 2197.506,5974.334 2192.597,5944.896 2169.704,5928.542 2172.974,5889.293 2158.255,5858.223 2163.163,5820.608 2133.727,5751.92 2171.341,5706.127 2179.516,5701.224 2189.328,5714.306 2190.964,5727.389 2223.671,5742.108 2280.91,5740.47 2328.338,5776.453 2387.211,5776.453 2468.979,5817.335 2473.887,5836.961 2529.488,5848.412 2563.832,5872.94 2630.885,5863.125 2657.051,5845.138 2683.216,5848.412 2735.55,5805.888 2737.186,5794.441 2814.048,5753.557 2840.214,5753.557 2868.015,5729.027 2892.548,5737.204 2985.766,5769.913 3023.38,5778.085 3031.555,5789.537 3054.449,5774.814 3101.875,5714.306 3074.076,5665.245 3082.252,5643.986 3111.691,5632.538 3159.117,5632.538 3170.563,5658.704 3177.103,5671.791 3235.979,5697.954 3155.847,5737.204 3186.919,5794.441 3183.645,5818.97 3211.447,5822.244 3214.717,5846.773 3200.002,5886.022 3152.576,5879.482 3067.536,5881.118 2995.577,5908.92 2964.505,5900.74 2939.972,5908.92 2917.078,5957.981 2900.725,5953.073 2882.735,5964.522 2832.039,6036.476 2817.319,6056.104 2828.768,6067.551 2856.567,6106.8 2956.326,6064.278 2982.495,6064.278 2995.577,6082.269 2989.036,6106.8 3000.482,6154.228 3028.285,6168.948 3008.659,6185.3 3005.389,6232.721 2949.785,6289.963 2957.963,6316.128 2975.951,6319.402 2930.161,6339.029 2905.629,6348.834 2804.237,6335.753 2802.6,6317.765 2763.352,6296.504 2748.631,6273.607 2711.018,6281.785 2694.664,6270.34 2657.051,6286.697 2634.156,6317.765 2594.905,6347.206 2491.877,6325.948 2496.782,6311.225 2441.177,6257.258 2424.825,6253.985 2416.649,6271.976 2385.576,6262.163 2408.471,6213.098 2370.858,6177.124 2361.045,6146.047 2380.669,6121.519 "
         transform="translate(-107.74507,-4056.293)"
         id="polygon1173-5-9-4-9-6"
         style="fill:none;fill-opacity:1;stroke:#ecfcff;stroke-width:35.7678;stroke-miterlimit:3.85;stroke-dasharray:none;stroke-opacity:1" />
      <polygon
         points="2114.099,5639.078 2102.654,5558.946 2146.808,5534.416 2186.058,5536.047 2187.695,5504.975 2231.848,5413.393 2276.005,5411.759 2225.308,5367.603 2241.662,5339.804 2258.014,5334.894 2336.514,5349.613 2377.399,5369.239 2401.929,5346.344 2455.896,5374.144 2488.604,5379.049 2470.616,5436.292 2540.937,5434.652 2570.373,5415.031 2572.009,5385.594 2598.175,5338.166 2627.614,5343.074 2678.311,5349.613 2743.728,5347.98 2760.081,5395.407 2753.541,5406.853 2845.122,5447.738 2854.932,5506.611 2764.985,5560.582 2746.998,5590.017 2746.998,5624.359 2787.882,5714.306 2814.048,5753.557 2737.186,5794.441 2735.55,5805.888 2683.216,5848.412 2657.051,5845.138 2630.885,5863.125 2563.832,5872.94 2529.488,5848.412 2473.887,5836.961 2468.979,5817.335 2387.211,5776.453 2328.338,5776.453 2280.91,5740.47 2223.671,5742.108 2190.964,5727.389 2189.328,5714.306 2179.516,5701.224 2171.341,5706.127 2133.727,5751.92 2109.195,5719.215 2120.64,5707.764 2104.287,5675.058 2107.558,5657.068 "
         transform="translate(-107.74507,-4056.293)"
         id="polygon1211-3-3-9-4-0"
         style="fill:none;fill-opacity:1;stroke:#ecfcff;stroke-width:35.7678;stroke-miterlimit:3.85;stroke-dasharray:none;stroke-opacity:1" />
      <polygon
         points="2380.669,6975.192 2369.223,6971.923 2362.678,6989.911 2336.514,6960.479 2316.889,6955.568 2297.265,6973.559 2276.005,6970.286 2277.638,6922.86 2266.195,6911.413 2249.839,6891.792 2222.037,6865.625 2205.685,6831.283 2213.862,6780.583 2212.226,6780.583 2218.767,6756.052 2205.685,6729.879 2168.07,6731.517 2158.255,6729.879 2125.548,6682.456 2092.841,6675.915 2071.581,6667.743 2094.476,6600.688 2156.621,6603.961 2171.341,6587.602 2168.07,6582.7 2169.704,6549.993 2189.328,6514.011 2181.154,6492.752 2200.779,6440.421 2271.096,6420.796 2284.18,6468.224 2292.359,6479.668 2315.252,6476.402 2331.609,6450.238 2354.433,6448.598 2418.217,6481.306 2439.474,6458.407 2439.543,6458.407 2464.076,6456.778 2477.159,6422.433 2493.511,6409.352 2500.053,6386.453 2477.159,6343.93 2491.877,6325.948 2594.905,6347.206 2634.156,6317.765 2657.051,6286.697 2694.664,6270.34 2711.018,6281.785 2748.631,6273.607 2763.352,6296.504 2802.6,6317.765 2804.237,6335.753 2755.174,6370.097 2773.164,6388.089 2771.527,6428.974 2787.882,6460.044 2782.975,6476.402 2725.737,6535.274 2729.008,6546.717 2715.925,6546.717 2688.124,6630.125 2668.5,6639.938 2634.156,6669.374 2632.519,6692.27 2601.446,6715.169 2550.749,6715.169 2531.126,6680.827 2514.773,6682.456 2475.522,6729.879 2442.815,6756.052 2408.471,6803.479 2370.858,6824.742 2406.834,6911.413 "
         transform="translate(-107.74507,-4056.293)"
         id="polygon1219-9-6-1-1-2"
         style="fill:none;fill-opacity:1;stroke:#ecfcff;stroke-width:35.7678;stroke-miterlimit:3.85;stroke-dasharray:none;stroke-opacity:1" />
      <polygon
         points="2094.476,6600.688 2058.497,6576.159 2032.329,6574.521 2029.059,6510.746 1994.716,6514.011 1973.457,6481.306 1973.457,6461.681 1981.633,6422.433 1952.196,6376.638 1965.279,6360.287 2069.945,6361.917 2073.216,6306.321 2092.841,6280.146 2051.957,6245.812 2063.404,6237.633 2156.621,6218.008 2166.433,6191.841 2186.058,6213.098 2200.779,6200.016 2210.588,6134.603 2199.14,6111.708 2205.685,6101.894 2302.17,6110.071 2325.065,6093.718 2379.035,6106.8 2380.669,6121.519 2361.045,6146.047 2370.858,6177.124 2408.471,6213.098 2385.576,6262.163 2416.649,6271.976 2424.825,6253.985 2441.177,6257.258 2496.782,6311.225 2491.877,6325.948 2477.159,6343.93 2500.053,6386.453 2493.511,6409.352 2477.159,6422.433 2464.076,6456.778 2439.543,6458.407 2439.474,6458.407 2418.217,6481.306 2354.433,6448.598 2331.609,6450.238 2315.252,6476.402 2292.359,6479.668 2284.18,6468.224 2271.096,6420.796 2200.779,6440.421 2181.154,6492.752 2189.328,6514.011 2169.704,6549.993 2168.07,6582.7 2171.341,6587.602 2156.621,6603.961 "
         transform="translate(-107.74507,-4056.293)"
         id="polygon1263-0-0-5-6-7"
         style="fill:none;fill-opacity:1;stroke:#ecfcff;stroke-width:35.7678;stroke-miterlimit:3.85;stroke-dasharray:none;stroke-opacity:1" />
      <polygon
         points="2199.14,6111.708 2210.588,6134.603 2200.779,6200.016 2186.058,6213.098 2166.433,6191.841 2156.621,6218.008 2063.404,6237.633 2051.957,6245.812 2092.841,6280.146 2073.216,6306.321 2069.945,6361.917 1965.279,6360.287 1939.114,6343.93 1876.968,6365.193 1860.615,6350.472 1852.438,6343.93 1854.075,6312.862 1749.407,6301.41 1755.951,6262.163 1746.137,6270.34 1734.691,6258.893 1680.723,6170.583 1674.182,6152.591 1690.535,6126.423 1752.677,6088.81 1755.951,6069.187 1780.48,6047.926 1809.919,6043.022 1845.896,6002.138 1840.992,5946.533 1857.345,5933.451 1854.075,5851.679 1881.877,5856.584 1899.862,5830.419 1883.51,5763.372 1899.862,5755.192 1944.018,5732.295 1966.917,5722.483 2068.311,5733.929 2109.195,5719.215 2133.727,5751.92 2163.163,5820.608 2158.255,5858.223 2172.974,5889.293 2169.704,5928.542 2192.597,5944.896 2197.506,5974.334 2174.612,6018.491 2177.882,6085.542 "
         transform="translate(-107.74507,-4056.293)"
         id="polygon1281-7-9-9-6-2"
         style="fill:none;fill-opacity:1;stroke:#ecfcff;stroke-width:35.7678;stroke-miterlimit:3.85;stroke-dasharray:none;stroke-opacity:1" />
      <polygon
         points="1780.48,5805.888 1773.938,5791.167 1818.094,5729.027 1842.626,5715.942 1876.968,5715.942 1870.428,5665.245 1906.405,5647.256 1908.042,5599.832 1883.51,5599.832 1867.156,5544.225 1780.48,5547.497 1769.035,5526.233 1724.879,5545.859 1700.347,5531.143 1698.71,5511.519 1737.961,5490.259 1739.594,5447.738 1726.512,5416.664 1700.347,5413.393 1692.168,5408.492 1734.691,5385.594 1734.691,5364.333 1708.522,5339.804 1719.971,5318.542 1754.315,5297.28 1767.398,5315.27 1770.668,5325.083 1803.378,5321.812 1829.543,5379.049 1911.313,5336.533 1935.844,5351.25 1952.196,5328.353 1986.541,5341.435 1983.27,5370.805 2009.436,5401.947 1955.468,5426.48 1966.917,5500.072 1993.082,5501.705 2007.801,5480.447 2065.04,5495.164 2091.204,5516.425 2099.383,5560.582 2102.654,5558.946 2114.099,5639.078 2107.558,5657.068 2104.287,5675.058 2120.64,5707.764 2109.195,5719.215 2068.311,5733.929 1966.917,5722.483 1944.018,5732.295 1899.862,5755.192 1883.51,5763.372 1899.862,5830.419 1881.877,5856.584 1854.075,5851.679 1801.741,5830.419 1773.938,5810.794 "
         transform="translate(-107.74507,-4056.293)"
         id="polygon1291-2-3-8-0-3"
         style="fill:none;fill-opacity:1;stroke:#ecfcff;stroke-width:35.7678;stroke-miterlimit:3.85;stroke-dasharray:none;stroke-opacity:1" />
      <polygon
         points="1703.617,6577.795 1670.908,6551.629 1641.472,6546.717 1610.402,6535.274 1587.505,6520.553 1569.514,6499.293 1526.997,6509.108 1495.924,6482.943 1579.327,6386.453 1525.362,6334.125 1530.268,6324.306 1549.89,6296.504 1526.997,6278.518 1523.725,6229.457 1549.89,6227.821 1561.34,6177.124 1553.161,6136.237 1566.243,6082.269 1594.046,6065.917 1625.118,6074.092 1652.921,6075.728 1687.265,6110.071 1690.535,6126.423 1674.182,6152.591 1680.723,6170.583 1734.691,6258.893 1746.137,6270.34 1755.951,6262.163 1749.407,6301.41 1854.075,6312.862 1852.438,6343.93 1860.615,6350.472 1876.968,6365.193 1939.114,6343.93 1965.279,6360.287 1952.196,6376.638 1981.633,6422.433 1973.457,6461.681 1973.457,6481.306 1994.716,6514.011 2029.059,6510.746 2032.329,6574.521 1980,6612.138 2002.893,6638.305 1991.445,6718.435 2002.893,6726.615 1971.821,6718.435 1945.656,6747.875 1937.478,6756.052 1898.23,6762.593 1886.781,6738.06 1857.345,6760.959 1765.763,6736.429 1752.677,6703.716 1731.419,6671.01 1701.981,6661.202 1719.971,6612.138 "
         transform="translate(-107.74507,-4056.293)"
         id="polygon1299-5-5-3-2-2"
         style="fill:none;fill-opacity:1;stroke:#ecfcff;stroke-width:35.7678;stroke-miterlimit:3.85;stroke-dasharray:none;stroke-opacity:1" />
      <polygon
         points="1109.97,7127.285 1100.157,7092.939 1132.864,7047.15 1118.148,7027.528 1088.71,7017.712 1093.618,6940.854 1077.264,6927.763 1121.419,6898.333 1141.042,6870.528 1100.157,6839.454 1093.618,6788.759 1139.406,6762.593 1173.75,6760.959 1222.812,6780.583 1262.06,6770.767 1258.789,6742.97 1219.542,6726.615 1214.634,6703.716 1237.532,6711.895 1296.404,6723.339 1324.205,6720.074 1396.164,6669.374 1430.506,6661.202 1487.746,6574.521 1515.547,6603.961 1541.713,6612.138 1543.35,6612.138 1589.138,6602.325 1641.472,6546.717 1670.908,6551.629 1703.617,6577.795 1719.971,6612.138 1701.981,6661.202 1731.419,6671.01 1752.677,6703.716 1765.763,6736.429 1857.345,6760.959 1886.781,6738.06 1898.23,6762.593 1917.853,6778.946 1919.49,6801.842 1919.49,6805.111 1894.959,6818.202 1894.959,6841.091 1893.322,6842.726 1849.166,6842.726 1834.447,6844.364 1824.635,6860.713 1829.543,6877.071 1823.002,6886.879 1791.928,6881.976 1767.398,6885.25 1747.774,6903.237 1733.053,6899.969 1710.159,6917.958 1669.276,6927.763 1607.128,6917.958 1585.867,6945.755 1595.684,6989.911 1592.412,6989.911 1590.777,6989.911 1582.597,7014.445 1538.444,7042.249 1479.57,7060.236 1433.779,7060.236 1435.414,7017.712 1427.237,7001.364 1394.53,6931.04 1437.049,6875.432 1355.279,6816.563 1330.748,6834.547 1307.853,6823.104 1296.404,6818.202 1265.333,6842.726 1257.155,6888.517 1266.968,6971.923 1258.789,6991.546 1247.344,6986.645 1247.344,7002.994 1284.958,7038.972 1330.748,6999.725 1404.342,7012.806 1419.058,7029.167 1410.883,7058.596 1394.53,7074.954 1368.362,7094.579 1330.748,7089.672 1306.219,7114.202 1268.606,7083.132 1213.001,7145.277 1199.918,7142 1186.836,7156.723 1165.574,7145.277 1142.68,7151.818 1136.134,7140.366 "
         transform="translate(-107.74507,-4056.293)"
         id="polygon1305-9-3-0-3-2"
         style="fill:none;fill-opacity:1;stroke:#ecfcff;stroke-width:35.7678;stroke-miterlimit:3.85;stroke-dasharray:none;stroke-opacity:1" />
      <polygon
         points="1870.428,5665.245 1876.968,5715.942 1842.626,5715.942 1818.094,5729.027 1773.938,5791.167 1780.48,5805.888 1733.053,5805.888 1737.961,5776.453 1693.805,5779.723 1661.097,5711.037 1621.848,5696.314 1597.319,5684.872 1579.327,5658.704 1590.777,5632.538 1636.57,5624.359 1626.753,5557.308 1651.283,5524.602 1675.815,5531.143 1698.71,5511.519 1700.347,5531.143 1724.879,5545.859 1769.035,5526.233 1780.48,5547.497 1867.156,5544.225 1883.51,5599.832 1908.042,5599.832 1906.405,5647.256 "
         transform="translate(-107.74507,-4056.293)"
         id="polygon1309-9-4-9-3-8"
         style="fill:none;fill-opacity:1;stroke:#ecfcff;stroke-width:35.7678;stroke-miterlimit:3.85;stroke-dasharray:none;stroke-opacity:1" />
      <polygon
         points="1703.617,5964.522 1690.535,5990.69 1695.44,6007.042 1662.736,5989.051 1687.265,5957.981 1687.265,5943.26 1662.736,5938.354 1657.825,5948.167 1643.111,5913.823 1674.182,5835.327 1703.617,5845.138 1733.053,5805.888 1780.48,5805.888 1773.938,5810.794 1801.741,5830.419 1854.075,5851.679 1857.345,5933.451 1840.992,5946.533 1845.896,6002.138 1809.919,6043.022 1780.48,6047.926 1742.865,6018.491 1747.774,6000.5 1757.585,6003.771 1769.035,5989.051 1767.398,5967.794 "
         transform="translate(-107.74507,-4056.293)"
         id="polygon1315-8-4-0-5-9"
         style="fill:none;fill-opacity:1;stroke:#ecfcff;stroke-width:35.7678;stroke-miterlimit:3.85;stroke-dasharray:none;stroke-opacity:1" />
      <polygon
         points="1767.398,5967.794 1769.035,5989.051 1757.585,6003.771 1747.774,6000.5 1742.865,6018.491 1780.48,6047.926 1755.951,6069.187 1752.677,6088.81 1690.535,6126.423 1687.265,6110.071 1652.921,6075.728 1625.118,6074.092 1594.046,6065.917 1566.243,6082.269 1561.34,6062.646 1528.63,6054.467 1525.362,5977.606 1528.63,5954.708 1459.944,5990.69 1440.32,5984.147 1440.32,5964.522 1430.506,5959.617 1415.788,5910.552 1423.966,5871.304 1417.424,5858.223 1386.352,5850.042 1381.445,5810.794 1401.07,5799.346 1407.613,5779.723 1425.6,5797.712 1522.09,5802.618 1564.612,5756.831 1559.702,5740.47 1613.671,5737.204 1621.848,5696.314 1661.097,5711.037 1693.805,5779.723 1737.961,5776.453 1733.053,5805.888 1703.617,5845.138 1674.182,5835.327 1643.111,5913.823 1657.825,5948.167 1662.736,5938.354 1687.265,5943.26 1687.265,5957.981 1662.736,5989.051 1695.44,6007.042 1690.535,5990.69 1703.617,5964.522 "
         transform="translate(-107.74507,-4056.293)"
         id="polygon1319-3-1-7-8-6"
         style="fill:none;fill-opacity:1;stroke:#ecfcff;stroke-width:35.7678;stroke-miterlimit:3.85;stroke-dasharray:none;stroke-opacity:1" />
      <polygon
         points="1312.76,6471.491 1314.394,6424.066 1337.289,6414.255 1363.457,6355.377 1325.843,6348.834 1309.489,6334.125 1324.205,6301.41 1281.687,6307.951 1260.426,6322.672 1239.165,6306.321 1250.615,6260.526 1288.228,6242.538 1350.373,6234.361 1363.457,6237.633 1381.445,6267.066 1409.246,6267.066 1425.6,6260.526 1420.695,6213.098 1474.663,6203.292 1505.737,6208.194 1523.725,6229.457 1526.997,6278.518 1549.89,6296.504 1530.268,6324.306 1525.362,6334.125 1579.327,6386.453 1495.924,6482.943 1526.997,6509.108 1569.514,6499.293 1587.505,6520.553 1610.402,6535.274 1641.472,6546.717 1589.138,6602.325 1543.35,6612.138 1541.713,6612.138 1515.547,6603.961 1487.746,6574.521 1430.506,6661.202 1396.164,6669.374 1374.904,6644.844 1379.81,6584.336 1386.352,6543.453 1352.008,6546.717 1327.476,6522.19 1343.83,6505.834 1340.559,6486.209 "
         transform="translate(-107.74507,-4056.293)"
         id="polygon1323-3-9-6-1-8"
         style="fill:none;fill-opacity:1;stroke:#ecfcff;stroke-width:35.7678;stroke-miterlimit:3.85;stroke-dasharray:none;stroke-opacity:1" />
      <polygon
         points="1376.539,5689.774 1412.516,5675.058 1415.788,5652.163 1461.58,5650.527 1477.934,5629.267 1504.098,5635.807 1571.153,5616.183 1590.777,5632.538 1579.327,5658.704 1597.319,5684.872 1621.848,5696.314 1613.671,5737.204 1559.702,5740.47 1564.612,5756.831 1522.09,5802.618 1425.6,5797.712 1407.613,5779.723 "
         transform="translate(-107.74507,-4056.293)"
         id="polygon1325-5-7-8-8-2"
         style="fill:none;fill-opacity:1;stroke:#ecfcff;stroke-width:35.7678;stroke-miterlimit:3.85;stroke-dasharray:none;stroke-opacity:1" />
      <polygon
         points="1504.098,5635.807 1477.934,5629.267 1461.58,5650.527 1415.788,5652.163 1420.695,5639.078 1402.705,5578.57 1423.966,5578.57 1458.309,5578.57 1522.09,5547.497 1572.786,5599.832 1571.153,5616.183 "
         transform="translate(-107.74507,-4056.293)"
         id="polygon1331-7-6-3-1-2"
         style="fill:none;fill-opacity:1;stroke:#ecfcff;stroke-width:35.7678;stroke-miterlimit:3.85;stroke-dasharray:none;stroke-opacity:1" />
      <polygon
         points="1350.373,6103.532 1306.219,6121.519 1302.945,6088.81 1281.687,6065.917 1301.312,6047.926 1322.572,6043.022 1358.55,5987.417 1373.269,5972.699 1430.506,5959.617 1440.32,5964.522 1440.32,5984.147 1459.944,5990.69 1528.63,5954.708 1525.362,5977.606 1528.63,6054.467 1561.34,6062.646 1566.243,6082.269 1553.161,6136.237 1523.725,6128.063 1495.924,6101.894 1423.966,6121.519 1391.259,6193.476 1369.999,6162.408 1360.187,6111.708 "
         transform="translate(-107.74507,-4056.293)"
         id="polygon1333-9-4-8-1-0"
         style="fill:none;fill-opacity:1;stroke:#ecfcff;stroke-width:35.7678;stroke-miterlimit:3.85;stroke-dasharray:none;stroke-opacity:1" />
      <polygon
         points="1474.663,6203.292 1420.695,6213.098 1396.164,6229.457 1391.259,6193.476 1423.966,6121.519 1495.924,6101.894 1523.725,6128.063 1553.161,6136.237 1561.34,6177.124 1549.89,6227.821 1523.725,6229.457 1505.737,6208.194 "
         transform="translate(-107.74507,-4056.293)"
         id="polygon1335-9-9-6-3-4"
         style="fill:none;fill-opacity:1;stroke:#ecfcff;stroke-width:35.7678;stroke-miterlimit:3.85;stroke-dasharray:none;stroke-opacity:1" />
      <polygon
         points="1266.968,6971.923 1257.155,6888.517 1265.333,6842.726 1296.404,6818.202 1307.853,6823.104 1330.748,6834.547 1355.279,6816.563 1437.049,6875.432 1394.53,6931.04 1427.237,7001.364 1435.414,7017.712 1419.058,7029.167 1404.342,7012.806 1330.748,6999.725 1284.958,7038.972 1247.344,7002.994 1247.344,6986.645 1258.789,6991.546 "
         transform="translate(-107.74507,-4056.293)"
         id="polygon1347-9-3-1-0-8"
         style="fill:none;fill-opacity:1;stroke:#ecfcff;stroke-width:35.7678;stroke-miterlimit:3.85;stroke-dasharray:none;stroke-opacity:1" />
      <polygon
         points="1168.845,6317.765 1145.951,6343.93 1108.336,6329.212 1101.795,6311.225 1134.502,6278.518 1108.336,6244.174 1165.574,6244.174 1177.021,6224.553 1145.951,6193.476 1178.657,6141.144 1131.231,6092.084 1131.231,6061.009 1190.106,6064.278 1198.281,6008.679 1157.396,6026.665 1065.815,5998.867 1073.992,5886.022 1096.887,5882.753 1173.75,5861.492 1195.01,5894.2 1270.238,5882.753 1356.916,5868.033 1386.352,5850.042 1417.424,5858.223 1423.966,5871.304 1415.788,5910.552 1430.506,5959.617 1373.269,5972.699 1358.55,5987.417 1322.572,6043.022 1301.312,6047.926 1281.687,6065.917 1302.945,6088.81 1306.219,6121.519 1284.958,6150.958 1240.802,6177.124 1214.634,6188.572 1204.821,6216.374 1247.344,6221.28 1250.615,6260.526 1239.165,6306.321 1237.532,6334.125 1222.812,6342.294 1190.106,6335.753 1178.657,6321.036 "
         transform="translate(-107.74507,-4056.293)"
         id="polygon1349-5-7-9-7-5"
         style="fill:none;fill-opacity:1;stroke:#ecfcff;stroke-width:35.7678;stroke-miterlimit:3.85;stroke-dasharray:none;stroke-opacity:1" />
      <polygon
         points="1391.259,6193.476 1396.164,6229.457 1420.695,6213.098 1425.6,6260.526 1409.246,6267.066 1381.445,6267.066 1363.457,6237.633 1350.373,6234.361 1288.228,6242.538 1250.615,6260.526 1247.344,6221.28 1204.821,6216.374 1214.634,6188.572 1240.802,6177.124 1284.958,6150.958 1306.219,6121.519 1350.373,6103.532 1360.187,6111.708 1369.999,6162.408 "
         transform="translate(-107.74507,-4056.293)"
         id="polygon1351-1-1-6-2-7"
         style="fill:none;fill-opacity:1;stroke:#ecfcff;stroke-width:35.7678;stroke-miterlimit:3.85;stroke-dasharray:none;stroke-opacity:1" />
      <polygon
         points="1298.041,5627.627 1288.228,5603.102 1299.675,5531.143 1271.876,5459.187 1317.665,5447.738 1317.665,5459.187 1350.373,5475.538 1391.259,5513.152 1423.966,5578.57 1402.705,5578.57 1420.695,5639.078 1415.788,5652.163 1412.516,5675.058 1376.539,5689.774 "
         transform="translate(-107.74507,-4056.293)"
         id="polygon1353-4-0-7-3-6"
         style="fill:none;fill-opacity:1;stroke:#ecfcff;stroke-width:35.7678;stroke-miterlimit:3.85;stroke-dasharray:none;stroke-opacity:1" />
      <polygon
         points="1152.491,6687.368 1155.762,6617.042 1116.511,6587.602 1091.98,6594.146 1044.553,6538.545 1072.356,6489.483 1085.438,6464.951 1085.438,6399.47 1065.815,6383.179 1044.553,6383.179 1021.659,6339.029 1034.741,6332.488 1049.461,6348.834 1054.366,6370.097 1057.636,6368.467 1082.168,6348.834 1073.992,6324.306 1093.618,6312.862 1101.795,6311.225 1108.336,6329.212 1145.951,6343.93 1211.364,6401.172 1216.272,6427.336 1257.155,6417.521 1314.394,6424.066 1312.76,6471.491 1340.559,6486.209 1343.83,6505.834 1327.476,6522.19 1352.008,6546.717 1386.352,6543.453 1379.81,6584.336 1374.904,6644.844 1396.164,6669.374 1324.205,6720.074 1296.404,6723.339 1237.532,6711.895 1214.634,6703.716 1162.304,6706.993 "
         transform="translate(-107.74507,-4056.293)"
         id="polygon1355-8-3-8-5-0"
         style="fill:none;fill-opacity:1;stroke:#ecfcff;stroke-width:35.7678;stroke-miterlimit:3.85;stroke-dasharray:none;stroke-opacity:1" />
      <polygon
         points="1237.532,6334.125 1239.165,6306.321 1260.426,6322.672 1281.687,6307.951 1324.205,6301.41 1309.489,6334.125 1325.843,6348.834 1363.457,6355.377 1337.289,6414.255 1314.394,6424.066 1257.155,6417.521 1216.272,6427.336 1211.364,6401.172 1145.951,6343.93 1168.845,6317.765 1178.657,6321.036 1190.106,6335.753 1222.812,6342.294 "
         transform="translate(-107.74507,-4056.293)"
         id="polygon1357-1-2-9-8-8"
         style="fill:none;fill-opacity:1;stroke:#ecfcff;stroke-width:35.7678;stroke-miterlimit:3.85;stroke-dasharray:none;stroke-opacity:1" />
      <polygon
         points="1051.094,6211.468 1049.461,6157.498 1038.013,6147.685 988.953,6144.417 980.776,6083.907 951.338,6080.635 957.881,6064.278 988.953,6031.571 998.764,5943.26 980.776,5908.92 1015.118,5879.482 1049.461,5897.469 1073.992,5886.022 1065.815,5998.867 1157.396,6026.665 1198.281,6008.679 1190.106,6064.278 1131.231,6061.009 1131.231,6092.084 1178.657,6141.144 1145.951,6193.476 1177.021,6224.553 1165.574,6244.174 1108.336,6244.174 1106.7,6188.572 1090.347,6188.572 "
         transform="translate(-107.74507,-4056.293)"
         id="polygon1367-5-5-7-3-4"
         style="fill:none;fill-opacity:1;stroke:#ecfcff;stroke-width:35.7678;stroke-miterlimit:3.85;stroke-dasharray:none;stroke-opacity:1" />
      <polygon
         points="539.22,6379.912 550.666,6397.9 598.091,6396.261 609.541,6384.815 704.392,6358.653 724.017,6373.372 701.122,6420.796 714.205,6453.502 740.374,6473.127 722.382,6504.205 753.456,6595.781 769.81,6602.325 786.162,6602.325 807.423,6674.286 828.684,6675.915 843.402,6693.909 843.402,6711.895 884.285,6698.81 916.994,6700.449 936.619,6702.085 939.889,6777.314 907.183,6803.479 918.629,6829.645 925.17,6867.255 900.641,6895.057 864.662,6870.528 809.058,6899.969 812.328,6916.319 818.873,6953.938 782.892,6980.1 792.703,7006.264 773.079,7025.891 771.445,7061.872 756.726,7063.508 702.759,7065.136 681.498,7047.15 634.072,7032.431 627.531,7047.15 622.624,7060.236 599.729,7027.528 624.261,6994.823 598.091,6993.184 591.551,6950.663 549.032,6975.192 503.24,6939.215 501.606,6917.958 524.5,6893.418 547.395,6837.823 586.645,6806.745 537.583,6783.855 527.771,6757.683 565.385,6715.169 568.655,6687.368 544.125,6653.021 552.302,6630.125 531.041,6602.325 460.721,6646.483 455.813,6636.667 457.45,6615.406 436.19,6582.7 436.19,6567.981 462.355,6541.815 465.627,6518.917 431.282,6492.752 475.437,6433.88 513.051,6424.066 "
         transform="translate(-107.74507,-4056.293)"
         id="polygon1377-2-5-5-5-7"
         style="fill:none;fill-opacity:1;stroke:#ecfcff;stroke-width:35.7678;stroke-miterlimit:3.85;stroke-dasharray:none;stroke-opacity:1" />
      <polygon
         points="630.802,6075.728 676.591,6075.728 719.112,6033.209 781.259,6070.819 750.185,6065.917 745.279,6093.718 751.82,6150.958 777.987,6146.047 784.529,6198.379 745.279,6190.205 722.382,6204.927 684.769,6265.435 692.946,6285.059 634.072,6280.146 599.729,6255.62 606.27,6221.28 545.761,6139.506 588.28,6093.718 588.28,6075.728 589.917,6064.278 614.448,6057.74 "
         transform="translate(-107.74507,-4056.293)"
         id="polygon1383-5-4-5-6-3"
         style="fill:none;fill-opacity:1;stroke:#ecfcff;stroke-width:35.7678;stroke-miterlimit:3.85;stroke-dasharray:none;stroke-opacity:1" />
      <polygon
         points="894.096,5156.638 869.57,5174.626 828.684,5140.286 820.507,5130.47 792.703,5138.648 737.103,5148.46 712.571,5105.942 699.489,5032.348 779.622,5068.33 848.308,5027.444 992.223,4976.749 1028.2,5012.723 1051.094,4999.642 1060.911,4988.192 1096.887,4962.027 1137.772,4909.693 1137.772,4862.268 1067.452,4803.392 1005.307,4782.134 1006.94,4762.509 1015.118,4734.708 1054.366,4728.163 1067.452,4716.718 1082.168,4659.481 1165.574,4662.75 1186.836,4649.667 1201.551,4605.509 1230.991,4574.44 1273.509,4569.533 1314.394,4497.577 1361.82,4497.577 1389.623,4477.952 1422.329,4476.313 1419.058,4553.178 1468.12,4600.606 1451.768,4616.958 1466.485,4648.033 1487.746,4661.116 1528.63,4682.375 1562.973,4679.105 1579.327,4711.812 1576.056,4777.228 1548.253,4800.122 1491.016,4790.309 1477.934,4791.947 1428.873,4844.277 1396.164,4852.456 1360.187,4854.092 1368.362,4881.89 1396.164,4903.152 1384.715,4978.379 1356.916,5038.889 1397.8,5107.577 1420.695,5130.47 1468.12,5150.098 1407.613,5200.795 1368.362,5215.51 1324.205,5204.066 1316.031,5177.895 1273.509,5177.895 1250.615,5220.419 1219.542,5210.607 1211.364,5208.968 1203.189,5259.667 1150.855,5284.198 1082.168,5249.853 1067.452,5253.125 1052.734,5205.699 1018.388,5215.51 948.07,5171.354 "
         transform="translate(-107.74507,-4056.293)"
         id="polygon727-1-2-2-1-2"
         style="fill:none;fill-opacity:1;stroke:#ecfcff;stroke-width:35.7678;stroke-miterlimit:3.85;stroke-dasharray:none;stroke-opacity:1" />
      <polygon
         points="756.726,5310.366 786.162,5280.926 781.259,5228.597 807.423,5182.804 792.703,5138.648 820.507,5130.47 828.684,5140.286 869.57,5174.626 894.096,5156.638 948.07,5171.354 1018.388,5215.51 1052.734,5205.699 1067.452,5253.125 1082.168,5249.853 1150.855,5284.198 1203.189,5259.667 1227.72,5329.992 1191.739,5379.049 1188.468,5436.292 1154.125,5441.198 1155.762,5455.916 1136.134,5477.176 1149.221,5495.164 1114.878,5521.332 1064.181,5572.027 1064.181,5593.291 1020.027,5572.027 969.325,5545.859 957.881,5578.57 970.963,5611.278 907.183,5634.174 943.16,5666.88 943.16,5742.108 934.984,5784.625 915.361,5773.18 907.183,5809.159 851.578,5805.888 828.684,5810.794 807.423,5786.264 791.07,5753.557 776.35,5670.151 753.456,5653.798 730.558,5583.474 746.915,5549.134 782.892,5524.602 715.841,5511.519 709.3,5508.25 699.489,5526.233 674.956,5529.507 655.333,5509.884 665.145,5503.34 661.875,5483.717 619.352,5441.198 591.551,5429.75 593.188,5392.134 619.352,5403.583 647.155,5395.407 668.415,5351.25 676.591,5331.624 655.333,5315.27 697.852,5253.125 702.759,5222.055 720.746,5241.678 707.664,5285.835 "
         transform="translate(-107.74507,-4056.293)"
         id="polygon729-6-0-4-7-7"
         style="fill:none;fill-opacity:1;stroke:#ecfcff;stroke-width:35.7678;stroke-miterlimit:3.85;stroke-dasharray:none;stroke-opacity:1" />
      <polygon
         points="413.295,5365.966 328.254,5328.353 334.796,5253.125 289.003,5226.96 284.099,5192.617 287.37,5132.108 303.724,5081.412 347.88,5061.787 377.314,5030.713 410.027,5056.879 475.437,5074.871 477.074,5042.162 450.908,5001.274 499.97,4993.098 571.927,5035.618 656.967,5068.33 696.218,5097.764 712.571,5105.942 737.103,5148.46 792.703,5138.648 807.423,5182.804 781.259,5228.597 786.162,5280.926 756.726,5310.366 707.664,5285.835 720.746,5241.678 702.759,5222.055 697.852,5253.125 655.333,5315.27 676.591,5331.624 668.415,5351.25 647.155,5395.407 619.352,5403.583 593.188,5392.134 591.551,5429.75 619.352,5441.198 661.875,5483.717 665.145,5503.34 655.333,5509.884 674.956,5529.507 699.489,5526.233 709.3,5508.25 715.841,5511.519 782.892,5524.602 746.915,5549.134 730.558,5583.474 753.456,5653.798 776.35,5670.151 791.07,5753.557 759.997,5766.639 745.279,5760.097 733.832,5781.355 670.049,5771.544 658.604,5796.078 629.164,5818.97 573.564,5846.773 544.125,5850.042 495.065,5833.689 478.707,5778.085 498.335,5643.986 485.249,5576.931 462.355,5555.675 444.364,5509.884 382.223,5444.466 387.127,5428.113 "
         transform="translate(-107.74507,-4056.293)"
         id="polygon731-8-8-9-9-2"
         style="fill:none;fill-opacity:1;stroke:#ecfcff;stroke-width:35.7678;stroke-miterlimit:3.85;stroke-dasharray:none;stroke-opacity:1" />
      <polygon
         points="421.47,6103.532 359.325,6136.237 338.069,6134.603 328.254,6069.187 342.972,6046.292 333.159,6021.76 387.127,5972.699 419.836,5923.638 436.19,5882.753 495.065,5833.689 544.125,5850.042 573.564,5846.773 629.164,5818.97 658.604,5796.078 670.049,5771.544 733.832,5781.355 745.279,5760.097 759.997,5766.639 791.07,5753.557 807.423,5786.264 795.974,5796.078 753.456,5796.078 755.089,5876.212 777.987,5889.293 777.987,5935.084 756.726,5951.436 789.433,5971.063 848.308,5977.606 858.119,6016.854 885.923,6036.476 827.047,6049.563 820.507,6067.551 781.259,6070.819 719.112,6033.209 676.591,6075.728 630.802,6075.728 614.448,6057.74 589.917,6064.278 588.28,6075.728 588.28,6093.718 545.761,6139.506 506.51,6114.978 465.627,6149.319 429.648,6119.886 429.648,6119.817 "
         transform="translate(-107.74507,-4056.293)"
         id="polygon733-6-0-4-2-5"
         style="fill:none;fill-opacity:1;stroke:#ecfcff;stroke-width:35.7678;stroke-miterlimit:3.85;stroke-dasharray:none;stroke-opacity:1" />
      <polygon
         points="848.308,5977.606 789.433,5971.063 756.726,5951.436 777.987,5935.084 777.987,5889.293 755.089,5876.212 753.456,5796.078 795.974,5796.078 807.423,5786.264 828.684,5810.794 851.578,5805.888 907.183,5809.159 926.807,5825.51 928.44,5882.753 972.596,5902.375 961.152,5922.001 884.285,5974.334 "
         transform="translate(-107.74507,-4056.293)"
         id="polygon735-8-5-4-4-3"
         style="fill:none;fill-opacity:1;stroke:#ecfcff;stroke-width:35.7678;stroke-miterlimit:3.85;stroke-dasharray:none;stroke-opacity:1" />
      <polygon
         points="936.619,6702.085 916.994,6700.449 884.285,6698.81 843.402,6711.895 843.402,6693.909 828.684,6675.915 807.423,6674.286 786.162,6602.325 769.81,6602.325 753.456,6595.781 722.382,6504.205 740.374,6473.127 714.205,6453.502 701.122,6420.796 724.017,6373.372 737.103,6353.747 771.445,6339.029 802.515,6350.472 794.341,6376.638 809.058,6397.9 881.015,6392.994 892.463,6402.802 959.514,6414.255 1008.577,6373.372 1000.398,6335.753 1021.659,6339.029 1044.553,6383.179 1065.815,6383.179 1085.438,6399.47 1085.438,6464.951 1072.356,6489.483 1044.553,6538.545 1091.98,6594.146 1116.511,6587.602 1155.762,6617.042 1152.491,6687.368 1162.304,6706.993 1214.634,6703.716 1219.542,6726.615 1258.789,6742.97 1262.06,6770.767 1222.812,6780.583 1173.75,6760.959 1139.406,6762.593 1093.618,6788.759 1080.534,6782.218 1065.815,6792.028 1070.722,6813.289 1034.741,6836.185 1002.035,6891.792 936.619,6863.989 948.07,6844.364 941.529,6831.283 918.629,6829.645 907.183,6803.479 939.889,6777.314 "
         transform="translate(-107.74507,-4056.293)"
         id="polygon1363-9-2-7-8-1"
         style="fill:none;fill-opacity:1;stroke:#ecfcff;stroke-width:35.7678;stroke-miterlimit:3.85;stroke-dasharray:none;stroke-opacity:1" />
      <polygon
         points="593.188,7501.792 596.459,7482.165 552.302,7423.292 573.564,7295.729 516.323,7222.136 550.666,7205.788 585.008,7168.168 578.468,7161.628 562.114,7171.444 571.927,7119.105 625.894,7061.872 627.531,7047.15 634.072,7032.431 681.498,7047.15 702.759,7065.136 756.726,7063.508 771.445,7061.872 773.079,7025.891 792.703,7006.264 782.892,6980.1 818.873,6953.938 812.328,6916.319 809.058,6899.969 864.662,6870.528 900.641,6895.057 925.17,6867.255 918.629,6829.645 941.529,6831.283 948.07,6844.364 936.619,6863.989 1002.035,6891.792 1034.741,6836.185 1070.722,6813.289 1065.815,6792.028 1080.534,6782.218 1093.618,6788.759 1100.157,6839.454 1141.042,6870.528 1121.419,6898.333 1077.264,6927.763 1093.618,6940.854 1088.71,7017.712 1118.148,7027.528 1132.864,7047.15 1100.157,7092.939 1109.97,7127.285 1136.134,7140.366 1142.68,7151.818 1144.314,7189.431 1127.961,7199.249 1093.618,7199.249 1098.521,7230.317 1114.878,7240.128 1109.97,7292.459 1078.897,7303.907 1073.992,7312.083 1060.911,7313.721 1018.388,7284.283 1008.577,7253.209 974.235,7261.384 948.07,7287.554 970.963,7303.907 946.43,7330.071 962.784,7346.426 974.235,7339.885 980.776,7390.584 969.325,7408.575 984.044,7439.642 1002.035,7446.183 998.764,7460.903 995.493,7460.903 931.711,7470.716 892.463,7498.52 882.654,7457.634 866.298,7438.011 853.213,7444.553 831.956,7477.261 817.237,7464.175 823.779,7433.101 786.162,7415.115 777.987,7423.292 738.737,7439.642 728.925,7434.739 697.852,7460.903 676.591,7482.165 640.614,7480.528 653.696,7444.553 640.614,7426.558 612.811,7431.47 606.27,7397.125 588.28,7402.034 578.468,7403.668 594.821,7457.634 604.633,7487.069 614.448,7487.069 614.448,7503.424 "
         transform="translate(-107.74507,-4056.293)"
         id="polygon1369-4-8-9-3-5"
         style="fill:none;fill-opacity:1;stroke:#ecfcff;stroke-width:35.7678;stroke-miterlimit:3.85;stroke-dasharray:none;stroke-opacity:1" />
      <polygon
         points="684.769,6265.435 722.382,6204.927 745.279,6190.205 784.529,6198.379 777.987,6146.047 751.82,6150.958 745.279,6093.718 750.185,6065.917 781.259,6070.819 820.507,6067.551 827.047,6049.563 885.923,6036.476 858.119,6016.854 848.308,5977.606 884.285,5974.334 961.152,5922.001 972.596,5902.375 980.776,5908.92 998.764,5943.26 988.953,6031.571 957.881,6064.278 951.338,6080.635 980.776,6083.907 988.953,6144.417 1038.013,6147.685 1049.461,6157.498 1051.094,6211.468 1090.347,6188.572 1106.7,6188.572 1108.336,6244.174 1134.502,6278.518 1101.795,6311.225 1093.618,6312.862 1073.992,6324.306 1082.168,6348.834 1057.636,6368.467 1054.366,6370.097 1049.461,6348.834 1034.741,6332.488 1021.659,6339.029 1000.398,6335.753 1008.577,6373.372 959.514,6414.255 892.463,6402.802 881.015,6392.994 809.058,6397.9 794.341,6376.638 802.515,6350.472 771.445,6339.029 737.103,6353.747 724.017,6373.372 704.392,6358.653 722.382,6339.029 692.946,6285.059 "
         transform="translate(-107.74507,-4056.293)"
         id="polygon1371-2-4-5-9-5"
         style="fill:none;fill-opacity:1;stroke:#ecfcff;stroke-width:35.7678;stroke-miterlimit:3.85;stroke-dasharray:none;stroke-opacity:1" />
      <polygon
         points="513.051,6424.066 475.437,6433.88 431.282,6492.752 388.763,6520.553 374.044,6569.618 320.076,6546.717 323.346,6536.912 251.39,6509.108 249.756,6487.846 264.472,6432.244 205.6,6435.516 195.785,6425.7 133.643,6437.146 110.745,6314.492 158.171,6293.238 179.431,6342.294 195.785,6342.294 212.142,6325.948 241.579,6271.976 300.453,6237.633 329.889,6213.098 377.314,6180.391 406.754,6177.124 428.01,6160.768 393.668,6134.603 429.648,6119.886 465.627,6149.319 506.51,6114.978 545.761,6139.506 606.27,6221.28 599.729,6255.62 634.072,6280.146 692.946,6285.059 722.382,6339.029 704.392,6358.653 609.541,6384.815 598.091,6396.261 550.666,6397.9 539.22,6379.912 "
         transform="translate(-107.74507,-4056.293)"
         id="polygon1385-9-0-5-6-6"
         style="fill:none;fill-opacity:1;stroke:#ecfcff;stroke-width:35.7678;stroke-miterlimit:3.85;stroke-dasharray:none;stroke-opacity:1" />
      <polygon
         points="455.813,6636.667 457.45,6615.406 436.19,6582.7 436.19,6567.981 462.355,6541.815 465.627,6518.917 431.282,6492.752 388.763,6520.553 374.044,6569.618 320.076,6546.717 305.359,6577.795 316.806,6612.138 300.453,6651.385 284.099,6643.208 244.849,6649.75 225.225,6720.074 256.297,6854.172 329.889,6850.908 362.595,6924.499 396.939,6971.923 377.314,6980.1 390.397,6996.453 480.344,7014.445 470.533,7035.708 380.586,7115.837 380.586,7143.64 423.109,7218.87 470.533,7207.417 516.323,7222.136 550.666,7205.788 585.008,7168.168 578.468,7161.628 562.114,7171.444 571.927,7119.105 625.894,7061.872 627.531,7047.15 622.624,7060.236 599.729,7027.528 624.261,6994.823 598.091,6993.184 591.551,6950.663 549.032,6975.192 503.24,6939.215 501.606,6917.958 524.5,6893.418 547.395,6837.823 586.645,6806.745 537.583,6783.855 527.771,6757.683 565.385,6715.169 568.655,6687.368 544.125,6653.021 552.302,6630.125 531.041,6602.325 460.721,6646.483 "
         transform="translate(-107.74507,-4056.293)"
         id="polygon1387-0-5-6-4-1"
         style="fill:none;fill-opacity:1;stroke:#ecfcff;stroke-width:35.7678;stroke-miterlimit:3.85;stroke-dasharray:none;stroke-opacity:1" />
    </g>
    <path
       d="m 39.000367,-171.64571 c 3.706266,11.04729 15.667149,17.00057 26.718335,13.28916 3.342806,-1.12187 6.219957,-3.00051 8.50064,-5.38225 v 0 l 29.695538,24.23964 c 1.8179,1.48221 4.51168,1.1018 5.84875,-0.82988 v 0 c 1.24871,-1.80382 0.82103,-4.274 -0.96394,-5.55306 l -31.244298,-22.43552 c 2.686838,-4.96362 3.388828,-10.98452 1.452434,-16.7574 -3.706247,-11.04729 -15.667119,-17.00056 -26.718318,-13.28914 -11.051213,3.71144 -17.000572,15.66714 -13.289161,26.71835 v 0 l 5e-6,-2e-5 z m 4.339687,-1.45482 c -2.901355,-8.65282 1.756629,-18.01859 10.40946,-20.91992 8.652814,-2.90136 18.018573,1.75661 20.919903,10.40946 2.901376,8.65281 -1.756609,18.01858 -10.409428,20.91991 -8.652843,2.90134 -18.018593,-1.75663 -20.919935,-10.40945 z"
       fill="#6c63ff"
       id="path56247-1-7-5"
       style="fill:#c8c8d6;fill-opacity:1;stroke-width:0.457222;filter:url(#filter59267-0-6-8)"
       transform="matrix(0.78157035,0,0,0.78157035,-4.170919,254.34268)" />
  </g>
</svg>
