<?xml version="1.0" encoding="UTF-8" standalone="no"?>
<!-- Created with Inkscape (http://www.inkscape.org/) -->

<svg
   width="33.800522mm"
   height="33.833237mm"
   viewBox="0 0 33.800522 33.833237"
   version="1.1"
   id="svg35666"
   xml:space="preserve"
   xmlns:inkscape="http://www.inkscape.org/namespaces/inkscape"
   xmlns:sodipodi="http://sodipodi.sourceforge.net/DTD/sodipodi-0.dtd"
   xmlns="http://www.w3.org/2000/svg"
   xmlns:svg="http://www.w3.org/2000/svg"><sodipodi:namedview
     id="namedview35668"
     pagecolor="#ffffff"
     bordercolor="#666666"
     borderopacity="1.0"
     inkscape:showpageshadow="2"
     inkscape:pageopacity="0.0"
     inkscape:pagecheckerboard="0"
     inkscape:deskcolor="#d1d1d1"
     inkscape:document-units="mm"
     showgrid="false" /><defs
     id="defs35663" /><g
     inkscape:label="Layer 1"
     inkscape:groupmode="layer"
     id="layer1"
     transform="translate(-140.97272,-197.29234)"><path
       style="fill:#000000;stroke-width:0.0661458"
       d="m 163.68325,230.96382 -0.0739,-0.16212 -0.17277,-0.0337 c -0.095,-0.0185 -0.84249,-0.10985 -1.66104,-0.20292 -0.81856,-0.0931 -1.72375,-0.19843 -2.01154,-0.23413 l -0.52325,-0.0649 -0.35144,-0.16089 -0.35145,-0.1609 -0.13378,-0.21943 c -0.16856,-0.27648 -0.16903,-0.46966 -0.002,-0.81475 l 0.13229,-0.27329 0.26723,-0.15019 0.26723,-0.15019 0.44383,-0.0439 0.44384,-0.0439 -1.86525,-1.34823 -1.86525,-1.34823 -0.11006,-0.23194 -0.11007,-0.23195 0.0346,-0.25789 c 0.019,-0.14184 0.0844,-0.33396 0.14535,-0.42692 l 0.11075,-0.16904 0.29192,-0.12913 0.29192,-0.12913 0.22482,0.0422 0.22482,0.0422 0.67946,0.48703 c 0.64614,0.46315 0.78944,0.52427 0.78944,0.33672 0,-0.0453 0.10591,-0.18492 0.23536,-0.31029 l 0.23535,-0.22795 0.42278,0.001 0.42278,0.001 0.034,-0.13534 c 0.0187,-0.0744 0.12631,-0.22382 0.23918,-0.33195 l 0.20521,-0.19661 h 0.42258 0.42259 l 0.0361,-0.14371 c 0.0198,-0.079 0.12653,-0.23419 0.2371,-0.34475 l 0.20104,-0.20104 0.22376,-0.042 c 0.12307,-0.0231 0.31164,-0.0227 0.41905,9.2e-4 l 0.19528,0.0429 0.88476,0.63213 c 1.34402,0.96025 1.67975,1.23568 2.49935,2.0504 l 0.7547,0.7502 h 0.12502 c 0.32815,0 0.64762,0.32998 0.64762,0.66892 0,0.2072 -0.0653,0.30582 -1.47206,2.22496 l -1.32129,1.80248 h -0.55605 -0.55604 z m 1.41003,-2.48176 1.30026,-1.77743 -0.50651,-0.52093 c -0.69984,-0.71976 -1.2009,-1.13815 -2.38807,-1.99408 l -1.02168,-0.7366 h -0.13067 c -0.0719,0 -0.1851,0.0493 -0.25163,0.10947 l -0.12097,0.10947 v 0.18972 0.18972 l 0.79185,0.57724 0.79185,0.57724 0.0409,0.1205 0.0409,0.12049 -0.11911,0.13163 -0.11912,0.13162 -0.11296,-0.0295 c -0.0621,-0.0162 -0.57181,-0.36038 -1.13262,-0.76475 l -1.01966,-0.73521 h -0.17261 -0.17261 l -0.10297,0.14701 c -0.22501,0.32126 -0.19159,0.36024 1.11798,1.30391 0.50781,0.36592 0.94811,0.70967 0.97845,0.76387 l 0.0551,0.0986 -0.0713,0.13317 -0.0713,0.13317 h -0.12227 -0.12227 l -1.32704,-0.95911 -1.32704,-0.95912 h -0.16741 -0.16741 l -0.11171,0.17049 -0.11171,0.17049 0.0606,0.15815 0.0606,0.15815 1.28985,0.93084 c 0.70941,0.51196 1.30843,0.98171 1.33114,1.04389 l 0.0413,0.11304 -0.0602,0.11576 -0.0602,0.11575 -0.1465,-0.002 -0.1465,-0.002 -2.22695,-1.61263 c -1.22482,-0.88695 -2.28427,-1.63082 -2.35432,-1.65306 l -0.12737,-0.0404 -0.17576,0.13825 -0.17575,0.13825 v 0.14903 0.14904 l 0.14882,0.13416 c 0.0819,0.0738 1.10468,0.82257 2.27293,1.66396 1.16825,0.84139 2.16368,1.57749 2.21205,1.63578 l 0.0879,0.10597 -0.0703,0.11021 -0.0703,0.11022 -0.85248,-0.0241 -0.85248,-0.0241 -0.2473,0.10333 -0.2473,0.10333 -0.076,0.16684 -0.076,0.16684 0.0876,0.10554 c 0.0482,0.0581 0.17376,0.1501 0.27908,0.20456 l 0.19149,0.099 1.13625,0.12952 c 0.62493,0.0712 1.56784,0.18481 2.09536,0.25238 0.52751,0.0676 1.01864,0.125 1.0914,0.12762 l 0.13229,0.005 1.30026,-1.77743 z m -11.01458,1.51278 c -0.21326,-0.0311 -0.54718,-0.12961 -0.74202,-0.21882 l -0.35427,-0.16219 -0.32409,-0.30314 -0.32408,-0.30314 -0.20135,-0.37948 -0.20135,-0.37948 -0.0754,-0.39687 -0.0754,-0.39688 0.0199,-8.13594 0.0199,-8.13593 0.14868,-0.3638 c 0.27557,-0.6743 0.86374,-1.26247 1.53804,-1.53804 l 0.3638,-0.14868 3.82491,-0.0191 3.82491,-0.0191 0.40679,0.10422 c 0.51296,0.13141 0.87095,0.34051 1.2619,0.73706 l 0.30756,0.31197 0.16385,0.33543 c 0.0901,0.18448 0.19404,0.49931 0.23095,0.69961 l 0.0671,0.36419 -0.0169,5.77356 -0.0169,5.77356 -0.23151,-0.17078 -0.23151,-0.17078 -0.0335,-5.76853 -0.0335,-5.76853 -0.12146,-0.31381 -0.12146,-0.31381 -0.2947,-0.32778 -0.2947,-0.32778 -0.34735,-0.16994 -0.34735,-0.16994 -0.42673,-0.0393 -0.42673,-0.0393 -0.12276,0.35476 c -0.0675,0.19512 -0.198,0.45474 -0.28997,0.57694 l -0.16723,0.22217 -0.27226,0.12364 -0.27226,0.12364 -2.00304,10e-4 -2.00303,0.001 -0.21285,-0.0907 c -0.29668,-0.12641 -0.46828,-0.33291 -0.71504,-0.86049 l -0.21287,-0.45509 -0.433,0.0404 -0.43301,0.0404 -0.34735,0.16994 -0.34734,0.16994 -0.29613,0.32937 -0.29613,0.32937 -0.12042,0.34529 -0.12041,0.34529 v 8.23656 8.23655 l 0.21826,0.44336 0.21827,0.44336 0.28293,0.23183 c 0.15561,0.12751 0.39969,0.28456 0.54241,0.349 l 0.25948,0.11716 1.94099,0.0331 1.941,0.0331 0.092,0.26459 c 0.0506,0.14552 0.0924,0.27202 0.093,0.28112 0.003,0.0444 -3.52235,-0.007 -3.85942,-0.0562 z m 5.91209,-19.61682 c 0.18781,-0.11095 0.27078,-0.23086 0.39272,-0.56758 l 0.0659,-0.1819 h -2.54498 c -1.39974,0 -2.54498,0.0161 -2.54498,0.0357 0,0.096 0.28176,0.57045 0.40941,0.68937 l 0.1447,0.13482 h 1.94516 1.94516 z m -3.90346,9.53655 -0.082,-0.0989 0.0337,-0.12903 c 0.0473,-0.18104 3.09479,-4.3753 3.21154,-4.4201 0.0526,-0.0202 0.14365,-0.006 0.20237,0.0307 l 0.10676,0.0673 v 0.14348 0.14347 l -1.57784,2.18096 -1.57784,2.18096 h -0.11732 c -0.0645,0 -0.15423,-0.0445 -0.19936,-0.0989 z m 1.96754,-0.17102 -0.11575,-0.0674 v -0.13016 -0.13017 l 0.96323,-1.32175 0.96322,-1.32176 h 0.11495 c 0.14424,0 0.2737,0.12566 0.2737,0.26565 0,0.10579 -1.80148,2.63277 -1.94367,2.72644 -0.0946,0.0623 -0.11598,0.0605 -0.25568,-0.0208 z m -2.48377,-1.33084 c -0.14836,-0.14836 -0.0737,-0.2838 0.86782,-1.57427 l 0.94105,-1.28985 0.17805,-0.0207 0.17805,-0.0207 0.0428,0.17039 0.0428,0.1704 -0.0625,0.0818 c -0.0344,0.045 -0.41504,0.57296 -0.84588,1.17323 -1.0597,1.47644 -1.11822,1.53355 -1.34208,1.30969 z m -10.72388,-0.84814 c -0.48642,-0.10258 -0.93956,-0.2668 -1.42711,-0.5172 l -0.46302,-0.23781 -0.59742,-0.59741 -0.59741,-0.59741 -0.23987,-0.46302 c -0.13193,-0.25466 -0.30958,-0.68627 -0.39477,-0.95912 l -0.15491,-0.49609 v -0.82682 -0.82683 l 0.15491,-0.49609 c 0.0852,-0.27285 0.26284,-0.70445 0.39477,-0.95912 l 0.23987,-0.46302 0.59741,-0.59741 0.59742,-0.59741 0.46302,-0.23987 c 0.25466,-0.13193 0.68626,-0.30958 0.95911,-0.39478 l 0.4961,-0.1549 h 0.82682 0.82682 l 0.4961,0.1549 c 0.27285,0.0852 0.70445,0.26285 0.95911,0.39478 l 0.46302,0.23987 0.59741,0.59741 0.59742,0.59741 0.23987,0.46302 c 0.13193,0.25467 0.30957,0.68627 0.39477,0.95912 l 0.15491,0.49609 -0.004,0.8599 -0.004,0.85989 -0.16867,0.50712 c -0.0928,0.27892 -0.28162,0.71052 -0.41968,0.95912 l -0.25101,0.45199 -0.53498,0.53499 -0.53498,0.53498 -0.452,0.25101 c -0.2486,0.13805 -0.6802,0.32465 -0.95911,0.41467 l -0.50712,0.16366 -0.72761,0.023 -0.7276,0.0231 z m 2.16015,-0.68248 c 1.4953,-0.50643 2.51917,-1.67052 2.83343,-3.22148 l 0.11212,-0.5533 -0.0417,-0.54204 -0.0417,-0.54203 -0.16083,-0.47537 c -0.4295,-1.2695 -1.38599,-2.22744 -2.69464,-2.69872 l -0.48516,-0.17472 h -0.82682 -0.82682 l -0.48516,0.17472 c -1.30662,0.47055 -2.23801,1.40193 -2.70856,2.70856 l -0.17472,0.48515 v 0.82683 0.82682 l 0.17472,0.48515 c 0.67261,1.86768 2.28168,2.96937 4.21898,2.88864 l 0.62838,-0.0262 z m -2.32024,-1.48753 -0.10947,-0.12097 v -0.63971 -0.63971 h -0.65121 -0.6512 l -0.10947,-0.12097 -0.10947,-0.12096 v -0.89405 -0.89404 l 0.12096,-0.10947 0.12096,-0.10947 h 0.63972 0.63971 v -0.65121 -0.65121 l 0.12096,-0.10947 0.12097,-0.10947 h 0.89404 0.89405 l 0.10947,0.12097 0.10947,0.12096 v 0.63971 0.63972 h 0.65121 0.6512 l 0.10947,0.12096 0.10947,0.12096 v 0.89405 0.89404 l -0.12096,0.10947 -0.12096,0.10948 h -0.63972 -0.63971 v 0.6512 0.65121 l -0.12096,0.10947 -0.12097,0.10947 h -0.89404 -0.89405 z m 1.61032,-1.16888 V 213.465 h 0.76068 0.76068 v -0.59531 -0.59532 h -0.76068 -0.76068 v -0.76067 -0.76068 h -0.59531 -0.59531 v 0.76068 0.76067 h -0.76068 -0.76068 v 0.59532 0.59531 h 0.76068 0.76068 v 0.76068 0.76067 h 0.59531 0.59531 z m 22.89143,3.0743 c -0.48641,-0.10257 -0.93955,-0.2668 -1.42711,-0.5172 l -0.46302,-0.2378 -0.59741,-0.59741 -0.59741,-0.59742 -0.23987,-0.46302 c -0.13193,-0.25466 -0.30958,-0.68626 -0.39478,-0.95911 l -0.1549,-0.49609 v -0.82683 -0.82682 l 0.1549,-0.49609 c 0.0852,-0.27286 0.26285,-0.70446 0.39478,-0.95912 l 0.23987,-0.46302 0.59741,-0.59741 0.59741,-0.59742 0.46302,-0.23987 c 0.25467,-0.13192 0.68627,-0.30957 0.95912,-0.39477 l 0.49609,-0.1549 h 0.82683 0.82682 l 0.49609,0.1549 c 0.27285,0.0852 0.70445,0.26285 0.95912,0.39477 l 0.46302,0.23987 0.59741,0.59742 0.59741,0.59741 0.23987,0.46302 c 0.13193,0.25466 0.30958,0.68626 0.39478,0.95912 l 0.1549,0.49609 -0.004,0.8599 -0.004,0.85989 -0.16867,0.50712 c -0.0928,0.27891 -0.28163,0.71051 -0.41968,0.95911 l -0.25101,0.452 -0.53498,0.53498 -0.53499,0.53499 -0.45199,0.251 c -0.2486,0.13806 -0.6802,0.32466 -0.95912,0.41467 l -0.50711,0.16366 -0.72761,0.023 -0.7276,0.0231 -0.29269,-0.0617 z m 1.70107,-0.56559 0.50984,-0.10405 0.46303,-0.22242 c 0.25466,-0.12233 0.64161,-0.36686 0.85989,-0.5434 l 0.39688,-0.32098 0.34301,-0.47836 c 0.42908,-0.59839 0.8946,-1.85783 0.76873,-2.07974 -0.0155,-0.0273 -0.35369,-0.0496 -0.75157,-0.0496 h -0.72343 l -0.4685,0.42995 -0.46851,0.42995 h -0.15845 -0.15846 l -0.10262,-0.19844 c -0.14931,-0.28875 -0.16379,-0.27373 -0.57368,0.59531 l -0.37437,0.79375 h -0.12972 c -0.0713,0 -0.17018,-0.0488 -0.21963,-0.10833 l -0.0899,-0.10832 -0.0444,-0.86733 c -0.0244,-0.47702 -0.0471,-1.08907 -0.0505,-1.36011 l -0.006,-0.49278 -0.0538,0.0628 c -0.0296,0.0346 -0.10545,0.23371 -0.16855,0.44255 l -0.11473,0.37971 -0.13123,0.0702 -0.13123,0.0702 -0.4281,-0.41109 c -0.23546,-0.2261 -0.43921,-0.39881 -0.45277,-0.3838 -0.0136,0.015 -0.088,0.15279 -0.16531,0.30619 -0.0774,0.1534 -0.19811,0.30967 -0.26836,0.34727 l -0.12773,0.0684 h -1.02107 -1.02107 l 0.0582,0.31419 c 0.44133,2.38153 2.65951,3.89671 5.00417,3.41822 z m 0.34319,-4.22851 h 0.16407 l 0.15508,0.28112 c 0.19387,0.35145 0.19881,0.35107 0.64125,-0.0496 l 0.36521,-0.33072 h 0.86325 0.86324 l -0.0453,-0.3142 c -0.0249,-0.1728 -0.11701,-0.54382 -0.20462,-0.82447 l -0.15929,-0.51028 -0.33186,-0.49617 -0.33185,-0.49617 -0.32559,-0.28482 c -0.45109,-0.3946 -0.96112,-0.69185 -1.52147,-0.88672 l -0.47572,-0.16544 -0.57167,-0.0359 -0.57168,-0.0359 -0.39688,0.0744 c -0.21828,0.0409 -0.59857,0.15142 -0.84508,0.24554 l -0.44821,0.17112 -0.4753,0.34083 -0.47531,0.34082 -0.32098,0.39688 c -0.17654,0.21828 -0.42107,0.60523 -0.5434,0.85989 l -0.22242,0.46302 -0.10405,0.50984 c -0.0572,0.28042 -0.10405,0.54087 -0.10405,0.57878 v 0.0689 h 0.97799 0.97799 l 0.21202,-0.42995 0.21202,-0.42995 h 0.14752 0.14753 l 0.36997,0.3661 0.36996,0.36611 0.31069,-0.9877 0.31068,-0.98769 0.1078,-0.0414 c 0.0593,-0.0228 0.16107,-0.0245 0.22618,-0.004 l 0.11837,0.0376 0.0338,0.17891 c 0.0186,0.0984 0.0514,0.67003 0.073,1.27031 0.0216,0.60027 0.0571,1.25193 0.0789,1.44812 l 0.0396,0.35672 0.27232,-0.52208 0.27232,-0.52209 z m -14.21509,-5.78923 c -0.48642,-0.10258 -0.93955,-0.2668 -1.42711,-0.5172 l -0.46302,-0.2378 -0.59741,-0.59742 -0.59742,-0.59741 -0.23987,-0.46302 c -0.13192,-0.25466 -0.30957,-0.68626 -0.39477,-0.95911 l -0.1549,-0.4961 v -0.82682 -0.82682 l 0.1549,-0.4961 c 0.0852,-0.27285 0.26285,-0.70445 0.39477,-0.95911 l 0.23987,-0.46302 0.59742,-0.59742 0.59741,-0.59741 0.46302,-0.23987 c 0.25466,-0.13193 0.68626,-0.30958 0.95912,-0.39477 l 0.49609,-0.15491 h 0.82682 0.82683 l 0.49609,0.15491 c 0.27285,0.0852 0.70445,0.26284 0.95911,0.39477 l 0.46302,0.23987 0.59742,0.59741 0.59741,0.59742 0.23987,0.46302 c 0.13193,0.25466 0.30958,0.68626 0.39478,0.95911 l 0.1549,0.4961 -0.004,0.85989 -0.004,0.8599 -0.16868,0.50712 c -0.0928,0.27891 -0.28162,0.71051 -0.41968,0.95911 l -0.251,0.452 -0.53499,0.53498 -0.53498,0.53498 -0.452,0.25101 c -0.24859,0.13805 -0.6802,0.32465 -0.95911,0.41467 l -0.50712,0.16366 -0.7276,0.0231 -0.72761,0.023 -0.29268,-0.0617 z m 2.16015,-0.68248 c 1.4953,-0.50643 2.51917,-1.67052 2.83344,-3.22148 l 0.11211,-0.5533 -0.0417,-0.54203 -0.0417,-0.54204 -0.16082,-0.47536 c -0.42951,-1.26951 -1.386,-2.22745 -2.69465,-2.69873 l -0.48515,-0.17472 h -0.82683 -0.82682 l -0.48515,0.17472 c -1.30663,0.47055 -2.23801,1.40194 -2.70857,2.70856 l -0.17472,0.48516 v 0.82682 0.82682 l 0.17472,0.48516 c 0.67261,1.86767 2.28168,2.96937 4.21898,2.88864 l 0.62839,-0.0262 z m -1.42779,-1.44233 -0.22177,-0.0638 -0.30922,-0.31054 -0.30922,-0.31053 -0.0809,-0.27226 c -0.0445,-0.14974 -0.0808,-0.45266 -0.0808,-0.67315 v -0.40089 l -0.35434,-0.16222 -0.35434,-0.16222 -0.18257,-0.23937 c -0.10042,-0.13165 -0.22243,-0.35105 -0.27114,-0.48755 l -0.0886,-0.24818 -0.003,-0.86833 -0.003,-0.86833 0.0941,-0.0781 0.0941,-0.0781 0.31256,0.0204 0.31255,0.0204 0.0726,0.11575 0.0726,0.11576 -0.0726,0.11576 c -0.0399,0.0637 -0.13907,0.1256 -0.22035,0.13764 l -0.14778,0.0219 0.0222,0.71764 0.0222,0.71764 0.13838,0.18652 c 0.0761,0.10258 0.23981,0.25611 0.3638,0.34118 l 0.22543,0.15467 0.27507,-0.0301 0.27508,-0.0301 0.19633,-0.1398 c 0.10797,-0.0769 0.24464,-0.24162 0.30369,-0.36607 l 0.10738,-0.22627 v -0.6634 -0.6634 l -0.14207,-0.0211 c -0.0781,-0.0116 -0.17473,-0.0732 -0.21464,-0.13689 l -0.0726,-0.11576 0.0725,-0.11576 0.0725,-0.11575 0.25158,-0.0211 c 0.13837,-0.0116 0.32139,-0.004 0.40671,0.0178 l 0.15513,0.0389 -0.001,0.97439 -0.001,0.97439 -0.1205,0.26459 -0.1205,0.26458 -0.27751,0.25022 -0.27752,0.25022 -0.19584,0.0392 -0.19584,0.0392 10e-4,0.43821 0.001,0.43822 0.14774,0.2577 0.14774,0.25769 0.23047,0.12265 c 0.29266,0.15572 0.56984,0.1557 0.86032,-7e-5 l 0.22883,-0.12272 0.15047,-0.28456 0.15048,-0.28456 v -0.24639 -0.2464 l -0.2731,-0.2731 -0.27311,-0.27311 0.0344,-0.30496 0.0344,-0.30497 0.20693,-0.20692 0.20693,-0.20693 h 0.32818 0.32819 l 0.21624,0.21624 0.21625,0.21625 v 0.33454 0.33454 l -0.24805,0.22732 -0.24804,0.22732 -6.7e-4,0.3133 -6.6e-4,0.3133 -0.15618,0.33542 -0.15619,0.33541 -0.24376,0.20094 c -0.39543,0.32594 -0.90159,0.42458 -1.41722,0.27616 z"
       id="path35807" /></g></svg>
