<?xml version="1.0" encoding="UTF-8" standalone="no"?>
<!-- Created with Inkscape (http://www.inkscape.org/) -->

<svg
   width="132.9827mm"
   height="128.54674mm"
   viewBox="0 0 132.9827 128.54674"
   version="1.1"
   id="svg36091"
   xml:space="preserve"
   inkscape:version="1.2.2 (b0a8486541, 2022-12-01)"
   sodipodi:docname="proposal-figure-lean.svg"
   xmlns:inkscape="http://www.inkscape.org/namespaces/inkscape"
   xmlns:sodipodi="http://sodipodi.sourceforge.net/DTD/sodipodi-0.dtd"
   xmlns:xlink="http://www.w3.org/1999/xlink"
   xmlns="http://www.w3.org/2000/svg"
   xmlns:svg="http://www.w3.org/2000/svg"><sodipodi:namedview
     id="namedview36093"
     pagecolor="#ffffff"
     bordercolor="#666666"
     borderopacity="1.0"
     inkscape:showpageshadow="2"
     inkscape:pageopacity="0.0"
     inkscape:pagecheckerboard="0"
     inkscape:deskcolor="#d1d1d1"
     inkscape:document-units="mm"
     showgrid="false"
     inkscape:zoom="0.93806818"
     inkscape:cx="325.13628"
     inkscape:cy="454.12477"
     inkscape:window-width="2256"
     inkscape:window-height="1435"
     inkscape:window-x="0"
     inkscape:window-y="0"
     inkscape:window-maximized="1"
     inkscape:current-layer="layer3" /><defs
     id="defs36088"><marker
       style="overflow:visible"
       id="marker51291"
       refX="0"
       refY="0"
       orient="auto-start-reverse"
       inkscape:stockid="TriangleStart"
       markerWidth="5.3244081"
       markerHeight="6.155385"
       viewBox="0 0 5.3244081 6.1553851"
       inkscape:isstock="true"
       inkscape:collect="always"
       preserveAspectRatio="xMidYMid"><path
         transform="scale(0.5)"
         style="fill:context-stroke;fill-rule:evenodd;stroke:context-stroke;stroke-width:1pt"
         d="M 5.77,0 -2.88,5 V -5 Z"
         id="path51289" /></marker><marker
       style="overflow:visible"
       id="marker51137"
       refX="0"
       refY="0"
       orient="auto-start-reverse"
       inkscape:stockid="TriangleStart"
       markerWidth="5.3244081"
       markerHeight="6.155385"
       viewBox="0 0 5.3244081 6.1553851"
       inkscape:isstock="true"
       inkscape:collect="always"
       preserveAspectRatio="xMidYMid"><path
         transform="scale(0.5)"
         style="fill:context-stroke;fill-rule:evenodd;stroke:context-stroke;stroke-width:1pt"
         d="M 5.77,0 -2.88,5 V -5 Z"
         id="path51135" /></marker><marker
       style="overflow:visible"
       id="marker51007"
       refX="0"
       refY="0"
       orient="auto-start-reverse"
       inkscape:stockid="TriangleStart"
       markerWidth="5.3244081"
       markerHeight="6.155385"
       viewBox="0 0 5.3244081 6.1553851"
       inkscape:isstock="true"
       inkscape:collect="always"
       preserveAspectRatio="xMidYMid"><path
         transform="scale(0.5)"
         style="fill:context-stroke;fill-rule:evenodd;stroke:context-stroke;stroke-width:1pt"
         d="M 5.77,0 -2.88,5 V -5 Z"
         id="path51005" /></marker><marker
       style="overflow:visible"
       id="Arrow4"
       refX="0"
       refY="0"
       orient="auto-start-reverse"
       inkscape:stockid="Arrow4"
       markerWidth="5"
       markerHeight="6"
       viewBox="0 0 5 6"
       inkscape:isstock="true"
       inkscape:collect="always"
       preserveAspectRatio="xMidYMid"><path
         style="fill:context-stroke;fill-rule:evenodd;stroke:none"
         d="m 1,0 -3,3 h -2 l 3,-3 -3,-3 h 2 z"
         id="path1741" /></marker><marker
       style="overflow:visible"
       id="marker50869"
       refX="0"
       refY="0"
       orient="auto-start-reverse"
       inkscape:stockid="TriangleStart"
       markerWidth="5.3244081"
       markerHeight="6.155385"
       viewBox="0 0 5.3244081 6.1553851"
       inkscape:isstock="true"
       inkscape:collect="always"
       preserveAspectRatio="xMidYMid"><path
         transform="scale(0.5)"
         style="fill:context-stroke;fill-rule:evenodd;stroke:context-stroke;stroke-width:1pt"
         d="M 5.77,0 -2.88,5 V -5 Z"
         id="path50867" /></marker><marker
       style="overflow:visible"
       id="marker50787"
       refX="0"
       refY="0"
       orient="auto-start-reverse"
       inkscape:stockid="TriangleStart"
       markerWidth="5.3244081"
       markerHeight="6.155385"
       viewBox="0 0 5.3244081 6.1553851"
       inkscape:isstock="true"
       inkscape:collect="always"
       preserveAspectRatio="xMidYMid"><path
         transform="scale(0.5)"
         style="fill:context-stroke;fill-rule:evenodd;stroke:context-stroke;stroke-width:1pt"
         d="M 5.77,0 -2.88,5 V -5 Z"
         id="path50785" /></marker><marker
       style="overflow:visible"
       id="marker40927"
       refX="0"
       refY="0"
       orient="auto-start-reverse"
       inkscape:stockid="TriangleStart"
       markerWidth="5.3244081"
       markerHeight="6.155385"
       viewBox="0 0 5.3244081 6.1553851"
       inkscape:isstock="true"
       inkscape:collect="always"
       preserveAspectRatio="xMidYMid"><path
         transform="scale(0.5)"
         style="fill:context-stroke;fill-rule:evenodd;stroke:context-stroke;stroke-width:1pt"
         d="M 5.77,0 -2.88,5 V -5 Z"
         id="path40925" /></marker><marker
       style="overflow:visible"
       id="marker40519"
       refX="0"
       refY="0"
       orient="auto-start-reverse"
       inkscape:stockid="TriangleStart"
       markerWidth="5.3244081"
       markerHeight="6.155385"
       viewBox="0 0 5.3244081 6.1553851"
       inkscape:isstock="true"
       inkscape:collect="always"
       preserveAspectRatio="xMidYMid"><path
         transform="scale(0.5)"
         style="fill:context-stroke;fill-rule:evenodd;stroke:context-stroke;stroke-width:1pt"
         d="M 5.77,0 -2.88,5 V -5 Z"
         id="path40517" /></marker><marker
       style="overflow:visible"
       id="TriangleStart"
       refX="0"
       refY="0"
       orient="auto-start-reverse"
       inkscape:stockid="TriangleStart"
       markerWidth="5.3244081"
       markerHeight="6.155385"
       viewBox="0 0 5.3244081 6.1553851"
       inkscape:isstock="true"
       inkscape:collect="always"
       preserveAspectRatio="xMidYMid"><path
         transform="scale(0.5)"
         style="fill:context-stroke;fill-rule:evenodd;stroke:context-stroke;stroke-width:1pt"
         d="M 5.77,0 -2.88,5 V -5 Z"
         id="path135" /></marker><linearGradient
       inkscape:collect="always"
       id="linearGradient39098"><stop
         style="stop-color:#929999;stop-opacity:1;"
         offset="0"
         id="stop39094" /><stop
         style="stop-color:#5a5c4b;stop-opacity:1;"
         offset="0.99941051"
         id="stop39096" /></linearGradient><linearGradient
       inkscape:collect="always"
       id="linearGradient39059"><stop
         style="stop-color:#929999;stop-opacity:1;"
         offset="0"
         id="stop39055" /><stop
         style="stop-color:#5a5c72;stop-opacity:1;"
         offset="0.99941051"
         id="stop39057" /></linearGradient><linearGradient
       inkscape:collect="always"
       id="linearGradient39012"><stop
         style="stop-color:#929999;stop-opacity:1;"
         offset="0"
         id="stop39008" /><stop
         style="stop-color:#5a7172;stop-opacity:1;"
         offset="0.99941051"
         id="stop39010" /></linearGradient><linearGradient
       inkscape:collect="always"
       id="linearGradient38184"><stop
         style="stop-color:#929999;stop-opacity:1;"
         offset="0"
         id="stop38180" /><stop
         style="stop-color:#5a7199;stop-opacity:1;"
         offset="0.99941051"
         id="stop38182" /></linearGradient><linearGradient
       inkscape:collect="always"
       xlink:href="#linearGradient38184"
       id="linearGradient38186"
       x1="3"
       y1="18"
       x2="33"
       y2="18"
       gradientUnits="userSpaceOnUse"
       gradientTransform="translate(-17.20126,0.98185411)" /><linearGradient
       inkscape:collect="always"
       xlink:href="#linearGradient39012"
       id="linearGradient39006"
       gradientUnits="userSpaceOnUse"
       gradientTransform="translate(-86.816388,0.98185411)"
       x1="3"
       y1="18"
       x2="33"
       y2="18" /><linearGradient
       inkscape:collect="always"
       xlink:href="#linearGradient39059"
       id="linearGradient39053"
       gradientUnits="userSpaceOnUse"
       gradientTransform="matrix(0.39526851,0,0,0.39526851,19.881841,91.913302)"
       x1="3"
       y1="18"
       x2="33"
       y2="18" /><linearGradient
       inkscape:collect="always"
       xlink:href="#linearGradient39098"
       id="linearGradient39092"
       gradientUnits="userSpaceOnUse"
       gradientTransform="translate(-86.816388,0.98185411)"
       x1="3"
       y1="18"
       x2="33"
       y2="18" /></defs><g
     inkscape:label="Juelich"
     inkscape:groupmode="layer"
     id="layer1"
     style="display:inline"
     transform="translate(-2.196715,-1.9209556)"><g
       id="g40906"
       transform="matrix(0.64191708,0,0,0.64191708,24.708276,30.99091)"><rect
         style="opacity:0.62;fill:#023d6b;fill-opacity:1;stroke:none;stroke-width:4.01;stroke-miterlimit:100000;stroke-dasharray:none;paint-order:markers stroke fill;stop-color:#000000"
         id="rect40897"
         width="47.416168"
         height="11.17801"
         x="45.149872"
         y="113.03366" /><text
         xml:space="preserve"
         style="font-size:7.7611px;line-height:1.25;font-family:'Droid Sans Fallback';-inkscape-font-specification:'Droid Sans Fallback';text-align:end;letter-spacing:0px;word-spacing:0px;text-anchor:end;stroke-width:0.264583"
         x="84.643532"
         y="121.49329"
         id="text40901"><tspan
           sodipodi:role="line"
           id="tspan40899"
           style="font-style:normal;font-variant:normal;font-weight:normal;font-stretch:normal;font-family:Inter;-inkscape-font-specification:Inter;stroke-width:0.264583"
           x="84.643532"
           y="121.49329">Decision</tspan></text></g><g
       id="invisible_box-4"
       data-name="invisible box"
       style="stroke-width:6.99469;stroke-dasharray:none"
       transform="matrix(0.57329225,0,0,0.57329225,68.824721,37.933496)"><rect
         width="48"
         height="48"
         fill="none"
         id="rect38561"
         x="0"
         y="0"
         style="stroke-width:6.99469;stroke-dasharray:none" /></g><path
       inkscape:connector-curvature="0"
       id="path71"
       style="fill:#023d6b;stroke:none;stroke-width:0.143174;stroke-linecap:butt;stroke-linejoin:round;stroke-miterlimit:100000"
       d="m 60.534932,57.934316 2.280479,-5.923681 c -2.884371,-0.308943 -5.661355,1.18947 -6.986666,3.769897 0.0017,0.01333 0.0017,0.02683 0,0.04019 l -0.09889,0.256477 c -0.692175,1.789159 0.364634,3.114801 1.390537,3.510334 1.400765,0.511255 2.946827,-0.237291 3.414536,-1.653194 z m 4.134525,1.535771 c -1.359633,3.553587 -4.635118,4.885415 -7.635582,4.372458 2.739738,2.822935 7.266222,2.837004 10.023459,0.03117 2.75724,-2.805839 2.664088,-7.331383 -0.206279,-10.021384 z"
       sodipodi:nodetypes="ccccccscccscc" /><path
       style="fill:none;stroke:#000000;stroke-width:0.264583px;stroke-linecap:butt;stroke-linejoin:miter;stroke-opacity:1;marker-end:url(#TriangleStart)"
       d="m 32.553235,18.368589 h 18.072216 v 31.220653 l 5.040683,-0.01607"
       id="path40177"
       sodipodi:nodetypes="cccc" /><path
       style="fill:none;stroke:#000000;stroke-width:0.264583px;stroke-linecap:butt;stroke-linejoin:miter;stroke-opacity:1;marker-end:url(#TriangleStart)"
       d="M 104.77925,18.368589 H 86.707033 v 31.220653 l -5.088077,0.01102"
       id="path40398"
       sodipodi:nodetypes="cccc" /><g
       id="g40921"
       transform="matrix(0.64191708,0,0,0.64191708,24.708276,23.582572)"><rect
         style="opacity:0.62;fill:#023d6b;fill-opacity:1;stroke:none;stroke-width:4.01;stroke-miterlimit:100000;stroke-dasharray:none;paint-order:markers stroke fill;stop-color:#000000"
         id="rect40741"
         width="47.416168"
         height="11.17801"
         x="45.149872"
         y="72.287788" /><text
         xml:space="preserve"
         style="font-size:7.7611px;line-height:1.25;font-family:'Droid Sans Fallback';-inkscape-font-specification:'Droid Sans Fallback';text-align:end;letter-spacing:0px;word-spacing:0px;text-anchor:end;stroke-width:0.264583"
         x="87.275406"
         y="80.747414"
         id="text40745"><tspan
           sodipodi:role="line"
           id="tspan40743"
           style="font-style:normal;font-variant:normal;font-weight:normal;font-stretch:normal;font-family:Inter;-inkscape-font-specification:Inter;stroke-width:0.264583"
           x="87.275406"
           y="80.747414">Collection</tspan></text></g><g
       id="g40916"
       transform="matrix(0.64191708,0,0,0.64191708,24.708276,25.938791)"><rect
         style="opacity:0.62;fill:#023d6b;fill-opacity:1;stroke:none;stroke-width:4.01;stroke-miterlimit:100000;stroke-dasharray:none;paint-order:markers stroke fill;stop-color:#000000"
         id="rect40885"
         width="47.416168"
         height="11.17801"
         x="45.149872"
         y="86.046135" /><text
         xml:space="preserve"
         style="font-size:7.7611px;line-height:1.25;font-family:'Droid Sans Fallback';-inkscape-font-specification:'Droid Sans Fallback';text-align:end;letter-spacing:0px;word-spacing:0px;text-anchor:end;stroke-width:0.264583"
         x="89.206215"
         y="93.713737"
         id="text40889"><tspan
           sodipodi:role="line"
           id="tspan40887"
           style="font-style:normal;font-variant:normal;font-weight:normal;font-stretch:normal;font-family:Inter;-inkscape-font-specification:Inter;stroke-width:0.264583"
           x="89.206215"
           y="93.713737">Processing</tspan></text></g><g
       id="g40911"
       transform="matrix(0.64191708,0,0,0.64191708,24.708276,28.634691)"><rect
         style="opacity:0.62;fill:#023d6b;fill-opacity:1;stroke:none;stroke-width:4.01;stroke-miterlimit:100000;stroke-dasharray:none;paint-order:markers stroke fill;stop-color:#000000"
         id="rect40891"
         width="47.416168"
         height="11.17801"
         x="45.149872"
         y="99.275314" /><text
         xml:space="preserve"
         style="font-size:7.7611px;line-height:1.25;font-family:'Droid Sans Fallback';-inkscape-font-specification:'Droid Sans Fallback';text-align:end;letter-spacing:0px;word-spacing:0px;text-anchor:end;stroke-width:0.264583"
         x="84.27784"
         y="106.97323"
         id="text40895"><tspan
           sodipodi:role="line"
           id="tspan40893"
           style="font-style:normal;font-variant:normal;font-weight:normal;font-stretch:normal;font-family:Inter;-inkscape-font-specification:Inter;stroke-width:0.264583"
           x="84.27784"
           y="106.97323">Analysis</tspan></text></g><path
       style="fill:none;stroke:#000000;stroke-width:0.264583px;stroke-linecap:butt;stroke-linejoin:miter;stroke-miterlimit:3.9;stroke-opacity:1;marker-end:url(#marker40927)"
       d="m 68.912904,77.292241 c 0,3.632788 0.0019,3.796951 0.0019,3.796951"
       id="path40923" /><path
       style="fill:none;stroke:#000000;stroke-width:0.264583px;stroke-linecap:butt;stroke-linejoin:miter;stroke-miterlimit:3.9;stroke-opacity:1;marker-end:url(#marker40927)"
       d="m 68.912904,88.404748 c 0,3.632788 0.0019,3.796951 0.0019,3.796951"
       id="path40997" /><path
       style="fill:none;stroke:#000000;stroke-width:0.264583px;stroke-linecap:butt;stroke-linejoin:miter;stroke-miterlimit:3.9;stroke-opacity:1;marker-end:url(#marker40927)"
       d="m 68.912904,99.517253 c 0,3.632807 0.0019,3.796967 0.0019,3.796967"
       id="path40999" /><path
       style="display:inline;fill:none;stroke:#000000;stroke-width:0.264583px;stroke-linecap:butt;stroke-linejoin:miter;stroke-opacity:1;marker-end:url(#marker40519)"
       d="M 104.26846,68.4057 H 93.257997 V 47.034254 l -0.957517,-0.03116"
       id="path40569"
       sodipodi:nodetypes="cccc"
       transform="translate(-10.583334,-3.7041669)" /><path
       style="display:inline;fill:none;stroke:#000000;stroke-width:0.264583px;stroke-linecap:butt;stroke-linejoin:miter;stroke-opacity:1;marker-end:url(#marker40519)"
       d="M 33.152593,68.4057 H 44.163061 V 47.034254 l 1.02681,0.03117"
       id="path40515"
       sodipodi:nodetypes="cccc"
       transform="translate(10.583334,-3.7041669)" /><path
       d="M 43.076969,4 H 4.9230313 c -1.1045695,0 -2,0.8954305 -2,2 v 12 c 0,1.104569 0.8954305,2 2,2 H 42 v 8.923031 H 28 C 25.333334,28.923031 25.333334,32 28,32 h 14 v 8.923031 H 28 C 25.333334,40.923031 25.333334,44 28,44 h 15.076969 c 1.104569,0 2,-0.895431 2,-2 V 6 c 0,-1.1045695 -0.895431,-2 -2,-2 z M 42,16.923031 H 6 V 7.0769687 h 36 z"
       id="path38572"
       style="display:inline;fill:#4d4d4d;stroke-width:6.99469;stroke-dasharray:none"
       sodipodi:nodetypes="sssssccssccssssssccccc"
       transform="matrix(0.57329226,0,0,0.57329226,54.929053,39.623571)" /><g
       id="g41912"
       transform="matrix(0.02744186,0,0,0.02744186,72.43237,114.32787)"
       style="display:inline;fill:#4d4d4d;stroke-width:6.99469;stroke-dasharray:none">
	<path
   style="fill:#9f9e9f"
   d="m 333.337,457.194 c 0,1.963 -0.218,3.853 -0.582,5.67 -1.09,6.178 -4.143,11.702 -8.431,15.919 -0.218,0.217 -0.509,0.508 -0.8,0.726 -5.451,5.089 -12.72,8.287 -20.788,8.287 H 52.552 c -8.068,0 -15.337,-3.199 -20.788,-8.287 -4.725,-4.36 -8.069,-10.103 -9.231,-16.644 -0.363,-1.817 -0.582,-3.707 -0.582,-5.67 0,-5.523 1.527,-10.757 4.143,-15.264 1.308,-2.327 2.98,-4.434 4.87,-6.324 5.524,-5.524 13.156,-8.94 21.588,-8.94 h 250.185 c 16.863,0 30.6,13.738 30.6,30.527 z"
   id="path41856" />
	<path
   style="fill:#c4c4c4"
   d="m 344.822,482.417 v 26.675 c 0,1.599 -1.309,2.908 -2.908,2.908 H 13.374 c -1.599,0 -2.907,-1.309 -2.907,-2.908 v -26.675 c 0,-1.6 1.308,-2.909 2.907,-2.909 h 328.54 c 1.599,0.001 2.908,1.31 2.908,2.909 z"
   id="path41858" />
	<path
   style="fill:#c4c4c4"
   d="m 344.822,414.237 v 36.27 c 0,6.687 -5.452,12.212 -12.066,12.357 -0.146,0.073 -0.291,0.073 -0.436,0.073 H 22.969 c -0.146,0 -0.291,0 -0.436,-0.073 -6.614,-0.146 -12.066,-5.67 -12.066,-12.357 v -36.27 c 0,-6.832 5.669,-12.429 12.502,-12.429 H 332.32 c 6.832,0 12.502,5.597 12.502,12.429 z"
   id="path41860" />
	<rect
   x="24.677"
   y="412.319"
   style="fill:#9b9b9b"
   width="117.478"
   height="29.608"
   id="rect41862" />
	<path
   style="fill:#3b4045"
   d="M 355.288,11.558 V 415.11 c 0,6.033 -4.579,10.976 -10.466,11.484 -0.364,0.073 -0.727,0.073 -1.09,0.073 H 11.557 c -0.363,0 -0.727,0 -1.09,-0.073 C 4.579,426.086 0,421.143 0,415.11 V 11.558 C 0,5.233 5.16,0 11.557,0 h 332.175 c 6.396,0 11.556,5.233 11.556,11.558 z"
   id="path41864" />
	<g
   id="g41874">
		<g
   id="g41870">
			<rect
   x="10.501"
   y="50.571999"
   style="fill:#33363b"
   width="171.63699"
   height="24.355"
   id="rect41866" />
			<rect
   x="182.138"
   y="50.571999"
   style="fill:#2a5582"
   width="162.64999"
   height="24.355"
   id="rect41868" />
		</g>
		<polygon
   style="opacity:0.1;fill:#fdfefe"
   points="10.501,87.105 182.138,87.105 344.788,87.105 344.788,70.868 182.138,70.868 10.501,70.868 "
   id="polygon41872" />
	</g>
	<g
   id="g41884">
		<g
   id="g41880">
			<rect
   x="10.501"
   y="121.25"
   style="fill:#33363b"
   width="171.63699"
   height="24.355"
   id="rect41876" />
			<rect
   x="182.138"
   y="121.25"
   style="fill:#2a5582"
   width="162.64999"
   height="24.355"
   id="rect41878" />
		</g>
		<polygon
   style="opacity:0.1;fill:#fdfefe"
   points="10.501,157.783 182.138,157.783 344.788,157.783 344.788,141.546 182.138,141.546 10.501,141.546 "
   id="polygon41882" />
	</g>
	<g
   id="g41894">
		<g
   id="g41890">
			<rect
   x="10.501"
   y="191.92799"
   style="fill:#33363b"
   width="171.63699"
   height="24.355"
   id="rect41886" />
			<rect
   x="182.138"
   y="191.92799"
   style="fill:#2a5582"
   width="162.64999"
   height="24.355"
   id="rect41888" />
		</g>
		<polygon
   style="opacity:0.1;fill:#fdfefe"
   points="10.501,228.461 182.138,228.461 344.788,228.461 344.788,212.224 182.138,212.224 10.501,212.224 "
   id="polygon41892" />
	</g>
	<g
   style="opacity:0.8"
   id="g41902">
		<path
   style="fill:#dcdbdb"
   d="m 177.64,351.595 c -15.558,0 -30.94,-1.108 -47.024,-3.389 l -2.504,-0.356 -0.651,-2.444 c -6.456,-24.247 -6.456,-43.142 0,-67.391 l 0.651,-2.444 2.504,-0.356 c 16.084,-2.28 31.466,-3.389 47.024,-3.389 15.558,0 30.942,1.11 47.032,3.389 l 2.505,0.356 0.651,2.444 c 6.456,24.249 6.456,43.142 0,67.391 l -0.651,2.444 -2.504,0.356 c -16.091,2.281 -31.475,3.389 -47.033,3.389 z"
   id="path41896" />
		<path
   style="fill:#3b4045"
   d="m 224.136,344.422 c -31.52,4.47 -61.463,4.471 -92.982,0 -6.248,-23.461 -6.248,-41.964 0,-65.425 31.52,-4.469 61.462,-4.469 92.982,0 6.247,23.462 6.248,41.964 0,65.425 z"
   id="path41898" />
		<path
   style="fill:#dcdbdb"
   d="m 177.642,332.082 c -10.21,0 -18.516,-8.306 -18.516,-18.516 0,-6.635 3.583,-12.803 9.352,-16.096 1.525,-0.87 3.469,-0.34 4.341,1.186 0.871,1.526 0.34,3.469 -1.186,4.341 -3.79,2.163 -6.144,6.213 -6.144,10.57 0,6.701 5.452,12.153 12.153,12.153 6.704,0 12.158,-5.452 12.158,-12.153 0,-4.358 -2.356,-8.41 -6.149,-10.575 -1.526,-0.871 -2.057,-2.814 -1.185,-4.34 0.871,-1.526 2.815,-2.057 4.34,-1.185 5.772,3.295 9.357,9.464 9.357,16.1 0,10.208 -8.308,18.515 -18.521,18.515 z"
   id="path41900" />
	</g>
	<path
   style="fill:#dcdbdb"
   d="m 177.645,315.18 c -1.619,0 -2.937,-1.317 -2.937,-2.937 v -17.967 c 0,-1.619 1.317,-2.937 2.937,-2.937 1.619,0 2.937,1.317 2.937,2.937 v 17.967 c -0.001,1.619 -1.318,2.937 -2.937,2.937 z"
   id="path41904" />
	<circle
   style="fill:#2a5582"
   cx="236.07401"
   cy="393.535"
   r="13.372"
   id="circle41906" />
	<circle
   style="fill:#2a5582"
   cx="276.83401"
   cy="393.535"
   r="13.372"
   id="circle41908" />
	<circle
   style="fill:#2a5582"
   cx="317.595"
   cy="393.535"
   r="13.371"
   id="circle41910" />
</g><g
       id="g44275"
       transform="matrix(0.01888791,0,0,0.01888791,61.730189,115.95203)"
       style="display:inline;fill:#4d4d4d;stroke-width:6.99469;stroke-dasharray:none"><rect
         x="210.03101"
         y="430.698"
         style="fill:#fe9379"
         width="91.941002"
         height="81.302002"
         id="rect44234" /><g
         id="g44240">
	<polygon
   style="fill:#57565c"
   points="44.869,355.55 511.996,355.55 511.996,0 0.006,0 0.006,355.55 "
   id="polygon44236" />
	<rect
   x="119.649"
   y="480.64301"
   style="fill:#57565c"
   width="272.702"
   height="31.346001"
   id="rect44238" />
</g><rect
         x="0.0040000002"
         y="346.45001"
         style="fill:#dfdfe2"
         width="511.98999"
         height="103.453"
         id="rect44242" /><rect
         x="247.38499"
         y="385.633"
         style="fill:#fe9379"
         width="19.155001"
         height="17.239"
         id="rect44244" /><rect
         x="256.95599"
         y="430.698"
         style="fill:#fe633e"
         width="45.013"
         height="81.302002"
         id="rect44246" /><g
         id="g44252">
	<rect
   x="256.95599"
   style="fill:#3e3d43"
   width="255.033"
   height="355.55099"
   id="rect44248"
   y="0" />
	<rect
   x="256.95599"
   y="480.64301"
   style="fill:#3e3d43"
   width="135.395"
   height="31.346001"
   id="rect44250" />
</g><rect
         x="256.95599"
         y="346.45001"
         style="fill:#d7d6d9"
         width="255.033"
         height="103.453"
         id="rect44254" /><rect
         x="256.95599"
         y="385.633"
         style="fill:#fe633e"
         width="9.5550003"
         height="17.24"
         id="rect44256" /></g><circle
       cx="38"
       cy="36"
       r="2"
       id="circle38564"
       style="display:inline;fill:#4d4d4d;stroke-width:6.99469;stroke-dasharray:none"
       transform="matrix(0.57329226,0,0,0.57329226,54.929053,39.623571)" /><circle
       cx="32"
       cy="36"
       r="2"
       id="circle38566"
       style="display:inline;fill:#4d4d4d;stroke-width:6.99469;stroke-dasharray:none"
       transform="matrix(0.57329226,0,0,0.57329226,54.929053,39.623571)" /><circle
       cx="38"
       cy="24"
       r="2"
       id="circle38568"
       style="display:inline;fill:#4d4d4d;stroke-width:6.99469;stroke-dasharray:none"
       transform="matrix(0.57329226,0,0,0.57329226,54.929053,39.623571)" /><circle
       cx="32"
       cy="24"
       r="2"
       id="circle38570"
       style="display:inline;fill:#4d4d4d;stroke-width:6.99469;stroke-dasharray:none"
       transform="matrix(0.57329226,0,0,0.57329226,54.929053,39.623571)" /><circle
       cx="38"
       cy="12"
       r="2"
       id="circle38574"
       style="display:inline;fill:#4d4d4d;stroke-width:6.99469;stroke-dasharray:none"
       transform="matrix(0.57329226,0,0,0.57329226,54.929053,39.623571)" /><circle
       cx="32"
       cy="12"
       r="2"
       id="circle38576"
       style="display:inline;fill:#4d4d4d;stroke-width:6.99469;stroke-dasharray:none"
       transform="matrix(0.57329226,0,0,0.57329226,54.929053,39.623571)" /></g><g
     inkscape:groupmode="layer"
     id="layer2"
     inkscape:label="hospitals"
     style="display:inline"
     transform="translate(-2.196715,-1.9209556)"><g
       id="Layer_2"
       data-name="Layer 2"
       transform="matrix(0.45519705,0,0,0.45519705,2.196715,1.9818725)"
       style="display:inline;stroke:none;stroke-width:0.864;stroke-dasharray:none"><g
         id="invisible_box"
         data-name="invisible box"
         style="stroke:none;stroke-width:0.864;stroke-dasharray:none"><rect
           width="48"
           height="48"
           fill="none"
           id="rect36212"
           x="0"
           y="0"
           style="stroke:none;stroke-width:0.864;stroke-dasharray:none" /></g><g
         id="Medical"
         style="stroke:none;stroke-width:0.864;stroke-dasharray:none"><g
           id="g36225"
           style="stroke:none;stroke-width:0.864;stroke-dasharray:none"><path
             d="M 41,42 H 40 V 9 A 2.9,2.9 0 0 0 37,6 H 30 V 4 A 2,2 0 0 0 28,2 H 20 A 2,2 0 0 0 18,4 V 6 H 11 A 2.9,2.9 0 0 0 8,9 V 42 H 7 a 2,2 0 0 0 0,4 h 34 a 2,2 0 0 0 0,-4 z M 21,7 h 2 V 5 a 1,1 0 0 1 2,0 v 2 h 2 a 1,1 0 0 1 0,2 h -2 v 2 a 1,1 0 0 1 -2,0 V 9 h -2 a 1,1 0 0 1 0,-2 z m 15,35 h -9 v -7 h -6 v 7 H 12 V 10 h 6 v 2 a 2,2 0 0 0 2,2 h 8 a 2,2 0 0 0 2,-2 v -2 h 6 z"
             id="path36215"
             style="fill:#808080;stroke:none;stroke-width:0.423992;stroke-dasharray:none" /><text
             xml:space="preserve"
             style="font-size:17.05px;line-height:1.25;font-family:'Droid Sans Fallback';-inkscape-font-specification:'Droid Sans Fallback';text-align:end;letter-spacing:0px;word-spacing:0px;text-anchor:end;stroke-width:0.5022"
             x="29.66678"
             y="30.273699"
             id="text38194"><tspan
               sodipodi:role="line"
               id="tspan38192"
               style="font-style:normal;font-variant:normal;font-weight:bold;font-stretch:normal;font-family:Inter;-inkscape-font-specification:'Inter Bold';stroke-width:0.5022"
               x="29.66678"
               y="30.273699">A</tspan></text></g></g></g><g
       style="fill:#000000;stroke:none"
       id="g37792"
       transform="matrix(0.3952685,0,0,0.3952685,26.491134,9.9999459)"><path
         class="clr-i-solid clr-i-solid-path-1"
         d="m 0.70874047,19.261854 c 8.08000003,0 14.65999953,-1.74 15.08999953,-3.94 V 9.5718545 c -0.43,2.2000005 -6.9999995,3.9400005 -15.08999953,3.9400005 a 39.4,39.4 0 0 1 -11.66000047,-1.53 V 9.9818545 A 39.4,39.4 0 0 0 0.70874047,11.491855 C 8.7987405,11.511855 15.31874,9.7718545 15.79874,7.5918545 v 0 C 15.59874,4.1818539 6.3187405,3.261854 0.79874047,3.261854 -4.7212595,3.261854 -14.20126,4.1918539 -14.20126,7.6918545 V 30.271854 c 0,3.49 9.4300005,4.43 15.00000047,4.43 5.57000003,0 14.99999953,-0.93 14.99999953,-4.43 v -5.2 c -0.43,2.19 -6.9999995,3.91 -15.08999953,3.91 a 39.4,39.4 0 0 1 -11.66000047,-1.48 v -2 a 39.4,39.4 0 0 0 11.66000047,1.48 c 8.09000003,0 14.65999953,-1.72 15.08999953,-3.91 v -5.75 c -0.43,2.2 -6.9999995,3.94 -15.08999953,3.94 a 39.4,39.4 0 0 1 -11.66000047,-1.51 v -2 a 39.4,39.4 0 0 0 11.66000047,1.51 z"
         id="path37780"
         style="fill:url(#linearGradient38186);fill-opacity:1;stroke:none" /></g><g
       id="g39031"
       transform="matrix(0.3952685,0,0,0.3952685,137.62438,9.9390285)"
       style="fill:#000000;stroke:none"><g
         id="g38996"
         data-name="Layer 2"
         transform="matrix(1.1516148,0,0,1.1516148,-61.463081,-20.28513)"
         style="display:inline;stroke:none;stroke-width:0.864;stroke-dasharray:none"><g
           id="g38984"
           data-name="invisible box"
           style="stroke:none;stroke-width:0.864;stroke-dasharray:none"><rect
             width="48"
             height="48"
             fill="none"
             id="rect38982"
             x="0"
             y="0"
             style="stroke:none;stroke-width:0.864;stroke-dasharray:none" /></g><g
           id="g38994"
           style="stroke:none;stroke-width:0.864;stroke-dasharray:none"><g
             id="g38992"
             style="stroke:none;stroke-width:0.864;stroke-dasharray:none"><path
               d="M 41,42 H 40 V 9 A 2.9,2.9 0 0 0 37,6 H 30 V 4 A 2,2 0 0 0 28,2 H 20 A 2,2 0 0 0 18,4 V 6 H 11 A 2.9,2.9 0 0 0 8,9 V 42 H 7 a 2,2 0 0 0 0,4 h 34 a 2,2 0 0 0 0,-4 z M 21,7 h 2 V 5 a 1,1 0 0 1 2,0 v 2 h 2 a 1,1 0 0 1 0,2 h -2 v 2 a 1,1 0 0 1 -2,0 V 9 h -2 a 1,1 0 0 1 0,-2 z m 15,35 h -9 v -7 h -6 v 7 H 12 V 10 h 6 v 2 a 2,2 0 0 0 2,2 h 8 a 2,2 0 0 0 2,-2 v -2 h 6 z"
               id="path38986"
               style="fill:#808080;stroke:none;stroke-width:0.423992;stroke-dasharray:none" /><text
               xml:space="preserve"
               style="font-size:17.05px;line-height:1.25;font-family:'Droid Sans Fallback';-inkscape-font-specification:'Droid Sans Fallback';text-align:end;letter-spacing:0px;word-spacing:0px;text-anchor:end;stroke-width:0.5022"
               x="29.66678"
               y="30.273699"
               id="text38990"><tspan
                 sodipodi:role="line"
                 id="tspan38988"
                 style="font-style:normal;font-variant:normal;font-weight:bold;font-stretch:normal;font-family:Inter;-inkscape-font-specification:'Inter Bold';stroke-width:0.5022"
                 x="29.66678"
                 y="30.273699">B</tspan></text></g></g></g><path
         class="clr-i-solid clr-i-solid-path-1"
         d="m -68.906388,19.261854 c 8.08,0 14.659999,-1.74 15.089999,-3.94 V 9.5718545 c -0.43,2.2000005 -6.999999,3.9400005 -15.089999,3.9400005 a 39.4,39.4 0 0 1 -11.66,-1.53 V 9.9818545 a 39.4,39.4 0 0 0 11.66,1.5100005 c 8.09,0.02 14.609999,-1.7200005 15.089999,-3.9000005 v 0 c -0.2,-3.4100006 -9.479999,-4.3300005 -14.999999,-4.3300005 -5.52,0 -15,0.9299999 -15,4.4300005 V 30.271854 c 0,3.49 9.43,4.43 15,4.43 5.57,0 14.999999,-0.93 14.999999,-4.43 v -5.2 c -0.43,2.19 -6.999999,3.91 -15.089999,3.91 a 39.4,39.4 0 0 1 -11.66,-1.48 v -2 a 39.4,39.4 0 0 0 11.66,1.48 c 8.09,0 14.659999,-1.72 15.089999,-3.91 v -5.75 c -0.43,2.2 -6.999999,3.94 -15.089999,3.94 a 39.4,39.4 0 0 1 -11.66,-1.51 v -2 a 39.4,39.4 0 0 0 11.66,1.51 z"
         id="path38998"
         style="fill:url(#linearGradient39006);fill-opacity:1;stroke:none" /></g><g
       id="g41045"
       transform="translate(10.583334,-3.7041668)"><g
         id="g40507"
         transform="translate(0,-31.750001)"><g
           id="g39047"
           data-name="Layer 2"
           transform="matrix(0.45519708,0,0,0.45519708,2.3865366,83.507133)"
           style="display:inline;fill:#000000;stroke:none;stroke-width:0.864;stroke-dasharray:none"><g
             id="g39035"
             data-name="invisible box"
             style="stroke:none;stroke-width:0.864;stroke-dasharray:none"><rect
               width="48"
               height="48"
               fill="none"
               id="rect39033"
               x="0"
               y="0"
               style="stroke:none;stroke-width:0.864;stroke-dasharray:none" /></g><g
             id="g39045"
             style="stroke:none;stroke-width:0.864;stroke-dasharray:none"><g
               id="g39043"
               style="stroke:none;stroke-width:0.864;stroke-dasharray:none"><path
                 d="M 41,42 H 40 V 9 A 2.9,2.9 0 0 0 37,6 H 30 V 4 A 2,2 0 0 0 28,2 H 20 A 2,2 0 0 0 18,4 V 6 H 11 A 2.9,2.9 0 0 0 8,9 V 42 H 7 a 2,2 0 0 0 0,4 h 34 a 2,2 0 0 0 0,-4 z M 21,7 h 2 V 5 a 1,1 0 0 1 2,0 v 2 h 2 a 1,1 0 0 1 0,2 h -2 v 2 a 1,1 0 0 1 -2,0 V 9 h -2 a 1,1 0 0 1 0,-2 z m 15,35 h -9 v -7 h -6 v 7 H 12 V 10 h 6 v 2 a 2,2 0 0 0 2,2 h 8 a 2,2 0 0 0 2,-2 v -2 h 6 z"
                 id="path39037"
                 style="fill:#808080;stroke:none;stroke-width:0.423992;stroke-dasharray:none" /><text
                 xml:space="preserve"
                 style="font-size:17.05px;line-height:1.25;font-family:'Droid Sans Fallback';-inkscape-font-specification:'Droid Sans Fallback';text-align:end;letter-spacing:0px;word-spacing:0px;text-anchor:end;stroke-width:0.5022"
                 x="29.66678"
                 y="30.273699"
                 id="text39041"><tspan
                   sodipodi:role="line"
                   id="tspan39039"
                   style="font-style:normal;font-variant:normal;font-weight:bold;font-stretch:normal;font-family:Inter;-inkscape-font-specification:'Inter Bold';stroke-width:0.5022"
                   x="29.66678"
                   y="30.273699">C</tspan></text></g></g></g><path
           class="clr-i-solid clr-i-solid-path-1"
           d="m 26.9611,99.13881 c 3.193769,0 5.794636,-0.687767 5.964601,-1.557358 v -2.272793 c -0.169965,0.869591 -2.766879,1.557358 -5.964601,1.557358 a 15.573579,15.573579 0 0 1 -4.608831,-0.604761 v -0.790537 a 15.573579,15.573579 0 0 0 4.608831,0.596855 c 3.197722,0.0079 5.774873,-0.679862 5.964601,-1.541547 v 0 c -0.07905,-1.347866 -3.747145,-1.711513 -5.929027,-1.711513 -2.181882,0 -5.929028,0.3676 -5.929028,1.75104 v 8.925166 c 0,1.37948 3.727382,1.75104 5.929028,1.75104 2.201646,0 5.929027,-0.3676 5.929027,-1.75104 v -2.0554 c -0.169965,0.86564 -2.766879,1.5455 -5.964601,1.5455 a 15.573579,15.573579 0 0 1 -4.608831,-0.585 v -0.79053 a 15.573579,15.573579 0 0 0 4.608831,0.58499 c 3.197722,0 5.794636,-0.67986 5.964601,-1.5455 V 98.371989 C 32.755736,99.24158 30.158822,99.929347 26.9611,99.929347 A 15.573579,15.573579 0 0 1 22.352269,99.332492 V 98.541955 A 15.573579,15.573579 0 0 0 26.9611,99.13881 Z"
           id="path39049"
           style="fill:url(#linearGradient39053);fill-opacity:1;stroke:none;stroke-width:0.395268" /></g></g><g
       id="g41012"
       transform="translate(-10.583334,-3.7041668)"><g
         id="g39949"
         transform="matrix(0.3952685,0,0,0.3952685,137.44163,59.720348)"
         style="fill:#000000;stroke:none"><g
           id="g39086"
           data-name="Layer 2"
           transform="matrix(1.1516148,0,0,1.1516148,-61.463081,-20.28513)"
           style="display:inline;stroke:none;stroke-width:0.864;stroke-dasharray:none"><g
             id="g39074"
             data-name="invisible box"
             style="stroke:none;stroke-width:0.864;stroke-dasharray:none"><rect
               width="48"
               height="48"
               fill="none"
               id="rect39072"
               x="0"
               y="0"
               style="stroke:none;stroke-width:0.864;stroke-dasharray:none" /></g><g
             id="g39084"
             style="stroke:none;stroke-width:0.864;stroke-dasharray:none"><g
               id="g39082"
               style="stroke:none;stroke-width:0.864;stroke-dasharray:none"><path
                 d="M 41,42 H 40 V 9 A 2.9,2.9 0 0 0 37,6 H 30 V 4 A 2,2 0 0 0 28,2 H 20 A 2,2 0 0 0 18,4 V 6 H 11 A 2.9,2.9 0 0 0 8,9 V 42 H 7 a 2,2 0 0 0 0,4 h 34 a 2,2 0 0 0 0,-4 z M 21,7 h 2 V 5 a 1,1 0 0 1 2,0 v 2 h 2 a 1,1 0 0 1 0,2 h -2 v 2 a 1,1 0 0 1 -2,0 V 9 h -2 a 1,1 0 0 1 0,-2 z m 15,35 h -9 v -7 h -6 v 7 H 12 V 10 h 6 v 2 a 2,2 0 0 0 2,2 h 8 a 2,2 0 0 0 2,-2 v -2 h 6 z"
                 id="path39076"
                 style="fill:#808080;stroke:none;stroke-width:0.423992;stroke-dasharray:none" /><text
                 xml:space="preserve"
                 style="font-size:17.05px;line-height:1.25;font-family:'Droid Sans Fallback';-inkscape-font-specification:'Droid Sans Fallback';text-align:end;letter-spacing:0px;word-spacing:0px;text-anchor:end;stroke-width:0.5022"
                 x="29.66678"
                 y="30.273699"
                 id="text39080"><tspan
                   sodipodi:role="line"
                   id="tspan39078"
                   style="font-style:normal;font-variant:normal;font-weight:bold;font-stretch:normal;font-family:Inter;-inkscape-font-specification:'Inter Bold';stroke-width:0.5022"
                   x="29.66678"
                   y="30.273699">D</tspan></text></g></g></g><path
           class="clr-i-solid clr-i-solid-path-1"
           d="m -68.906388,19.261854 c 8.08,0 14.659999,-1.74 15.089999,-3.94 V 9.5718545 c -0.43,2.2000005 -6.999999,3.9400005 -15.089999,3.9400005 a 39.4,39.4 0 0 1 -11.66,-1.53 V 9.9818545 a 39.4,39.4 0 0 0 11.66,1.5100005 c 8.09,0.02 14.609999,-1.7200005 15.089999,-3.9000005 v 0 c -0.2,-3.4100006 -9.479999,-4.3300005 -14.999999,-4.3300005 -5.52,0 -15,0.9299999 -15,4.4300005 V 30.271854 c 0,3.49 9.43,4.43 15,4.43 5.57,0 14.999999,-0.93 14.999999,-4.43 v -5.2 c -0.43,2.19 -6.999999,3.91 -15.089999,3.91 a 39.4,39.4 0 0 1 -11.66,-1.48 v -2 a 39.4,39.4 0 0 0 11.66,1.48 c 8.09,0 14.659999,-1.72 15.089999,-3.91 v -5.75 c -0.43,2.2 -6.999999,3.94 -15.089999,3.94 a 39.4,39.4 0 0 1 -11.66,-1.51 v -2 a 39.4,39.4 0 0 0 11.66,1.51 z"
           id="path39088"
           style="fill:url(#linearGradient39092);fill-opacity:1;stroke:none" /></g></g></g><g
     inkscape:groupmode="layer"
     id="layer3"
     inkscape:label="dataflow-to-clinicians"
     style="display:inline"
     transform="translate(-2.196715,-1.9209556)"><g
       id="icons_Q2"
       data-name="icons Q2"
       style="fill:#4d4d4d;stroke-width:6.99469;stroke-dasharray:none"
       transform="matrix(0.57329226,0,0,0.57329226,54.929053,39.623571)"><path
         d="m 31.192663,-46.591791 h -1 c -0.363514,-1.875284 -2.686292,-5.076966 -6,-5.076966 -3.313709,0 -5.806693,2.91291 -6,5.076966 h -1 c -1.10457,0 -2,0.895431 -2,2 v 12 c 0,1.104569 0.89543,2 2,2 h 14 c 1.104569,0 2,-0.895431 2,-2 v -12 c 0,-1.104569 -0.895431,-2 -2,-2 z m -7,-3.846062 c 2.366162,0.03056 4.769093,2.741493 4.769093,3.846062 H 19.42357 c 0,-1.104569 1.851158,-3.883754 4.769093,-3.846062 z m 7.769093,18.615155 H 16.423569 v -13.538186 h 15.538187 z"
         id="path38578"
         style="fill:#023d6b;fill-opacity:1;stroke-width:6.99469;stroke-dasharray:none"
         sodipodi:nodetypes="scscsssssssssccsccccc" /><rect
         x="23.192663"
         y="-40.591789"
         width="2"
         height="4"
         id="rect38580"
         style="fill:#023d6b;fill-opacity:1;stroke-width:6.99469;stroke-dasharray:none" /><path
         style="fill:none;stroke:#023d6b;stroke-width:0.462242;stroke-linecap:butt;stroke-linejoin:miter;stroke-dasharray:0.462242, 0.462242;stroke-dashoffset:0;stroke-opacity:1"
         d="m 33.135503,-43.980923 29.909711,-0.127643 0.0251,202.161926 -79.199102,0.17633 -0.01441,-202.286252 31.292637,-0.02643"
         id="path41128"
         sodipodi:nodetypes="cccccc" /><g
         id="g45137"
         transform="matrix(0.04736365,0,0,0.04736365,76.633259,46.937213)"
         style="stroke-width:14.3629;stroke-dasharray:none"><circle
           style="fill:#abb098;fill-opacity:1;stroke:#000000;stroke-width:14.3629;stroke-dasharray:none;stroke-opacity:1"
           cx="256"
           cy="256"
           r="256"
           id="circle45039" /><path
           style="fill:#b3b3b3;stroke-width:14.3629;stroke-dasharray:none"
           d="m 220.316,249.432 c 23.787,0 47.569,0 71.356,0 l 0.388,4.877 -34.872,52.862 -37.458,-53.389 0.582,-4.35 z"
           id="path45041" /><path
           style="fill:#f0ba7d;stroke-width:14.3629;stroke-dasharray:none"
           d="m 220.777,236.167 -0.619,29.819 -50.589,27.666 v 101.405 h 85.166 85.152 V 293.652 l -47.019,-29.223 -2.582,-29.814 -69.508,1.557 v -0.005 z"
           id="path45043" /><path
           style="fill:#fed298;stroke-width:14.3629;stroke-dasharray:none"
           d="m 197.401,149.214 c 0,0 -2.9,-6.374 -10.688,-3.215 -7.787,3.155 0.351,34.65 3.326,39.047 2.974,4.392 7.764,1.603 9.51,1.427 2.48,18.775 2.702,31.717 10.217,39.634 7.117,7.496 23.417,22.776 32.003,28.1 5.815,1.229 10.152,1.949 14.235,2.166 4.078,-0.217 8.42,-0.937 14.235,-2.166 8.586,-5.326 24.886,-20.605 32.003,-28.1 7.514,-7.917 7.737,-20.853 10.217,-39.634 1.746,0.176 6.531,2.965 9.51,-1.427 2.974,-4.392 11.117,-35.888 3.326,-39.047 -7.787,-3.159 -10.688,3.215 -10.688,3.215 0,0 7.7,-24.734 -5.986,-49.079 -9.376,-16.687 -30.766,-25.339 -52.612,-25.976 -21.846,0.633 -43.237,9.288 -52.612,25.976 -13.685,24.345 -5.986,49.079 -5.986,49.079 z"
           id="path45045" /><path
           style="fill:#21d0c3;stroke-width:14.3629;stroke-dasharray:none"
           d="m 195.35,274.761 c 5.445,44.982 121.031,43.708 121.298,0.005 l 38.013,64.612 -30.105,163.324 C 302.733,508.753 279.75,512 256,512 c -19.371,0 -38.229,-2.166 -56.368,-6.24 l -53.956,-161.223 49.68,-69.776 z"
           id="path45047" /><path
           style="fill:#ffffff;stroke-width:14.3629;stroke-dasharray:none"
           d="m 206.385,271.279 c -134.374,43.699 -95.863,22.387 -126.24,170.746 18.267,17.274 39.08,31.879 61.813,43.209 l 13.487,-44.008 c 0.157,-0.503 0.638,-0.817 1.16,-0.758 0.522,0.059 0.919,0.48 0.951,1.007 l 1.949,51.689 c 29.782,12.133 62.353,18.83 96.5,18.83 V 405.006 L 206.39,271.274 Z"
           id="path45049" /><path
           style="fill:#eef3f7;stroke-width:14.3629;stroke-dasharray:none"
           d="m 305.587,271.584 c 134.484,43.277 95.891,22.096 126.268,170.442 -18.267,17.274 -39.084,31.879 -61.817,43.214 l -13.487,-44.008 c -0.153,-0.503 -0.638,-0.822 -1.164,-0.758 -0.522,0.065 -0.919,0.485 -0.947,1.007 L 352.5,493.17 C 322.718,505.303 290.142,512 256.005,512 V 405.011 l 49.587,-133.427 z"
           id="path45051" /><path
           style="fill:#fefefe;stroke-width:14.3629;stroke-dasharray:none"
           d="m 346.394,409.066 c -9.991,-1.723 -16.692,-11.224 -14.965,-21.21 1.723,-9.99 11.224,-16.692 21.21,-14.97 9.991,1.723 16.692,11.224 14.965,21.214 -1.723,9.99 -11.224,16.692 -21.214,14.965 h 0.004 z"
           id="path45053" /><path
           style="fill:#21d0c3;stroke-width:14.3629;stroke-dasharray:none"
           d="m 346.574,408.013 c -9.409,-1.626 -15.717,-10.567 -14.096,-19.976 1.626,-9.409 10.567,-15.722 19.976,-14.096 9.409,1.626 15.717,10.572 14.096,19.981 -1.626,9.407 -10.567,15.717 -19.976,14.091 z"
           id="path45055" /><path
           style="fill:#ebecec;stroke-width:14.3629;stroke-dasharray:none"
           d="m 347.891,400.406 c -5.201,-0.896 -8.697,-5.852 -7.797,-11.052 0.896,-5.206 5.848,-8.697 11.052,-7.797 5.205,0.9 8.697,5.848 7.797,11.052 -0.896,5.206 -5.848,8.697 -11.052,7.797 z"
           id="path45057" /><path
           style="fill:#fefefe;stroke-width:14.3629;stroke-dasharray:none"
           d="m 349.012,382.578 4.203,0.726 2.259,-13.089 -4.203,-0.726 z"
           id="path45059" /><path
           style="fill:#21d0c3;stroke-width:14.3629;stroke-dasharray:none"
           d="m 208.237,412.701 7.875,-1.561 c 3.348,-0.665 6.12,-2.637 7.885,-5.28 1.765,-2.643 2.531,-5.958 1.866,-9.302 l -9.261,-46.668 c -3.496,-17.612 -17.274,-26.59 -33.015,-28.581 -6.032,-0.763 -12.355,-0.485 -18.484,0.73 -6.129,1.21 -12.073,3.371 -17.357,6.379 -13.755,7.834 -23.025,21.375 -19.524,39.015 l 9.261,46.668 c 0.665,3.348 2.637,6.115 5.28,7.885 l 0.005,-0.005 c 2.642,1.769 5.953,2.531 9.298,1.87 l 7.871,-1.561 -0.642,-3.247 -7.875,1.561 c -2.452,0.485 -4.886,-0.074 -6.822,-1.367 v 0 c -1.94,-1.297 -3.385,-3.331 -3.875,-5.783 l -9.261,-46.668 c -3.178,-16.004 5.317,-28.341 17.902,-35.505 4.974,-2.835 10.581,-4.868 16.374,-6.018 5.788,-1.146 11.75,-1.404 17.436,-0.689 14.406,1.819 27.01,9.982 30.179,25.957 l 9.265,46.668 c 0.485,2.452 -0.079,4.882 -1.371,6.822 -1.297,1.935 -3.331,3.385 -5.783,3.87 l -7.875,1.561 0.642,3.247 h 0.006 z"
           id="path45061" /><path
           style="fill:#4d4d4d;stroke-width:14.3629;stroke-dasharray:none"
           d="m 219.101,356.8 -1.418,-7.131 c -3.603,-18.157 -17.777,-27.412 -33.962,-29.458 -6.148,-0.776 -12.59,-0.499 -18.831,0.739 -6.245,1.234 -12.3,3.436 -17.68,6.498 -14.147,8.055 -23.671,22.004 -20.064,40.188 l 1.418,7.131 5.404,-1.076 -1.418,-7.127 c -3.067,-15.459 5.168,-27.393 17.362,-34.336 4.872,-2.776 10.369,-4.767 16.046,-5.893 5.677,-1.127 11.52,-1.381 17.09,-0.675 13.963,1.765 26.165,9.653 29.232,25.08 l 1.413,7.131 z"
           id="path45063" /><g
           id="g45069"
           style="stroke-width:14.3629;stroke-dasharray:none">
	<path
   style="fill:#076673;stroke-width:14.3629;stroke-dasharray:none"
   d="m 153.704,424.234 4.213,-0.836 c 1.058,1.187 2.693,1.796 4.364,1.464 2.508,-0.499 4.138,-2.933 3.64,-5.441 -0.494,-2.503 -2.933,-4.134 -5.441,-3.635 -1.672,0.332 -2.951,1.52 -3.473,3.021 l -4.213,0.836 z"
   id="path45065" />
	<path
   style="fill:#076673;stroke-width:14.3629;stroke-dasharray:none"
   d="m 211.586,412.747 -4.208,0.836 c -0.522,1.496 -1.801,2.688 -3.473,3.021 -2.508,0.494 -4.942,-1.132 -5.441,-3.64 -0.494,-2.503 1.132,-4.942 3.635,-5.436 1.668,-0.332 3.308,0.281 4.36,1.464 l 4.213,-0.836 0.91,4.591 z"
   id="path45067" />
</g><path
           style="fill:#666666;stroke-width:14.3629;stroke-dasharray:none"
           d="m 167.458,320.534 -1.607,-8.097 -3.196,0.638 -3.192,0.633 1.626,8.175 c 1.215,-0.355 2.448,-0.656 3.695,-0.9 0.887,-0.176 1.779,-0.323 2.674,-0.443 z"
           id="path45071" /><g
           id="g45077"
           style="stroke-width:14.3629;stroke-dasharray:none">
	<path
   style="fill:#0f7986;stroke-width:14.3629;stroke-dasharray:none"
   d="m 160.562,419.731 c 0.758,-0.153 1.252,-0.891 1.099,-1.644 -0.148,-0.758 -0.887,-1.252 -1.644,-1.104 -0.758,0.153 -1.252,0.887 -1.099,1.644 0.153,0.758 0.887,1.252 1.645,1.099 z"
   id="path45073" />
	<path
   style="fill:#0f7986;stroke-width:14.3629;stroke-dasharray:none"
   d="m 202.219,411.449 c 0.758,-0.148 1.247,-0.887 1.099,-1.644 -0.153,-0.763 -0.887,-1.252 -1.644,-1.104 -0.758,0.153 -1.252,0.887 -1.099,1.649 0.148,0.758 0.887,1.247 1.649,1.099 z"
   id="path45075" />
</g><path
           style="fill:#fefefe;stroke-width:14.3629;stroke-dasharray:none"
           d="m 347.378,400.318 c -4.923,-0.85 -8.226,-5.528 -7.377,-10.453 0.85,-4.919 5.528,-8.221 10.453,-7.372 4.923,0.85 8.226,5.528 7.377,10.453 -0.85,4.923 -5.533,8.226 -10.453,7.377 z"
           id="path45079" /><g
           id="g45085"
           style="stroke-width:14.3629;stroke-dasharray:none">
	<path
   style="fill:#4d4d4d;stroke-width:14.3629;stroke-dasharray:none"
   d="m 206.432,268.715 c -0.143,0 -49.86,0.416 -41.463,43.91 l -4.623,0.882 c -9.469,-49.037 45.873,-49.49 46.031,-49.49 z"
   id="path45081" />
	<path
   style="fill:#4d4d4d;stroke-width:14.3629;stroke-dasharray:none"
   d="m 305.643,264.245 c 8.11,0.217 23.792,2.429 35.86,17.113 11.81,14.364 20.092,40.751 13.898,89.129 l -4.66,-0.591 c 5.99,-46.821 -1.751,-72.029 -12.868,-85.554 -10.859,-13.21 -25.02,-15.2 -32.345,-15.399 l 0.111,-4.697 h 0.004 z"
   id="path45083" />
</g><path
           style="fill:#fefefe;stroke-width:14.3629;stroke-dasharray:none"
           d="m 256,256.369 c 0,0 -9.847,-0.522 -14.281,-1.833 -4.434,-1.311 -32.003,-28.1 -32.003,-28.1 l 0.863,-39.477 38.498,-1.756 c 0,0 4.582,-2.73 6.923,-2.153 2.346,-0.577 6.923,2.153 6.923,2.153 l 38.498,1.756 0.863,39.477 c 0,0 -27.569,26.789 -32.004,28.1 -4.433,1.311 -14.28,1.833 -14.28,1.833 z"
           id="path45087" /><path
           style="fill:#eef3f7;stroke-width:14.3629;stroke-dasharray:none"
           d="m 256,183.051 3.118,10.887 -1.658,7.602 3.413,18.327 -3.589,17.524 -1.288,18.979 c 0,0 9.847,-0.522 14.281,-1.833 4.434,-1.311 32.004,-28.1 32.004,-28.1 l -0.863,-39.477 -38.498,-1.756 c 0,0 -4.582,-2.73 -6.923,-2.153 z"
           id="path45089" /><g
           id="g45097"
           style="stroke-width:14.3629;stroke-dasharray:none">
	<path
   style="fill:#21d0c3;stroke-width:14.3629;stroke-dasharray:none"
   d="m 194.751,141.427 18.679,46.525 -2.194,0.836 -18.679,-46.525 z"
   id="path45091" />
	<path
   style="fill:#21d0c3;stroke-width:14.3629;stroke-dasharray:none"
   d="m 318.723,142.928 -17.579,46.543 -2.268,-0.638 17.579,-46.543 z"
   id="path45093" />
	<path
   style="fill:#21d0c3;stroke-width:14.3629;stroke-dasharray:none"
   d="m 255.829,63.263 c 0,0 -57.697,8.655 -62.376,20.756 -4.679,12.101 -8.577,9.353 -7.409,23.653 1.169,14.3 0.665,38.331 0.665,38.331 49.485,-18.041 89.207,-18.696 138.235,0 0,0 -0.503,-24.031 0.665,-38.331 1.169,-14.3 -2.73,-11.551 -7.409,-23.653 -4.679,-12.101 -62.376,-20.756 -62.376,-20.756 0,0 0.005,0 0.005,0 z"
   id="path45095" />
</g><path
           style="fill:#15bdb2;stroke-width:14.3629;stroke-dasharray:none"
           d="m 255.829,63.263 -0.281,0.042 c 0,0 56.964,14.485 57.55,18.881 0.587,4.397 -2.171,8.554 4.485,10.817 6.656,2.264 4.872,12.651 4.872,12.651 l -1.035,39.518 0.323,0.378 3.206,0.443 c 0,0 -0.503,-24.031 0.665,-38.331 1.168,-14.3 -2.73,-11.551 -7.409,-23.653 -4.679,-12.101 -62.376,-20.756 -62.376,-20.756 z"
           id="path45099" /></g><g
         id="g46627"
         transform="matrix(0.04736365,0,0,0.04736365,95.093879,-33.366503)"><circle
           style="fill:#8da9aa;fill-opacity:1;stroke:#000000;stroke-width:14.3629;stroke-dasharray:none;stroke-opacity:1"
           cx="256"
           cy="256"
           r="256"
           id="circle46565" /><path
           style="fill:#b3b3b3"
           d="m 220.316,249.432 c 23.787,0 47.569,0 71.356,0 l 0.388,4.877 -34.872,52.862 -37.458,-53.389 0.582,-4.35 z"
           id="path46567" /><path
           style="fill:#f0ba7d"
           d="m 220.777,236.167 -0.619,29.819 -50.589,27.666 v 101.405 h 85.166 85.152 V 293.652 l -47.019,-29.223 -2.582,-29.814 -69.508,1.557 v -0.005 z"
           id="path46569" /><path
           style="fill:#fed298"
           d="m 197.401,149.214 c 0,0 -2.9,-6.374 -10.688,-3.215 -7.787,3.155 0.351,34.65 3.326,39.047 2.974,4.392 7.764,1.603 9.51,1.427 2.48,18.775 2.702,31.717 10.217,39.634 7.117,7.496 23.417,22.776 32.003,28.1 5.815,1.229 10.152,1.949 14.235,2.166 4.078,-0.217 8.42,-0.937 14.235,-2.166 8.586,-5.326 24.886,-20.605 32.003,-28.1 7.514,-7.917 7.737,-20.853 10.217,-39.634 1.746,0.176 6.531,2.965 9.51,-1.427 2.974,-4.392 11.117,-35.888 3.326,-39.047 -7.787,-3.159 -10.688,3.215 -10.688,3.215 0,0 7.7,-24.734 -5.986,-49.079 -9.376,-16.687 -30.766,-25.339 -52.612,-25.976 -21.846,0.633 -43.237,9.288 -52.612,25.976 -13.685,24.345 -5.986,49.079 -5.986,49.079 z"
           id="path46571" /><path
           style="fill:#21d0c3"
           d="m 195.35,274.761 c 5.445,44.982 121.031,43.708 121.298,0.005 l 38.013,64.612 -30.105,163.324 C 302.733,508.753 279.75,512 256,512 c -19.371,0 -38.229,-2.166 -56.368,-6.24 l -53.956,-161.223 49.68,-69.776 z"
           id="path46573" /><path
           style="fill:#ffffff"
           d="m 206.385,271.279 c -134.374,43.699 -95.863,22.387 -126.24,170.746 18.267,17.274 39.08,31.879 61.813,43.209 l 13.487,-44.008 c 0.157,-0.503 0.638,-0.817 1.16,-0.758 0.522,0.059 0.919,0.48 0.951,1.007 l 1.949,51.689 c 29.782,12.133 62.353,18.83 96.5,18.83 V 405.006 L 206.39,271.274 Z"
           id="path46575" /><path
           style="fill:#eef3f7"
           d="m 305.587,271.584 c 134.484,43.277 95.891,22.096 126.268,170.442 -18.267,17.274 -39.084,31.879 -61.817,43.214 l -13.487,-44.008 c -0.153,-0.503 -0.638,-0.822 -1.164,-0.758 -0.522,0.065 -0.919,0.485 -0.947,1.007 L 352.5,493.17 C 322.718,505.303 290.142,512 256.005,512 V 405.011 l 49.587,-133.427 z"
           id="path46577" /><path
           style="fill:#fefefe"
           d="m 346.394,409.066 c -9.991,-1.723 -16.692,-11.224 -14.965,-21.21 1.723,-9.99 11.224,-16.692 21.21,-14.97 9.991,1.723 16.692,11.224 14.965,21.214 -1.723,9.99 -11.224,16.692 -21.214,14.965 h 0.004 z"
           id="path46579" /><path
           style="fill:#21d0c3"
           d="m 346.574,408.013 c -9.409,-1.626 -15.717,-10.567 -14.096,-19.976 1.626,-9.409 10.567,-15.722 19.976,-14.096 9.409,1.626 15.717,10.572 14.096,19.981 -1.626,9.407 -10.567,15.717 -19.976,14.091 z"
           id="path46581" /><path
           style="fill:#ebecec"
           d="m 347.891,400.406 c -5.201,-0.896 -8.697,-5.852 -7.797,-11.052 0.896,-5.206 5.848,-8.697 11.052,-7.797 5.205,0.9 8.697,5.848 7.797,11.052 -0.896,5.206 -5.848,8.697 -11.052,7.797 z"
           id="path46583" /><path
           style="fill:#fefefe"
           d="m 349.012,382.578 4.203,0.726 2.259,-13.089 -4.203,-0.726 z"
           id="path46585" /><path
           style="fill:#21d0c3"
           d="m 208.237,412.701 7.875,-1.561 c 3.348,-0.665 6.12,-2.637 7.885,-5.28 1.765,-2.643 2.531,-5.958 1.866,-9.302 l -9.261,-46.668 c -3.496,-17.612 -17.274,-26.59 -33.015,-28.581 -6.032,-0.763 -12.355,-0.485 -18.484,0.73 -6.129,1.21 -12.073,3.371 -17.357,6.379 -13.755,7.834 -23.025,21.375 -19.524,39.015 l 9.261,46.668 c 0.665,3.348 2.637,6.115 5.28,7.885 l 0.005,-0.005 c 2.642,1.769 5.953,2.531 9.298,1.87 l 7.871,-1.561 -0.642,-3.247 -7.875,1.561 c -2.452,0.485 -4.886,-0.074 -6.822,-1.367 v 0 c -1.94,-1.297 -3.385,-3.331 -3.875,-5.783 l -9.261,-46.668 c -3.178,-16.004 5.317,-28.341 17.902,-35.505 4.974,-2.835 10.581,-4.868 16.374,-6.018 5.788,-1.146 11.75,-1.404 17.436,-0.689 14.406,1.819 27.01,9.982 30.179,25.957 l 9.265,46.668 c 0.485,2.452 -0.079,4.882 -1.371,6.822 -1.297,1.935 -3.331,3.385 -5.783,3.87 l -7.875,1.561 0.642,3.247 h 0.006 z"
           id="path46587" /><path
           style="fill:#4d4d4d"
           d="m 219.101,356.8 -1.418,-7.131 c -3.603,-18.157 -17.777,-27.412 -33.962,-29.458 -6.148,-0.776 -12.59,-0.499 -18.831,0.739 -6.245,1.234 -12.3,3.436 -17.68,6.498 -14.147,8.055 -23.671,22.004 -20.064,40.188 l 1.418,7.131 5.404,-1.076 -1.418,-7.127 c -3.067,-15.459 5.168,-27.393 17.362,-34.336 4.872,-2.776 10.369,-4.767 16.046,-5.893 5.677,-1.127 11.52,-1.381 17.09,-0.675 13.963,1.765 26.165,9.653 29.232,25.08 l 1.413,7.131 z"
           id="path46589" /><g
           id="g46595">
	<path
   style="fill:#076673"
   d="m 153.704,424.234 4.213,-0.836 c 1.058,1.187 2.693,1.796 4.364,1.464 2.508,-0.499 4.138,-2.933 3.64,-5.441 -0.494,-2.503 -2.933,-4.134 -5.441,-3.635 -1.672,0.332 -2.951,1.52 -3.473,3.021 l -4.213,0.836 z"
   id="path46591" />
	<path
   style="fill:#076673"
   d="m 211.586,412.747 -4.208,0.836 c -0.522,1.496 -1.801,2.688 -3.473,3.021 -2.508,0.494 -4.942,-1.132 -5.441,-3.64 -0.494,-2.503 1.132,-4.942 3.635,-5.436 1.668,-0.332 3.308,0.281 4.36,1.464 l 4.213,-0.836 0.91,4.591 z"
   id="path46593" />
</g><path
           style="fill:#666666"
           d="m 167.458,320.534 -1.607,-8.097 -3.196,0.638 -3.192,0.633 1.626,8.175 c 1.215,-0.355 2.448,-0.656 3.695,-0.9 0.887,-0.176 1.779,-0.323 2.674,-0.443 z"
           id="path46597" /><g
           id="g46603">
	<path
   style="fill:#0f7986"
   d="m 160.562,419.731 c 0.758,-0.153 1.252,-0.891 1.099,-1.644 -0.148,-0.758 -0.887,-1.252 -1.644,-1.104 -0.758,0.153 -1.252,0.887 -1.099,1.644 0.153,0.758 0.887,1.252 1.645,1.099 z"
   id="path46599" />
	<path
   style="fill:#0f7986"
   d="m 202.219,411.449 c 0.758,-0.148 1.247,-0.887 1.099,-1.644 -0.153,-0.763 -0.887,-1.252 -1.644,-1.104 -0.758,0.153 -1.252,0.887 -1.099,1.649 0.148,0.758 0.887,1.247 1.649,1.099 z"
   id="path46601" />
</g><path
           style="fill:#fefefe"
           d="m 347.378,400.318 c -4.923,-0.85 -8.226,-5.528 -7.377,-10.453 0.85,-4.919 5.528,-8.221 10.453,-7.372 4.923,0.85 8.226,5.528 7.377,10.453 -0.85,4.923 -5.533,8.226 -10.453,7.377 z"
           id="path46605" /><g
           id="g46611">
	<path
   style="fill:#4d4d4d"
   d="m 206.432,268.715 c -0.143,0 -49.86,0.416 -41.463,43.91 l -4.623,0.882 c -9.469,-49.037 45.873,-49.49 46.031,-49.49 z"
   id="path46607" />
	<path
   style="fill:#4d4d4d"
   d="m 305.643,264.245 c 8.11,0.217 23.792,2.429 35.86,17.113 11.81,14.364 20.092,40.751 13.898,89.129 l -4.66,-0.591 c 5.99,-46.821 -1.751,-72.029 -12.868,-85.554 -10.859,-13.21 -25.02,-15.2 -32.345,-15.399 l 0.111,-4.697 h 0.004 z"
   id="path46609" />
</g><path
           style="fill:#fefefe"
           d="m 256,256.369 c 0,0 -9.847,-0.522 -14.281,-1.833 -4.434,-1.311 -32.003,-28.1 -32.003,-28.1 l 0.863,-39.477 38.498,-1.756 c 0,0 4.582,-2.73 6.923,-2.153 2.346,-0.577 6.923,2.153 6.923,2.153 l 38.498,1.756 0.863,39.477 c 0,0 -27.569,26.789 -32.004,28.1 -4.433,1.311 -14.28,1.833 -14.28,1.833 z"
           id="path46613" /><path
           style="fill:#eef3f7"
           d="m 256,183.051 3.118,10.887 -1.658,7.602 3.413,18.327 -3.589,17.524 -1.288,18.979 c 0,0 9.847,-0.522 14.281,-1.833 4.434,-1.311 32.004,-28.1 32.004,-28.1 l -0.863,-39.477 -38.498,-1.756 c 0,0 -4.582,-2.73 -6.923,-2.153 z"
           id="path46615" /><g
           id="g46623">
	<path
   style="fill:#21d0c3"
   d="m 194.751,141.427 18.679,46.525 -2.194,0.836 -18.679,-46.525 z"
   id="path46617" />
	<path
   style="fill:#21d0c3"
   d="m 318.723,142.928 -17.579,46.543 -2.268,-0.638 17.579,-46.543 z"
   id="path46619" />
	<path
   style="fill:#21d0c3"
   d="m 255.829,63.263 c 0,0 -57.697,8.655 -62.376,20.756 -4.679,12.101 -8.577,9.353 -7.409,23.653 1.169,14.3 0.665,38.331 0.665,38.331 49.485,-18.041 89.207,-18.696 138.235,0 0,0 -0.503,-24.031 0.665,-38.331 1.169,-14.3 -2.73,-11.551 -7.409,-23.653 -4.679,-12.101 -62.376,-20.756 -62.376,-20.756 0,0 0.005,0 0.005,0 z"
   id="path46621" />
</g><path
           style="fill:#15bdb2"
           d="m 255.829,63.263 -0.281,0.042 c 0,0 56.964,14.485 57.55,18.881 0.587,4.397 -2.171,8.554 4.485,10.817 6.656,2.264 4.872,12.651 4.872,12.651 l -1.035,39.518 0.323,0.378 3.206,0.443 c 0,0 -0.503,-24.031 0.665,-38.331 1.168,-14.3 -2.73,-11.551 -7.409,-23.653 -4.679,-12.101 -62.376,-20.756 -62.376,-20.756 z"
           id="path46625" /></g><g
         id="g48020"
         transform="matrix(0.04736365,0,0,0.04736365,-52.591118,46.937213)"
         style="stroke:none;stroke-width:6.99733;stroke-dasharray:none;stroke-opacity:1"><circle
           style="fill:#8e909f;fill-opacity:1;stroke:#000000;stroke-width:18.0457;stroke-dasharray:none;stroke-opacity:1"
           cx="256"
           cy="256"
           r="256"
           id="circle47958" /><path
           style="fill:#b3b3b3;stroke:none;stroke-width:6.99733;stroke-dasharray:none;stroke-opacity:1"
           d="m 220.316,249.432 c 23.787,0 47.569,0 71.356,0 l 0.388,4.877 -34.872,52.862 -37.458,-53.389 0.582,-4.35 z"
           id="path47960" /><path
           style="fill:#f0ba7d;stroke:none;stroke-width:6.99733;stroke-dasharray:none;stroke-opacity:1"
           d="m 220.777,236.167 -0.619,29.819 -50.589,27.666 v 101.405 h 85.166 85.152 V 293.652 l -47.019,-29.223 -2.582,-29.814 -69.508,1.557 v -0.005 z"
           id="path47962" /><path
           style="fill:#fed298;stroke:none;stroke-width:6.99733;stroke-dasharray:none;stroke-opacity:1"
           d="m 197.401,149.214 c 0,0 -2.9,-6.374 -10.688,-3.215 -7.787,3.155 0.351,34.65 3.326,39.047 2.974,4.392 7.764,1.603 9.51,1.427 2.48,18.775 2.702,31.717 10.217,39.634 7.117,7.496 23.417,22.776 32.003,28.1 5.815,1.229 10.152,1.949 14.235,2.166 4.078,-0.217 8.42,-0.937 14.235,-2.166 8.586,-5.326 24.886,-20.605 32.003,-28.1 7.514,-7.917 7.737,-20.853 10.217,-39.634 1.746,0.176 6.531,2.965 9.51,-1.427 2.974,-4.392 11.117,-35.888 3.326,-39.047 -7.787,-3.159 -10.688,3.215 -10.688,3.215 0,0 7.7,-24.734 -5.986,-49.079 -9.376,-16.687 -30.766,-25.339 -52.612,-25.976 -21.846,0.633 -43.237,9.288 -52.612,25.976 -13.685,24.345 -5.986,49.079 -5.986,49.079 z"
           id="path47964" /><path
           style="fill:#21d0c3;stroke:none;stroke-width:6.99733;stroke-dasharray:none;stroke-opacity:1"
           d="m 195.35,274.761 c 5.445,44.982 121.031,43.708 121.298,0.005 l 38.013,64.612 -30.105,163.324 C 302.733,508.753 279.75,512 256,512 c -19.371,0 -38.229,-2.166 -56.368,-6.24 l -53.956,-161.223 49.68,-69.776 z"
           id="path47966" /><path
           style="fill:#ffffff;stroke:none;stroke-width:6.99733;stroke-dasharray:none;stroke-opacity:1"
           d="m 206.385,271.279 c -134.374,43.699 -95.863,22.387 -126.24,170.746 18.267,17.274 39.08,31.879 61.813,43.209 l 13.487,-44.008 c 0.157,-0.503 0.638,-0.817 1.16,-0.758 0.522,0.059 0.919,0.48 0.951,1.007 l 1.949,51.689 c 29.782,12.133 62.353,18.83 96.5,18.83 V 405.006 L 206.39,271.274 Z"
           id="path47968" /><path
           style="fill:#eef3f7;stroke:none;stroke-width:6.99733;stroke-dasharray:none;stroke-opacity:1"
           d="m 305.587,271.584 c 134.484,43.277 95.891,22.096 126.268,170.442 -18.267,17.274 -39.084,31.879 -61.817,43.214 l -13.487,-44.008 c -0.153,-0.503 -0.638,-0.822 -1.164,-0.758 -0.522,0.065 -0.919,0.485 -0.947,1.007 L 352.5,493.17 C 322.718,505.303 290.142,512 256.005,512 V 405.011 l 49.587,-133.427 z"
           id="path47970" /><path
           style="fill:#fefefe;stroke:none;stroke-width:6.99733;stroke-dasharray:none;stroke-opacity:1"
           d="m 346.394,409.066 c -9.991,-1.723 -16.692,-11.224 -14.965,-21.21 1.723,-9.99 11.224,-16.692 21.21,-14.97 9.991,1.723 16.692,11.224 14.965,21.214 -1.723,9.99 -11.224,16.692 -21.214,14.965 h 0.004 z"
           id="path47972" /><path
           style="fill:#21d0c3;stroke:none;stroke-width:6.99733;stroke-dasharray:none;stroke-opacity:1"
           d="m 346.574,408.013 c -9.409,-1.626 -15.717,-10.567 -14.096,-19.976 1.626,-9.409 10.567,-15.722 19.976,-14.096 9.409,1.626 15.717,10.572 14.096,19.981 -1.626,9.407 -10.567,15.717 -19.976,14.091 z"
           id="path47974" /><path
           style="fill:#ebecec;stroke:none;stroke-width:6.99733;stroke-dasharray:none;stroke-opacity:1"
           d="m 347.891,400.406 c -5.201,-0.896 -8.697,-5.852 -7.797,-11.052 0.896,-5.206 5.848,-8.697 11.052,-7.797 5.205,0.9 8.697,5.848 7.797,11.052 -0.896,5.206 -5.848,8.697 -11.052,7.797 z"
           id="path47976" /><path
           style="fill:#fefefe;stroke:none;stroke-width:6.99733;stroke-dasharray:none;stroke-opacity:1"
           d="m 349.012,382.578 4.203,0.726 2.259,-13.089 -4.203,-0.726 z"
           id="path47978" /><path
           style="fill:#21d0c3;stroke:none;stroke-width:6.99733;stroke-dasharray:none;stroke-opacity:1"
           d="m 208.237,412.701 7.875,-1.561 c 3.348,-0.665 6.12,-2.637 7.885,-5.28 1.765,-2.643 2.531,-5.958 1.866,-9.302 l -9.261,-46.668 c -3.496,-17.612 -17.274,-26.59 -33.015,-28.581 -6.032,-0.763 -12.355,-0.485 -18.484,0.73 -6.129,1.21 -12.073,3.371 -17.357,6.379 -13.755,7.834 -23.025,21.375 -19.524,39.015 l 9.261,46.668 c 0.665,3.348 2.637,6.115 5.28,7.885 l 0.005,-0.005 c 2.642,1.769 5.953,2.531 9.298,1.87 l 7.871,-1.561 -0.642,-3.247 -7.875,1.561 c -2.452,0.485 -4.886,-0.074 -6.822,-1.367 v 0 c -1.94,-1.297 -3.385,-3.331 -3.875,-5.783 l -9.261,-46.668 c -3.178,-16.004 5.317,-28.341 17.902,-35.505 4.974,-2.835 10.581,-4.868 16.374,-6.018 5.788,-1.146 11.75,-1.404 17.436,-0.689 14.406,1.819 27.01,9.982 30.179,25.957 l 9.265,46.668 c 0.485,2.452 -0.079,4.882 -1.371,6.822 -1.297,1.935 -3.331,3.385 -5.783,3.87 l -7.875,1.561 0.642,3.247 h 0.006 z"
           id="path47980" /><path
           style="fill:#4d4d4d;stroke:none;stroke-width:6.99733;stroke-dasharray:none;stroke-opacity:1"
           d="m 219.101,356.8 -1.418,-7.131 c -3.603,-18.157 -17.777,-27.412 -33.962,-29.458 -6.148,-0.776 -12.59,-0.499 -18.831,0.739 -6.245,1.234 -12.3,3.436 -17.68,6.498 -14.147,8.055 -23.671,22.004 -20.064,40.188 l 1.418,7.131 5.404,-1.076 -1.418,-7.127 c -3.067,-15.459 5.168,-27.393 17.362,-34.336 4.872,-2.776 10.369,-4.767 16.046,-5.893 5.677,-1.127 11.52,-1.381 17.09,-0.675 13.963,1.765 26.165,9.653 29.232,25.08 l 1.413,7.131 z"
           id="path47982" /><g
           id="g47988"
           style="stroke:none;stroke-width:6.99733;stroke-dasharray:none;stroke-opacity:1">
	<path
   style="fill:#076673;stroke:none;stroke-width:6.99733;stroke-dasharray:none;stroke-opacity:1"
   d="m 153.704,424.234 4.213,-0.836 c 1.058,1.187 2.693,1.796 4.364,1.464 2.508,-0.499 4.138,-2.933 3.64,-5.441 -0.494,-2.503 -2.933,-4.134 -5.441,-3.635 -1.672,0.332 -2.951,1.52 -3.473,3.021 l -4.213,0.836 z"
   id="path47984" />
	<path
   style="fill:#076673;stroke:none;stroke-width:6.99733;stroke-dasharray:none;stroke-opacity:1"
   d="m 211.586,412.747 -4.208,0.836 c -0.522,1.496 -1.801,2.688 -3.473,3.021 -2.508,0.494 -4.942,-1.132 -5.441,-3.64 -0.494,-2.503 1.132,-4.942 3.635,-5.436 1.668,-0.332 3.308,0.281 4.36,1.464 l 4.213,-0.836 0.91,4.591 z"
   id="path47986" />
</g><path
           style="fill:#666666;stroke:none;stroke-width:6.99733;stroke-dasharray:none;stroke-opacity:1"
           d="m 167.458,320.534 -1.607,-8.097 -3.196,0.638 -3.192,0.633 1.626,8.175 c 1.215,-0.355 2.448,-0.656 3.695,-0.9 0.887,-0.176 1.779,-0.323 2.674,-0.443 z"
           id="path47990" /><g
           id="g47996"
           style="stroke:none;stroke-width:6.99733;stroke-dasharray:none;stroke-opacity:1">
	<path
   style="fill:#0f7986;stroke:none;stroke-width:6.99733;stroke-dasharray:none;stroke-opacity:1"
   d="m 160.562,419.731 c 0.758,-0.153 1.252,-0.891 1.099,-1.644 -0.148,-0.758 -0.887,-1.252 -1.644,-1.104 -0.758,0.153 -1.252,0.887 -1.099,1.644 0.153,0.758 0.887,1.252 1.645,1.099 z"
   id="path47992" />
	<path
   style="fill:#0f7986;stroke:none;stroke-width:6.99733;stroke-dasharray:none;stroke-opacity:1"
   d="m 202.219,411.449 c 0.758,-0.148 1.247,-0.887 1.099,-1.644 -0.153,-0.763 -0.887,-1.252 -1.644,-1.104 -0.758,0.153 -1.252,0.887 -1.099,1.649 0.148,0.758 0.887,1.247 1.649,1.099 z"
   id="path47994" />
</g><path
           style="fill:#fefefe;stroke:none;stroke-width:6.99733;stroke-dasharray:none;stroke-opacity:1"
           d="m 347.378,400.318 c -4.923,-0.85 -8.226,-5.528 -7.377,-10.453 0.85,-4.919 5.528,-8.221 10.453,-7.372 4.923,0.85 8.226,5.528 7.377,10.453 -0.85,4.923 -5.533,8.226 -10.453,7.377 z"
           id="path47998" /><g
           id="g48004"
           style="stroke:none;stroke-width:6.99733;stroke-dasharray:none;stroke-opacity:1">
	<path
   style="fill:#4d4d4d;stroke:none;stroke-width:6.99733;stroke-dasharray:none;stroke-opacity:1"
   d="m 206.432,268.715 c -0.143,0 -49.86,0.416 -41.463,43.91 l -4.623,0.882 c -9.469,-49.037 45.873,-49.49 46.031,-49.49 z"
   id="path48000" />
	<path
   style="fill:#4d4d4d;stroke:none;stroke-width:6.99733;stroke-dasharray:none;stroke-opacity:1"
   d="m 305.643,264.245 c 8.11,0.217 23.792,2.429 35.86,17.113 11.81,14.364 20.092,40.751 13.898,89.129 l -4.66,-0.591 c 5.99,-46.821 -1.751,-72.029 -12.868,-85.554 -10.859,-13.21 -25.02,-15.2 -32.345,-15.399 l 0.111,-4.697 h 0.004 z"
   id="path48002" />
</g><path
           style="fill:#fefefe;stroke:none;stroke-width:6.99733;stroke-dasharray:none;stroke-opacity:1"
           d="m 256,256.369 c 0,0 -9.847,-0.522 -14.281,-1.833 -4.434,-1.311 -32.003,-28.1 -32.003,-28.1 l 0.863,-39.477 38.498,-1.756 c 0,0 4.582,-2.73 6.923,-2.153 2.346,-0.577 6.923,2.153 6.923,2.153 l 38.498,1.756 0.863,39.477 c 0,0 -27.569,26.789 -32.004,28.1 -4.433,1.311 -14.28,1.833 -14.28,1.833 z"
           id="path48006" /><path
           style="fill:#eef3f7;stroke:none;stroke-width:6.99733;stroke-dasharray:none;stroke-opacity:1"
           d="m 256,183.051 3.118,10.887 -1.658,7.602 3.413,18.327 -3.589,17.524 -1.288,18.979 c 0,0 9.847,-0.522 14.281,-1.833 4.434,-1.311 32.004,-28.1 32.004,-28.1 l -0.863,-39.477 -38.498,-1.756 c 0,0 -4.582,-2.73 -6.923,-2.153 z"
           id="path48008" /><g
           id="g48016"
           style="stroke:none;stroke-width:6.99733;stroke-dasharray:none;stroke-opacity:1">
	<path
   style="fill:#21d0c3;stroke:none;stroke-width:6.99733;stroke-dasharray:none;stroke-opacity:1"
   d="m 194.751,141.427 18.679,46.525 -2.194,0.836 -18.679,-46.525 z"
   id="path48010" />
	<path
   style="fill:#21d0c3;stroke:none;stroke-width:6.99733;stroke-dasharray:none;stroke-opacity:1"
   d="m 318.723,142.928 -17.579,46.543 -2.268,-0.638 17.579,-46.543 z"
   id="path48012" />
	<path
   style="fill:#21d0c3;stroke:none;stroke-width:6.99733;stroke-dasharray:none;stroke-opacity:1"
   d="m 255.829,63.263 c 0,0 -57.697,8.655 -62.376,20.756 -4.679,12.101 -8.577,9.353 -7.409,23.653 1.169,14.3 0.665,38.331 0.665,38.331 49.485,-18.041 89.207,-18.696 138.235,0 0,0 -0.503,-24.031 0.665,-38.331 1.169,-14.3 -2.73,-11.551 -7.409,-23.653 -4.679,-12.101 -62.376,-20.756 -62.376,-20.756 0,0 0.005,0 0.005,0 z"
   id="path48014" />
</g><path
           style="fill:#15bdb2;stroke:none;stroke-width:6.99733;stroke-dasharray:none;stroke-opacity:1"
           d="m 255.829,63.263 -0.281,0.042 c 0,0 56.964,14.485 57.55,18.881 0.587,4.397 -2.171,8.554 4.485,10.817 6.656,2.264 4.872,12.651 4.872,12.651 l -1.035,39.518 0.323,0.378 3.206,0.443 c 0,0 -0.503,-24.031 0.665,-38.331 1.168,-14.3 -2.73,-11.551 -7.409,-23.653 -4.679,-12.101 -62.376,-20.756 -62.376,-20.756 z"
           id="path48018" /></g><g
         id="g48567"
         transform="matrix(0.04736365,0,0,0.04736365,-71.051738,-33.366503)"><circle
           style="fill:#7994c0;fill-opacity:1;stroke:#000000;stroke-width:14.3629;stroke-dasharray:none;stroke-opacity:1"
           cx="256"
           cy="256"
           r="256"
           id="circle48505" /><path
           style="fill:#b3b3b3"
           d="m 220.316,249.432 c 23.787,0 47.569,0 71.356,0 l 0.388,4.877 -34.872,52.862 -37.458,-53.389 0.582,-4.35 z"
           id="path48507" /><path
           style="fill:#f0ba7d"
           d="m 220.777,236.167 -0.619,29.819 -50.589,27.666 v 101.405 h 85.166 85.152 V 293.652 l -47.019,-29.223 -2.582,-29.814 -69.508,1.557 v -0.005 z"
           id="path48509" /><path
           style="fill:#fed298"
           d="m 197.401,149.214 c 0,0 -2.9,-6.374 -10.688,-3.215 -7.787,3.155 0.351,34.65 3.326,39.047 2.974,4.392 7.764,1.603 9.51,1.427 2.48,18.775 2.702,31.717 10.217,39.634 7.117,7.496 23.417,22.776 32.003,28.1 5.815,1.229 10.152,1.949 14.235,2.166 4.078,-0.217 8.42,-0.937 14.235,-2.166 8.586,-5.326 24.886,-20.605 32.003,-28.1 7.514,-7.917 7.737,-20.853 10.217,-39.634 1.746,0.176 6.531,2.965 9.51,-1.427 2.974,-4.392 11.117,-35.888 3.326,-39.047 -7.787,-3.159 -10.688,3.215 -10.688,3.215 0,0 7.7,-24.734 -5.986,-49.079 -9.376,-16.687 -30.766,-25.339 -52.612,-25.976 -21.846,0.633 -43.237,9.288 -52.612,25.976 -13.685,24.345 -5.986,49.079 -5.986,49.079 z"
           id="path48511" /><path
           style="fill:#21d0c3"
           d="m 195.35,274.761 c 5.445,44.982 121.031,43.708 121.298,0.005 l 38.013,64.612 -30.105,163.324 C 302.733,508.753 279.75,512 256,512 c -19.371,0 -38.229,-2.166 -56.368,-6.24 l -53.956,-161.223 49.68,-69.776 z"
           id="path48513" /><path
           style="fill:#ffffff"
           d="m 206.385,271.279 c -134.374,43.699 -95.863,22.387 -126.24,170.746 18.267,17.274 39.08,31.879 61.813,43.209 l 13.487,-44.008 c 0.157,-0.503 0.638,-0.817 1.16,-0.758 0.522,0.059 0.919,0.48 0.951,1.007 l 1.949,51.689 c 29.782,12.133 62.353,18.83 96.5,18.83 V 405.006 L 206.39,271.274 Z"
           id="path48515" /><path
           style="fill:#eef3f7"
           d="m 305.587,271.584 c 134.484,43.277 95.891,22.096 126.268,170.442 -18.267,17.274 -39.084,31.879 -61.817,43.214 l -13.487,-44.008 c -0.153,-0.503 -0.638,-0.822 -1.164,-0.758 -0.522,0.065 -0.919,0.485 -0.947,1.007 L 352.5,493.17 C 322.718,505.303 290.142,512 256.005,512 V 405.011 l 49.587,-133.427 z"
           id="path48517" /><path
           style="fill:#fefefe"
           d="m 346.394,409.066 c -9.991,-1.723 -16.692,-11.224 -14.965,-21.21 1.723,-9.99 11.224,-16.692 21.21,-14.97 9.991,1.723 16.692,11.224 14.965,21.214 -1.723,9.99 -11.224,16.692 -21.214,14.965 h 0.004 z"
           id="path48519" /><path
           style="fill:#21d0c3"
           d="m 346.574,408.013 c -9.409,-1.626 -15.717,-10.567 -14.096,-19.976 1.626,-9.409 10.567,-15.722 19.976,-14.096 9.409,1.626 15.717,10.572 14.096,19.981 -1.626,9.407 -10.567,15.717 -19.976,14.091 z"
           id="path48521" /><path
           style="fill:#ebecec"
           d="m 347.891,400.406 c -5.201,-0.896 -8.697,-5.852 -7.797,-11.052 0.896,-5.206 5.848,-8.697 11.052,-7.797 5.205,0.9 8.697,5.848 7.797,11.052 -0.896,5.206 -5.848,8.697 -11.052,7.797 z"
           id="path48523" /><path
           style="fill:#fefefe"
           d="m 349.012,382.578 4.203,0.726 2.259,-13.089 -4.203,-0.726 z"
           id="path48525" /><path
           style="fill:#21d0c3"
           d="m 208.237,412.701 7.875,-1.561 c 3.348,-0.665 6.12,-2.637 7.885,-5.28 1.765,-2.643 2.531,-5.958 1.866,-9.302 l -9.261,-46.668 c -3.496,-17.612 -17.274,-26.59 -33.015,-28.581 -6.032,-0.763 -12.355,-0.485 -18.484,0.73 -6.129,1.21 -12.073,3.371 -17.357,6.379 -13.755,7.834 -23.025,21.375 -19.524,39.015 l 9.261,46.668 c 0.665,3.348 2.637,6.115 5.28,7.885 l 0.005,-0.005 c 2.642,1.769 5.953,2.531 9.298,1.87 l 7.871,-1.561 -0.642,-3.247 -7.875,1.561 c -2.452,0.485 -4.886,-0.074 -6.822,-1.367 v 0 c -1.94,-1.297 -3.385,-3.331 -3.875,-5.783 l -9.261,-46.668 c -3.178,-16.004 5.317,-28.341 17.902,-35.505 4.974,-2.835 10.581,-4.868 16.374,-6.018 5.788,-1.146 11.75,-1.404 17.436,-0.689 14.406,1.819 27.01,9.982 30.179,25.957 l 9.265,46.668 c 0.485,2.452 -0.079,4.882 -1.371,6.822 -1.297,1.935 -3.331,3.385 -5.783,3.87 l -7.875,1.561 0.642,3.247 h 0.006 z"
           id="path48527" /><path
           style="fill:#4d4d4d"
           d="m 219.101,356.8 -1.418,-7.131 c -3.603,-18.157 -17.777,-27.412 -33.962,-29.458 -6.148,-0.776 -12.59,-0.499 -18.831,0.739 -6.245,1.234 -12.3,3.436 -17.68,6.498 -14.147,8.055 -23.671,22.004 -20.064,40.188 l 1.418,7.131 5.404,-1.076 -1.418,-7.127 c -3.067,-15.459 5.168,-27.393 17.362,-34.336 4.872,-2.776 10.369,-4.767 16.046,-5.893 5.677,-1.127 11.52,-1.381 17.09,-0.675 13.963,1.765 26.165,9.653 29.232,25.08 l 1.413,7.131 z"
           id="path48529" /><g
           id="g48535">
	<path
   style="fill:#076673"
   d="m 153.704,424.234 4.213,-0.836 c 1.058,1.187 2.693,1.796 4.364,1.464 2.508,-0.499 4.138,-2.933 3.64,-5.441 -0.494,-2.503 -2.933,-4.134 -5.441,-3.635 -1.672,0.332 -2.951,1.52 -3.473,3.021 l -4.213,0.836 z"
   id="path48531" />
	<path
   style="fill:#076673"
   d="m 211.586,412.747 -4.208,0.836 c -0.522,1.496 -1.801,2.688 -3.473,3.021 -2.508,0.494 -4.942,-1.132 -5.441,-3.64 -0.494,-2.503 1.132,-4.942 3.635,-5.436 1.668,-0.332 3.308,0.281 4.36,1.464 l 4.213,-0.836 0.91,4.591 z"
   id="path48533" />
</g><path
           style="fill:#666666"
           d="m 167.458,320.534 -1.607,-8.097 -3.196,0.638 -3.192,0.633 1.626,8.175 c 1.215,-0.355 2.448,-0.656 3.695,-0.9 0.887,-0.176 1.779,-0.323 2.674,-0.443 z"
           id="path48537" /><g
           id="g48543">
	<path
   style="fill:#0f7986"
   d="m 160.562,419.731 c 0.758,-0.153 1.252,-0.891 1.099,-1.644 -0.148,-0.758 -0.887,-1.252 -1.644,-1.104 -0.758,0.153 -1.252,0.887 -1.099,1.644 0.153,0.758 0.887,1.252 1.645,1.099 z"
   id="path48539" />
	<path
   style="fill:#0f7986"
   d="m 202.219,411.449 c 0.758,-0.148 1.247,-0.887 1.099,-1.644 -0.153,-0.763 -0.887,-1.252 -1.644,-1.104 -0.758,0.153 -1.252,0.887 -1.099,1.649 0.148,0.758 0.887,1.247 1.649,1.099 z"
   id="path48541" />
</g><path
           style="fill:#fefefe"
           d="m 347.378,400.318 c -4.923,-0.85 -8.226,-5.528 -7.377,-10.453 0.85,-4.919 5.528,-8.221 10.453,-7.372 4.923,0.85 8.226,5.528 7.377,10.453 -0.85,4.923 -5.533,8.226 -10.453,7.377 z"
           id="path48545" /><g
           id="g48551">
	<path
   style="fill:#4d4d4d"
   d="m 206.432,268.715 c -0.143,0 -49.86,0.416 -41.463,43.91 l -4.623,0.882 c -9.469,-49.037 45.873,-49.49 46.031,-49.49 z"
   id="path48547" />
	<path
   style="fill:#4d4d4d"
   d="m 305.643,264.245 c 8.11,0.217 23.792,2.429 35.86,17.113 11.81,14.364 20.092,40.751 13.898,89.129 l -4.66,-0.591 c 5.99,-46.821 -1.751,-72.029 -12.868,-85.554 -10.859,-13.21 -25.02,-15.2 -32.345,-15.399 l 0.111,-4.697 h 0.004 z"
   id="path48549" />
</g><path
           style="fill:#fefefe"
           d="m 256,256.369 c 0,0 -9.847,-0.522 -14.281,-1.833 -4.434,-1.311 -32.003,-28.1 -32.003,-28.1 l 0.863,-39.477 38.498,-1.756 c 0,0 4.582,-2.73 6.923,-2.153 2.346,-0.577 6.923,2.153 6.923,2.153 l 38.498,1.756 0.863,39.477 c 0,0 -27.569,26.789 -32.004,28.1 -4.433,1.311 -14.28,1.833 -14.28,1.833 z"
           id="path48553" /><path
           style="fill:#eef3f7"
           d="m 256,183.051 3.118,10.887 -1.658,7.602 3.413,18.327 -3.589,17.524 -1.288,18.979 c 0,0 9.847,-0.522 14.281,-1.833 4.434,-1.311 32.004,-28.1 32.004,-28.1 l -0.863,-39.477 -38.498,-1.756 c 0,0 -4.582,-2.73 -6.923,-2.153 z"
           id="path48555" /><g
           id="g48563">
	<path
   style="fill:#21d0c3"
   d="m 194.751,141.427 18.679,46.525 -2.194,0.836 -18.679,-46.525 z"
   id="path48557" />
	<path
   style="fill:#21d0c3"
   d="m 318.723,142.928 -17.579,46.543 -2.268,-0.638 17.579,-46.543 z"
   id="path48559" />
	<path
   style="fill:#21d0c3"
   d="m 255.829,63.263 c 0,0 -57.697,8.655 -62.376,20.756 -4.679,12.101 -8.577,9.353 -7.409,23.653 1.169,14.3 0.665,38.331 0.665,38.331 49.485,-18.041 89.207,-18.696 138.235,0 0,0 -0.503,-24.031 0.665,-38.331 1.169,-14.3 -2.73,-11.551 -7.409,-23.653 -4.679,-12.101 -62.376,-20.756 -62.376,-20.756 0,0 0.005,0 0.005,0 z"
   id="path48561" />
</g><path
           style="fill:#15bdb2"
           d="m 255.829,63.263 -0.281,0.042 c 0,0 56.964,14.485 57.55,18.881 0.587,4.397 -2.171,8.554 4.485,10.817 6.656,2.264 4.872,12.651 4.872,12.651 l -1.035,39.518 0.323,0.378 3.206,0.443 c 0,0 -0.503,-24.031 0.665,-38.331 1.168,-14.3 -2.73,-11.551 -7.409,-23.653 -4.679,-12.101 -62.376,-20.756 -62.376,-20.756 z"
           id="path48565" /></g><path
         style="fill:none;stroke:#11837a;stroke-width:0.462242;stroke-linecap:butt;stroke-linejoin:miter;stroke-dasharray:none;stroke-opacity:1;marker-end:url(#marker50787)"
         d="m 11.823063,142.08005 -82.443159,-0.0843 -0.377156,-163.116955"
         id="path49764"
         sodipodi:nodetypes="ccc" /><path
         style="fill:none;stroke:#11837a;stroke-width:0.461516px;stroke-linecap:butt;stroke-linejoin:miter;stroke-opacity:1;marker-end:url(#marker51291)"
         d="m 47.561876,142.02535 71.648154,-0.0296 0.37715,-163.116955"
         id="path49766"
         sodipodi:nodetypes="ccc" /><g
         id="g49771"
         transform="matrix(-1,0,0,1,48.308733,0)"
         style="stroke:#11837a;stroke-opacity:1"><path
           style="fill:none;stroke:#11837a;stroke-width:0.461516px;stroke-linecap:butt;stroke-linejoin:miter;stroke-opacity:1;marker-end:url(#marker51137)"
           d="m 47.561876,142.02535 53.187534,-0.0296 0.37715,-83.736268"
           id="path49768"
           sodipodi:nodetypes="ccc" /></g><g
         id="g49775"
         transform="translate(5.1281808e-5)"
         style="stroke:#11837a;stroke-opacity:1"><path
           style="fill:none;stroke:#11837a;stroke-width:0.461516px;stroke-linecap:butt;stroke-linejoin:miter;stroke-opacity:1;marker-end:url(#marker51291)"
           d="m 47.561876,142.02535 53.187534,-0.0296 0.37715,-83.736268"
           id="path49773"
           sodipodi:nodetypes="ccc" /></g></g></g></svg>
